M48
; DRILL file {KiCad 9.0.6-2-gc0dd847fce} date 2026-01-10T14:54:08+0800
; FORMAT={-:-/ absolute / metric / decimal}
; #@! TF.CreationDate,2026-01-10T14:54:08+08:00
; #@! TF.GenerationSoftware,Kicad,Pcbnew,9.0.6-2-gc0dd847fce
; #@! TF.FileFunction,Plated,1,2,PTH
FMAT,2
METRIC
; #@! TA.AperFunction,Plated,PTH,ViaDrill
T1C0.300
; #@! TA.AperFunction,Plated,PTH,ViaDrill
T2C0.400
; #@! TA.AperFunction,Plated,PTH,ViaDrill
T3C0.500
; #@! TA.AperFunction,Plated,PTH,ComponentDrill
T4C0.600
; #@! TA.AperFunction,Plated,PTH,ComponentDrill
T5C1.000
; #@! TA.AperFunction,Plated,PTH,ComponentDrill
T6C3.000
%
G90
G05
T1
X66.59Y-69.27
X66.7Y-75.775
X66.74Y-68.49
X67.1Y-80.27
X67.2Y-77.075
X67.25Y-68.9
X67.28Y-69.48
X67.5Y-78.375
X67.9Y-79.575
X67.9Y-87.275
X67.9Y-113.95
X68.0Y-80.975
X68.0Y-82.175
X68.0Y-83.375
X68.0Y-84.675
X68.0Y-85.975
X68.2Y-95.17
X68.24Y-93.89
X69.7Y-72.575
X69.775Y-71.475
X70.175Y-72.15
X70.825Y-72.15
X71.3Y-71.575
X71.3Y-72.875
X71.4Y-86.075
X71.5Y-87.275
X71.6Y-72.175
X71.9Y-91.125
X71.9Y-91.775
X72.695Y-119.65
X72.8Y-94.55
X73.4Y-110.975
X73.8Y-107.45
X73.965Y-119.65
X74.2Y-95.075
X74.2Y-95.575
X74.2Y-96.075
X74.2Y-97.075
X74.2Y-110.175
X74.2Y-110.975
X74.5Y-112.35
X74.7Y-95.075
X74.7Y-96.075
X74.7Y-97.075
X74.9Y-107.45
X75.2Y-95.075
X75.2Y-96.075
X75.2Y-96.575
X75.2Y-97.075
X75.2Y-118.975
X75.435Y-111.875
X75.7Y-111.275
X75.8Y-81.275
X75.8Y-82.775
X75.9Y-112.45
X76.0Y-95.075
X76.423Y-124.881
X76.505Y-111.275
X76.6Y-95.075
X76.6Y-95.675
X76.6Y-96.175
X76.6Y-96.675
X76.6Y-97.175
X76.7Y-80.675
X76.7Y-81.975
X76.8Y-83.575
X77.1Y-98.275
X77.2Y-95.075
X77.2Y-100.175
X77.3Y-99.175
X77.698Y-85.213
X77.7Y-90.375
X77.7Y-98.075
X77.8Y-99.175
X77.8Y-100.175
X77.9Y-108.475
X78.0Y-95.075
X78.0Y-95.875
X78.0Y-96.475
X78.0Y-97.175
X78.1Y-89.85
X78.1Y-98.575
X78.1Y-99.675
X78.1Y-112.675
X78.2Y-90.975
X78.223Y-84.75
X78.5Y-95.475
X78.6Y-88.978
X78.6Y-108.45
X78.7Y-105.875
X78.8Y-84.35
X78.8Y-100.075
X78.9Y-95.875
X78.9Y-98.175
X78.9Y-113.175
X79.2Y-88.575
X79.2Y-99.575
X79.3Y-112.175
X79.311Y-95.464
X79.4Y-84.15
X79.4Y-97.975
X79.4Y-100.075
X79.6Y-89.175
X79.677Y-95.875
X79.7Y-95.075
X79.7Y-96.475
X79.7Y-97.175
X79.7Y-99.075
X79.8Y-98.475
X80.0Y-100.075
X80.047Y-106.124
X80.4Y-77.05
X80.4Y-77.85
X80.8Y-84.975
X81.4Y-77.05
X81.4Y-77.85
X81.7Y-112.275
X81.92Y-99.025
X81.999Y-106.191
X82.1Y-103.75
X82.2Y-84.95
X82.3Y-77.05
X82.3Y-77.85
X82.5Y-98.35
X82.6Y-103.25
X82.751Y-118.99
X82.773Y-124.881
X83.0Y-94.85
X83.1Y-77.05
X83.1Y-77.85
X83.3Y-102.85
X83.6Y-99.65
X83.8Y-107.275
X83.8Y-108.075
X83.8Y-108.875
X83.8Y-109.575
X83.8Y-110.375
X83.8Y-111.175
X84.0Y-102.15
X84.08Y-96.17
X84.155Y-106.25
X84.3Y-94.775
X84.3Y-111.775
X84.445Y-89.179
X84.479Y-99.829
X84.62Y-101.18
X84.68Y-105.849
X84.858Y-89.614
X84.997Y-104.532
X85.0Y-99.05
X85.1Y-94.075
X85.1Y-95.475
X85.1Y-109.075
X85.1Y-111.775
X85.2Y-83.05
X85.297Y-90.053
X85.3Y-100.646
X85.3Y-91.525
X85.4Y-109.675
X85.7Y-100.175
X85.7Y-121.75
X85.7Y-123.75
X85.9Y-91.35
X86.0Y-92.05
X86.3Y-94.45
X86.4Y-95.15
X86.4Y-105.275
X86.4Y-105.875
X86.5Y-95.95
X86.5Y-99.05
X86.6Y-91.55
X86.832Y-94.015
X86.9Y-93.275
X87.067Y-95.28
X87.101Y-94.551
X87.2Y-72.45
X87.2Y-73.25
X87.2Y-74.05
X87.2Y-74.85
X87.2Y-95.89
X87.5Y-96.55
X87.6Y-97.65
X88.48Y-111.07
X88.48Y-110.37
X88.49Y-109.69
X88.7Y-96.55
X88.7Y-112.15
X88.8Y-78.05
X89.2Y-105.175
X89.3Y-112.15
X89.5Y-108.175
X89.71Y-96.553
X89.9Y-105.15
X89.9Y-112.15
X90.6Y-112.15
X90.61Y-108.22
X90.7Y-108.77
X90.9Y-105.175
X91.2Y-112.05
X91.4Y-116.05
X91.515Y-101.15
X91.751Y-97.038
X91.8Y-107.75
X91.8Y-108.65
X91.8Y-109.45
X91.8Y-112.05
X91.9Y-105.175
X91.9Y-105.975
X91.9Y-111.35
X92.12Y-102.645
X92.501Y-97.038
X92.9Y-105.975
X92.9Y-111.275
X92.91Y-102.675
X93.3Y-84.25
X93.35Y-95.53
X93.5Y-82.75
X93.5Y-106.975
X93.5Y-108.275
X93.5Y-109.475
X93.5Y-110.675
X93.576Y-99.65
X93.66Y-98.71
X93.7Y-102.728
X93.967Y-105.659
X94.1Y-95.79
X94.58Y-100.325
X94.722Y-102.75
X95.2Y-83.15
X95.2Y-120.775
X95.3Y-121.975
X95.4Y-81.25
X96.1Y-108.925
X96.13Y-111.52
T2
X87.035Y-118.34
T3
X68.9Y-74.775
X68.9Y-94.55
X69.0Y-69.129
X72.2Y-111.904
X75.9Y-68.575
X79.35Y-106.568
X81.387Y-79.699
X81.8Y-83.35
X92.8Y-93.15
X94.2Y-76.15
T5
X62.6Y-67.57
X62.6Y-70.11
X62.6Y-72.65
X62.6Y-75.19
X62.6Y-77.73
X62.6Y-80.27
X62.6Y-82.81
X62.6Y-85.35
X62.6Y-87.89
X62.6Y-90.43
X62.6Y-92.97
X62.6Y-95.51
X62.6Y-98.05
X62.6Y-100.59
X62.6Y-103.13
X62.6Y-105.67
X62.6Y-108.21
X62.6Y-110.75
X62.6Y-113.29
X62.6Y-115.83
X62.6Y-118.37
X62.6Y-120.91
X65.14Y-67.57
X65.14Y-70.11
X65.14Y-72.65
X65.14Y-75.19
X65.14Y-77.73
X65.14Y-80.27
X65.14Y-82.81
X65.14Y-85.35
X65.14Y-87.89
X65.14Y-90.43
X65.14Y-92.97
X65.14Y-95.51
X65.14Y-98.05
X65.14Y-100.59
X65.14Y-103.13
X65.14Y-105.67
X65.14Y-108.21
X65.14Y-110.75
X65.14Y-113.29
X65.14Y-115.83
X65.14Y-118.37
X65.14Y-120.91
X72.619Y-70.343
X75.159Y-70.343
X77.699Y-70.343
X80.239Y-70.343
X81.92Y-61.85
X82.779Y-70.343
X84.46Y-61.85
X85.319Y-70.343
X87.0Y-61.85
X87.859Y-70.343
X89.54Y-61.85
X90.399Y-70.343
X92.08Y-61.85
X97.9Y-67.57
X97.9Y-70.11
X97.9Y-72.65
X97.9Y-75.19
X97.9Y-77.73
X97.9Y-80.27
X97.9Y-82.81
X97.9Y-85.35
X97.9Y-87.89
X97.9Y-90.43
X97.9Y-92.97
X97.9Y-95.51
X97.9Y-98.05
X97.9Y-100.59
X97.9Y-103.13
X97.9Y-105.67
X97.9Y-108.21
X97.9Y-110.75
X97.9Y-113.29
X97.9Y-115.83
X97.9Y-118.37
X97.9Y-120.91
X100.44Y-67.57
X100.44Y-70.11
X100.44Y-72.65
X100.44Y-75.19
X100.44Y-77.73
X100.44Y-80.27
X100.44Y-82.81
X100.44Y-85.35
X100.44Y-87.89
X100.44Y-90.43
X100.44Y-92.97
X100.44Y-95.51
X100.44Y-98.05
X100.44Y-100.59
X100.44Y-103.13
X100.44Y-105.67
X100.44Y-108.21
X100.44Y-110.75
X100.44Y-113.29
X100.44Y-115.83
X100.44Y-118.37
X100.44Y-120.91
T6
X64.15Y-63.015
X64.15Y-125.495
X98.94Y-63.015
X98.94Y-125.495
T4
G00X69.18Y-63.051
M15
G01X69.18Y-62.251
M16
G05
G00X69.18Y-67.351
M15
G01X69.18Y-66.251
M16
G05
G00X77.82Y-63.051
M15
G01X77.82Y-62.251
M16
G05
G00X77.82Y-67.351
M15
G01X77.82Y-66.251
M16
G05
M30
