%TF.GenerationSoftware,KiCad,Pcbnew,9.0.6-2-gc0dd847fce*%
%TF.CreationDate,2026-01-10T14:53:23+08:00*%
%TF.ProjectId,dev_board_STM32H7,6465765f-626f-4617-9264-5f53544d3332,1.0*%
%TF.SameCoordinates,Original*%
%TF.FileFunction,Copper,L2,Bot*%
%TF.FilePolarity,Positive*%
%FSLAX46Y46*%
G04 Gerber Fmt 4.6, Leading zero omitted, Abs format (unit mm)*
G04 Created by KiCad (PCBNEW 9.0.6-2-gc0dd847fce) date 2026-01-10 14:53:23*
%MOMM*%
%LPD*%
G01*
G04 APERTURE LIST*
%TA.AperFunction,ComponentPad*%
%ADD10C,4.500000*%
%TD*%
%TA.AperFunction,ComponentPad*%
%ADD11R,1.700000X1.700000*%
%TD*%
%TA.AperFunction,ComponentPad*%
%ADD12O,1.700000X1.700000*%
%TD*%
%TA.AperFunction,ComponentPad*%
%ADD13C,1.700000*%
%TD*%
%TA.AperFunction,ComponentPad*%
%ADD14O,1.000000X2.100000*%
%TD*%
%TA.AperFunction,ComponentPad*%
%ADD15O,1.000000X1.800000*%
%TD*%
%TA.AperFunction,ViaPad*%
%ADD16C,0.650000*%
%TD*%
%TA.AperFunction,ViaPad*%
%ADD17C,0.400000*%
%TD*%
%TA.AperFunction,ViaPad*%
%ADD18C,0.600000*%
%TD*%
%TA.AperFunction,Conductor*%
%ADD19C,0.550000*%
%TD*%
%TA.AperFunction,Conductor*%
%ADD20C,0.250000*%
%TD*%
%TA.AperFunction,Conductor*%
%ADD21C,0.300000*%
%TD*%
%TA.AperFunction,Conductor*%
%ADD22C,0.500000*%
%TD*%
%TA.AperFunction,Conductor*%
%ADD23C,0.200000*%
%TD*%
G04 APERTURE END LIST*
D10*
%TO.P,H2,1,1*%
%TO.N,GND*%
X64150000Y-125495000D03*
%TD*%
%TO.P,H4,1,1*%
%TO.N,GND*%
X98940000Y-63015000D03*
%TD*%
%TO.P,H3,1,1*%
%TO.N,GND*%
X98940000Y-125495000D03*
%TD*%
%TO.P,H1,1,1*%
%TO.N,GND*%
X64150000Y-63015000D03*
%TD*%
D11*
%TO.P,J2,1,Pin_1*%
%TO.N,+5V*%
X62600000Y-67570000D03*
D12*
%TO.P,J2,2,Pin_2*%
X65140000Y-67570000D03*
%TO.P,J2,3,Pin_3*%
%TO.N,+3V3*%
X62600000Y-70110000D03*
%TO.P,J2,4,Pin_4*%
X65140000Y-70110000D03*
%TO.P,J2,5,Pin_5*%
%TO.N,GND*%
X62600000Y-72650000D03*
%TO.P,J2,6,Pin_6*%
X65140000Y-72650000D03*
%TO.P,J2,7,Pin_7*%
%TO.N,/MCU_STM32H7/PD9*%
X62600000Y-75190000D03*
%TO.P,J2,8,Pin_8*%
%TO.N,/MCU_STM32H7/PD8*%
X65140000Y-75190000D03*
%TO.P,J2,9,Pin_9*%
%TO.N,/MCU_STM32H7/PSPI.MOSI*%
X62600000Y-77730000D03*
%TO.P,J2,10,Pin_10*%
%TO.N,/MCU_STM32H7/PD10*%
X65140000Y-77730000D03*
%TO.P,J2,11,Pin_11*%
%TO.N,/MCU_STM32H7/PSPI.RST*%
X62600000Y-80270000D03*
%TO.P,J2,12,Pin_12*%
%TO.N,/MCU_STM32H7/PSPI.MISO*%
X65140000Y-80270000D03*
%TO.P,J2,13,Pin_13*%
%TO.N,/MCU_STM32H7/PD15*%
X62600000Y-82810000D03*
%TO.P,J2,14,Pin_14*%
%TO.N,/MCU_STM32H7/PD14*%
X65140000Y-82810000D03*
%TO.P,J2,15,Pin_15*%
%TO.N,/MCU_STM32H7/PC7*%
X62600000Y-85350000D03*
%TO.P,J2,16,Pin_16*%
%TO.N,/MCU_STM32H7/PC6*%
X65140000Y-85350000D03*
%TO.P,J2,17,Pin_17*%
%TO.N,/MCU_STM32H7/PC9*%
X62600000Y-87890000D03*
%TO.P,J2,18,Pin_18*%
%TO.N,/MCU_STM32H7/PC8*%
X65140000Y-87890000D03*
%TO.P,J2,19,Pin_19*%
%TO.N,/MCU_STM32H7/PA9*%
X62600000Y-90430000D03*
%TO.P,J2,20,Pin_20*%
%TO.N,/MCU_STM32H7/PA8*%
X65140000Y-90430000D03*
%TO.P,J2,21,Pin_21*%
%TO.N,/USB_DN*%
X62600000Y-92970000D03*
%TO.P,J2,22,Pin_22*%
%TO.N,/MCU_STM32H7/PA10*%
X65140000Y-92970000D03*
%TO.P,J2,23,Pin_23*%
%TO.N,/MCU_STM32H7/PA15*%
X62600000Y-95510000D03*
%TO.P,J2,24,Pin_24*%
%TO.N,/USB_DP*%
X65140000Y-95510000D03*
%TO.P,J2,25,Pin_25*%
%TO.N,/MCU_STM32H7/PC11*%
X62600000Y-98050000D03*
%TO.P,J2,26,Pin_26*%
%TO.N,/MCU_STM32H7/PC10*%
X65140000Y-98050000D03*
%TO.P,J2,27,Pin_27*%
%TO.N,/MCU_STM32H7/PD0*%
X62600000Y-100590000D03*
%TO.P,J2,28,Pin_28*%
%TO.N,/MCU_STM32H7/PC12*%
X65140000Y-100590000D03*
%TO.P,J2,29,Pin_29*%
%TO.N,/MCU_STM32H7/PD2*%
X62600000Y-103130000D03*
%TO.P,J2,30,Pin_30*%
%TO.N,/MCU_STM32H7/PD1*%
X65140000Y-103130000D03*
%TO.P,J2,31,Pin_31*%
%TO.N,/MCU_STM32H7/PD4*%
X62600000Y-105670000D03*
%TO.P,J2,32,Pin_32*%
%TO.N,/MCU_STM32H7/PD3*%
X65140000Y-105670000D03*
%TO.P,J2,33,Pin_33*%
%TO.N,/MCU_STM32H7/PD6*%
X62600000Y-108210000D03*
%TO.P,J2,34,Pin_34*%
%TO.N,/MCU_STM32H7/PD5*%
X65140000Y-108210000D03*
%TO.P,J2,35,Pin_35*%
%TO.N,/MCU_STM32H7/PB3*%
X62600000Y-110750000D03*
%TO.P,J2,36,Pin_36*%
%TO.N,/MCU_STM32H7/PD7*%
X65140000Y-110750000D03*
%TO.P,J2,37,Pin_37*%
%TO.N,/MCU_STM32H7/PB5*%
X62600000Y-113290000D03*
%TO.P,J2,38,Pin_38*%
%TO.N,/MCU_STM32H7/PB4*%
X65140000Y-113290000D03*
%TO.P,J2,39,Pin_39*%
%TO.N,/MCU_STM32H7/PB7*%
X62600000Y-115830000D03*
%TO.P,J2,40,Pin_40*%
%TO.N,/MCU_STM32H7/PSPI.nCS*%
X65140000Y-115830000D03*
%TO.P,J2,41,Pin_41*%
%TO.N,/MCU_STM32H7/PB9*%
X62600000Y-118370000D03*
%TO.P,J2,42,Pin_42*%
%TO.N,/MCU_STM32H7/PB8*%
X65140000Y-118370000D03*
%TO.P,J2,43,Pin_43*%
%TO.N,/MCU_STM32H7/PE1*%
X62600000Y-120910000D03*
%TO.P,J2,44,Pin_44*%
%TO.N,/MCU_STM32H7/PE0*%
X65140000Y-120910000D03*
%TD*%
D11*
%TO.P,J3,1,Pin_1*%
%TO.N,+3V3*%
X97900000Y-67570000D03*
D12*
%TO.P,J3,2,Pin_2*%
X100440000Y-67570000D03*
%TO.P,J3,3,Pin_3*%
%TO.N,GND*%
X97900000Y-70110000D03*
%TO.P,J3,4,Pin_4*%
X100440000Y-70110000D03*
%TO.P,J3,5,Pin_5*%
%TO.N,VDDA*%
X97900000Y-72650000D03*
%TO.P,J3,6,Pin_6*%
%TO.N,/MCU_STM32H7/VREF+*%
X100440000Y-72650000D03*
%TO.P,J3,7,Pin_7*%
%TO.N,/TFT_SPI.MOSI*%
X97900000Y-75190000D03*
%TO.P,J3,8,Pin_8*%
%TO.N,/TFT_SPI.MISO*%
X100440000Y-75190000D03*
%TO.P,J3,9,Pin_9*%
%TO.N,/TFT_SPI.SCL*%
X97900000Y-77730000D03*
%TO.P,J3,10,Pin_10*%
%TO.N,/TFT_SPI.CS*%
X100440000Y-77730000D03*
%TO.P,J3,11,Pin_11*%
%TO.N,/MCU_STM32H7/PB11*%
X97900000Y-80270000D03*
%TO.P,J3,12,Pin_12*%
%TO.N,/MCU_STM32H7/PB10*%
X100440000Y-80270000D03*
%TO.P,J3,13,Pin_13*%
%TO.N,/MCU_STM32H7/PE15*%
X97900000Y-82810000D03*
%TO.P,J3,14,Pin_14*%
%TO.N,/MCU_STM32H7/PE14*%
X100440000Y-82810000D03*
%TO.P,J3,15,Pin_15*%
%TO.N,/MCU_STM32H7/PE13*%
X97900000Y-85350000D03*
%TO.P,J3,16,Pin_16*%
%TO.N,/MCU_STM32H7/PE12*%
X100440000Y-85350000D03*
%TO.P,J3,17,Pin_17*%
%TO.N,/MCU_STM32H7/PE11*%
X97900000Y-87890000D03*
%TO.P,J3,18,Pin_18*%
%TO.N,/MCU_STM32H7/PE10*%
X100440000Y-87890000D03*
%TO.P,J3,19,Pin_19*%
%TO.N,/MCU_STM32H7/PE9*%
X97900000Y-90430000D03*
%TO.P,J3,20,Pin_20*%
%TO.N,/MCU_STM32H7/PE8*%
X100440000Y-90430000D03*
%TO.P,J3,21,Pin_21*%
%TO.N,/MCU_STM32H7/PE7*%
X97900000Y-92970000D03*
%TO.P,J3,22,Pin_22*%
%TO.N,/MCU_STM32H7/PSPI.CLK*%
X100440000Y-92970000D03*
%TO.P,J3,23,Pin_23*%
%TO.N,/TFT_SPI.RS*%
X97900000Y-95510000D03*
%TO.P,J3,24,Pin_24*%
%TO.N,/TFT_SPI.RST*%
X100440000Y-95510000D03*
%TO.P,J3,25,Pin_25*%
%TO.N,/MCU_STM32H7/PC5*%
X97900000Y-98050000D03*
%TO.P,J3,26,Pin_26*%
%TO.N,/MCU_STM32H7/PC4*%
X100440000Y-98050000D03*
%TO.P,J3,27,Pin_27*%
%TO.N,/MCU_STM32H7/PA7*%
X97900000Y-100590000D03*
%TO.P,J3,28,Pin_28*%
%TO.N,/MCU_STM32H7/PA6*%
X100440000Y-100590000D03*
%TO.P,J3,29,Pin_29*%
%TO.N,/MCU_STM32H7/PA5*%
X97900000Y-103130000D03*
%TO.P,J3,30,Pin_30*%
%TO.N,/MCU_STM32H7/PA4*%
X100440000Y-103130000D03*
%TO.P,J3,31,Pin_31*%
%TO.N,/MCU_STM32H7/PA3*%
X97900000Y-105670000D03*
%TO.P,J3,32,Pin_32*%
%TO.N,/MCU_STM32H7/PA2*%
X100440000Y-105670000D03*
%TO.P,J3,33,Pin_33*%
%TO.N,/MCU_STM32H7/PA1*%
X97900000Y-108210000D03*
%TO.P,J3,34,Pin_34*%
%TO.N,/MCU_STM32H7/PA0*%
X100440000Y-108210000D03*
%TO.P,J3,35,Pin_35*%
%TO.N,/MCU_STM32H7/PC3*%
X97900000Y-110750000D03*
%TO.P,J3,36,Pin_36*%
%TO.N,/MCU_STM32H7/PC2*%
X100440000Y-110750000D03*
%TO.P,J3,37,Pin_37*%
%TO.N,/MCU_STM32H7/PC1*%
X97900000Y-113290000D03*
%TO.P,J3,38,Pin_38*%
%TO.N,/MCU_STM32H7/PC0*%
X100440000Y-113290000D03*
%TO.P,J3,39,Pin_39*%
%TO.N,/MCU_STM32H7/PC13*%
X97900000Y-115830000D03*
%TO.P,J3,40,Pin_40*%
%TO.N,/MCU_STM32H7/PE6*%
X100440000Y-115830000D03*
%TO.P,J3,41,Pin_41*%
%TO.N,/MCU_STM32H7/PE5*%
X97900000Y-118370000D03*
%TO.P,J3,42,Pin_42*%
%TO.N,/MCU_STM32H7/PE4*%
X100440000Y-118370000D03*
%TO.P,J3,43,Pin_43*%
%TO.N,/MCU_STM32H7/PE3*%
X97900000Y-120910000D03*
%TO.P,J3,44,Pin_44*%
%TO.N,/MCU_STM32H7/PSPI.RS*%
X100440000Y-120910000D03*
%TD*%
D11*
%TO.P,J4,1,Pin_1*%
%TO.N,/MCU_STM32H7/MCU_BOOT0*%
X81920000Y-61850000D03*
D13*
%TO.P,J4,2,Pin_2*%
%TO.N,+3V3*%
X84460000Y-61850000D03*
%TO.P,J4,3,Pin_3*%
%TO.N,GND*%
X87000000Y-61850000D03*
%TO.P,J4,4,Pin_4*%
%TO.N,/SWDIO*%
X89540000Y-61850000D03*
%TO.P,J4,5,Pin_5*%
%TO.N,/SWDCLK*%
X92080000Y-61850000D03*
%TD*%
D14*
%TO.P,J1,S1,SHIELD*%
%TO.N,GND*%
X77820000Y-66801000D03*
D15*
X77820000Y-62651000D03*
D14*
X69180000Y-66801000D03*
D15*
X69180000Y-62651000D03*
%TD*%
D11*
%TO.P,J6,1,Pin_1*%
%TO.N,+3V3*%
X72618556Y-70343082D03*
D13*
%TO.P,J6,2,Pin_2*%
%TO.N,GND*%
X75158556Y-70343082D03*
%TO.P,J6,3,Pin_3*%
%TO.N,/TFT_SPI.MOSI*%
X77698556Y-70343082D03*
%TO.P,J6,4,Pin_4*%
%TO.N,/TFT_SPI.SCL*%
X80238556Y-70343082D03*
%TO.P,J6,5,Pin_5*%
%TO.N,/TFT_SPI.CS*%
X82778556Y-70343082D03*
%TO.P,J6,6,Pin_6*%
%TO.N,/TFT_SPI.MISO*%
X85318556Y-70343082D03*
%TO.P,J6,7,Pin_7*%
%TO.N,/TFT_SPI.RS*%
X87858556Y-70343082D03*
%TO.P,J6,8,Pin_8*%
%TO.N,/TFT_SPI.RST*%
X90398556Y-70343082D03*
%TD*%
D16*
%TO.N,+5V*%
X75900000Y-68575000D03*
X69000000Y-69129346D03*
D17*
%TO.N,GND*%
X74700000Y-96075000D03*
X91800000Y-112050000D03*
X78000000Y-97175000D03*
X75200000Y-96075000D03*
X90700000Y-108770000D03*
X75700000Y-111275000D03*
X89300000Y-112150000D03*
X87200000Y-74850000D03*
X78100000Y-99675000D03*
X86400000Y-105875000D03*
X85000000Y-99050000D03*
X86500000Y-95950000D03*
X68000000Y-84675000D03*
X68000000Y-82175000D03*
X76000000Y-95075000D03*
X93350000Y-95530000D03*
X83800000Y-109575000D03*
X68000000Y-83375000D03*
X84620000Y-101180000D03*
X93300000Y-84250000D03*
X79400000Y-97975000D03*
X86500000Y-99050000D03*
X78800000Y-100075000D03*
X89900000Y-105150000D03*
X79700000Y-95075000D03*
X92900000Y-105975000D03*
X79311090Y-95463910D03*
X87500000Y-96550000D03*
X75900000Y-112450000D03*
X72800000Y-94550000D03*
X81700000Y-112275000D03*
X83100000Y-77050000D03*
X71500000Y-87275000D03*
X78900000Y-95875000D03*
X81400000Y-77050000D03*
X78700000Y-105875000D03*
X95400000Y-81250000D03*
X71300000Y-71575000D03*
X93500000Y-82750000D03*
X95200000Y-83150000D03*
X88480000Y-111070000D03*
X85900000Y-91350000D03*
X85700000Y-100175000D03*
X79300000Y-112175000D03*
X68000000Y-85975000D03*
X68200000Y-95170000D03*
X79700000Y-99075000D03*
X78900000Y-113175000D03*
X77700000Y-90375000D03*
X87200000Y-72450000D03*
X84300000Y-111775000D03*
X79700000Y-96475000D03*
X76600000Y-96175000D03*
X83800000Y-108875000D03*
X82300000Y-77050000D03*
X77900000Y-108475000D03*
X68000000Y-80975000D03*
X91800000Y-109450000D03*
X88490000Y-109690000D03*
X85100000Y-111775000D03*
X92910000Y-102675000D03*
X69700000Y-72575000D03*
X77800000Y-99175000D03*
X76700000Y-81975000D03*
X80000000Y-100075000D03*
X67200000Y-77075000D03*
D18*
X95200000Y-120775000D03*
D17*
X80400000Y-77850000D03*
X93500000Y-110675000D03*
X67500000Y-78375000D03*
X82773234Y-124881499D03*
X79400000Y-100075000D03*
X74700000Y-95075000D03*
X80400000Y-77050000D03*
X75200000Y-97075000D03*
X77800000Y-100175000D03*
X79600000Y-89175000D03*
X84300000Y-94775000D03*
X82600000Y-103250000D03*
X78000000Y-95875000D03*
X87600000Y-97650000D03*
X81400000Y-77850000D03*
X83600000Y-99650000D03*
X67280000Y-69480000D03*
X83100000Y-77850000D03*
X88700000Y-96550000D03*
X85200000Y-83050000D03*
X79200000Y-88575000D03*
X87200000Y-73250000D03*
X85100000Y-94075000D03*
X93500000Y-108275000D03*
X73800000Y-107450000D03*
X85100000Y-109075000D03*
X67900000Y-113950000D03*
X74200000Y-110975000D03*
X71400000Y-86075000D03*
X88800000Y-78050000D03*
X83800000Y-111175000D03*
X78100000Y-98575000D03*
X74700000Y-97075000D03*
X76600000Y-97175000D03*
X89200000Y-105175000D03*
X91800000Y-107750000D03*
X82100000Y-103750000D03*
X88480403Y-110370000D03*
X91200000Y-112050000D03*
X85100000Y-95475000D03*
X77700000Y-98075000D03*
X77200000Y-100175000D03*
X76800000Y-83575000D03*
X74200000Y-110175000D03*
X93660000Y-98710000D03*
X79200000Y-99575000D03*
X91800000Y-108650000D03*
X85400000Y-109675000D03*
X86300000Y-94450000D03*
X79676837Y-95874680D03*
X91900000Y-105175000D03*
X75200000Y-96575000D03*
X76600000Y-95675000D03*
D18*
X95300000Y-121975000D03*
D17*
X76423234Y-124881499D03*
X83000000Y-94850000D03*
X80047000Y-106124045D03*
X86400000Y-95150000D03*
X67250000Y-68900000D03*
X68240000Y-93890000D03*
X93500000Y-109475000D03*
X66700000Y-75775000D03*
X93500000Y-106975000D03*
X89500000Y-108175000D03*
X83800000Y-108075000D03*
X91900000Y-111350000D03*
X84080000Y-96170000D03*
X67900000Y-79575000D03*
X74200000Y-95575000D03*
X87200000Y-74050000D03*
X89900000Y-112150000D03*
X82500000Y-98350000D03*
X74200000Y-96075000D03*
X78100000Y-112675000D03*
X77300000Y-99175000D03*
X91900000Y-105975000D03*
X75800000Y-81275000D03*
X92120000Y-102645000D03*
X71300000Y-72875000D03*
X88700000Y-112150000D03*
X78000000Y-96475000D03*
X76600000Y-96675000D03*
X74200000Y-97075000D03*
X66590000Y-69270000D03*
X79800000Y-98475000D03*
X82200000Y-84950000D03*
X82300000Y-77850000D03*
X69774999Y-71475000D03*
X78200000Y-90975000D03*
X73400000Y-110975000D03*
X77100000Y-98275000D03*
X83800000Y-107275000D03*
X83800000Y-110375000D03*
X90610000Y-108220000D03*
X77200000Y-95075000D03*
X80800000Y-84975000D03*
X71600000Y-72175000D03*
X74200000Y-95075000D03*
X79700000Y-97175000D03*
X67900000Y-87275000D03*
X78000000Y-95075000D03*
X78600000Y-108450000D03*
X76600000Y-95075000D03*
X78500000Y-95475000D03*
X75200000Y-95075000D03*
X66740000Y-68490000D03*
X91514662Y-101150338D03*
X74900000Y-107450000D03*
X90600000Y-112150000D03*
X76700000Y-80675000D03*
X75800000Y-82775000D03*
X78900000Y-98175000D03*
X90900000Y-105175000D03*
X86900000Y-93275000D03*
X92900000Y-111275000D03*
X86400000Y-105275000D03*
%TO.N,/MCU_STM32H7/VREF+*%
X85296681Y-90053319D03*
%TO.N,/MCU_STM32H7/VBAT*%
X81999000Y-106191462D03*
X84996622Y-104531791D03*
%TO.N,/MCU_STM32H7/PA1*%
X91400000Y-116050000D03*
X89709932Y-96552536D03*
%TO.N,/MCU_STM32H7/PSPI.MOSI*%
X76505000Y-111275000D03*
X78600000Y-88978139D03*
%TO.N,/MCU_STM32H7/PSPI.MISO*%
X73965000Y-119650000D03*
X67100000Y-80270000D03*
%TO.N,/MCU_STM32H7/PSPI.RST*%
X78100000Y-89850000D03*
X74500000Y-112350000D03*
%TO.N,/MCU_STM32H7/PSPI.nCS*%
X72695000Y-119650000D03*
%TO.N,/MCU_STM32H7/PA6*%
X87067460Y-95280077D03*
%TO.N,/MCU_STM32H7/PC13*%
X84000000Y-102150000D03*
%TO.N,/MCU_STM32H7/PSPI.CLK*%
X86600000Y-91550000D03*
X75435000Y-111875000D03*
%TO.N,/MCU_STM32H7/PA3*%
X91751209Y-97038000D03*
%TO.N,/MCU_STM32H7/PA7*%
X87100970Y-94550919D03*
D16*
%TO.N,+3V3*%
X81386672Y-79698667D03*
X68900000Y-74775000D03*
X68900000Y-94550000D03*
X81800000Y-83350000D03*
D17*
X94100000Y-95790000D03*
D16*
X92800000Y-93150000D03*
X94200000Y-76150000D03*
D17*
X84478768Y-99828768D03*
D16*
X72200000Y-111904442D03*
X79350000Y-106567507D03*
D17*
X85299874Y-100646471D03*
X93576000Y-99650000D03*
D18*
X87035000Y-118340000D03*
D17*
X93700000Y-102728000D03*
%TO.N,/MCU_STM32H7/PC3*%
X96100000Y-108925000D03*
%TO.N,/MCU_STM32H7/PE4*%
X84154689Y-106250000D03*
%TO.N,/MCU_STM32H7/PA5*%
X87200000Y-95890000D03*
X92501000Y-97038000D03*
%TO.N,/MCU_STM32H7/PE6*%
X83300000Y-102850000D03*
%TO.N,/MCU_STM32H7/PC1*%
X96130000Y-111520000D03*
%TO.N,/MCU_STM32H7/PC5*%
X86832095Y-94014533D03*
X94722000Y-102750000D03*
X93966589Y-105659052D03*
X94580373Y-100325000D03*
%TO.N,/MCU_STM32H7/PE5*%
X84679689Y-105849052D03*
%TO.N,/SWDIO*%
X84445329Y-89178869D03*
%TO.N,/MCU_STM32H7/MCU_BOOT0*%
X81920000Y-99025346D03*
%TO.N,/SWDCLK*%
X84858225Y-89614208D03*
%TO.N,/USB_DN*%
X71900000Y-91125000D03*
X70825000Y-72150000D03*
%TO.N,/USB_DP*%
X70175000Y-72150000D03*
X71900000Y-91775000D03*
%TO.N,/TFT_SPI.MOSI*%
X77698270Y-85212624D03*
%TO.N,/TFT_SPI.CS*%
X79400000Y-84150000D03*
%TO.N,/TFT_SPI.SCL*%
X78800000Y-84350000D03*
%TO.N,/TFT_SPI.RS*%
X86000000Y-92050000D03*
%TO.N,/TFT_SPI.MISO*%
X78223270Y-84750000D03*
%TO.N,/TFT_SPI.RST*%
X85300000Y-91525000D03*
%TO.N,/MCU_STM32H7/PSPI.RS*%
X75200000Y-118975000D03*
X82751000Y-118990000D03*
%TO.N,/MCU_STM32H7/MCU_RST*%
X85700000Y-123750000D03*
X85700000Y-121750000D03*
%TD*%
D19*
%TO.N,+5V*%
X69200000Y-69129346D02*
X69754346Y-68575000D01*
X69754346Y-68575000D02*
X75900000Y-68575000D01*
X69000000Y-69129346D02*
X69200000Y-69129346D01*
D20*
%TO.N,/MCU_STM32H7/VREF+*%
X92531000Y-82819000D02*
X92531000Y-75319000D01*
X92531000Y-75319000D02*
X93836000Y-74014000D01*
X93836000Y-74014000D02*
X99076000Y-74014000D01*
X99076000Y-74014000D02*
X100440000Y-72650000D01*
X85296681Y-90053319D02*
X92531000Y-82819000D01*
%TO.N,/MCU_STM32H7/VBAT*%
X84996622Y-104553378D02*
X83375000Y-106175000D01*
X84996622Y-104531791D02*
X84996622Y-104553378D01*
X82015462Y-106175000D02*
X81999000Y-106191462D01*
X83375000Y-106175000D02*
X82015462Y-106175000D01*
%TO.N,/MCU_STM32H7/PA1*%
X89709932Y-96552536D02*
X89709932Y-96559932D01*
X95500000Y-108665562D02*
X95955562Y-108210000D01*
X95955562Y-108210000D02*
X97900000Y-108210000D01*
X93439570Y-102203000D02*
X95553000Y-102203000D01*
X95949000Y-102599000D02*
X95949000Y-106259000D01*
X95949000Y-106259000D02*
X97900000Y-108210000D01*
X89709932Y-96559932D02*
X91249000Y-98099000D01*
X95500000Y-115550000D02*
X95500000Y-108665562D01*
X95553000Y-102203000D02*
X95949000Y-102599000D01*
X91249000Y-100012430D02*
X93439570Y-102203000D01*
X95000000Y-116050000D02*
X95500000Y-115550000D01*
X91400000Y-116050000D02*
X95000000Y-116050000D01*
X91249000Y-98099000D02*
X91249000Y-100012430D01*
%TO.N,/MCU_STM32H7/PSPI.MOSI*%
X78600000Y-89000000D02*
X78600000Y-88978139D01*
X76505000Y-111275000D02*
X78537190Y-111275000D01*
X81023000Y-91423000D02*
X78600000Y-89000000D01*
X81023000Y-108789190D02*
X81023000Y-91423000D01*
X78537190Y-111275000D02*
X81023000Y-108789190D01*
%TO.N,/MCU_STM32H7/PSPI.MISO*%
X73965000Y-119650000D02*
X73965000Y-118215000D01*
X67600000Y-115250000D02*
X67100000Y-114750000D01*
X67100000Y-114750000D02*
X67100000Y-80270000D01*
X73965000Y-118215000D02*
X71000000Y-115250000D01*
X71000000Y-115250000D02*
X67600000Y-115250000D01*
%TO.N,/MCU_STM32H7/PSPI.RST*%
X78499380Y-110675000D02*
X80572000Y-108602380D01*
X80572000Y-108602380D02*
X80572000Y-92322000D01*
X74500000Y-112350000D02*
X74500000Y-111575000D01*
X80572000Y-92322000D02*
X78100000Y-89850000D01*
X75400000Y-110675000D02*
X78499380Y-110675000D01*
X74500000Y-111575000D02*
X75400000Y-110675000D01*
%TO.N,/MCU_STM32H7/PSPI.nCS*%
X70942190Y-115830000D02*
X65140000Y-115830000D01*
X72700000Y-117587810D02*
X70942190Y-115830000D01*
X72700000Y-119645000D02*
X72700000Y-117587810D01*
X72695000Y-119650000D02*
X72700000Y-119645000D01*
%TO.N,/MCU_STM32H7/PA6*%
X93813190Y-101301000D02*
X96651000Y-101301000D01*
X93027000Y-97255877D02*
X92600000Y-97682877D01*
X99180000Y-101850000D02*
X100440000Y-100590000D01*
X96651000Y-101301000D02*
X97200000Y-101850000D01*
X91570877Y-95364000D02*
X93027000Y-96820123D01*
X92600000Y-100087810D02*
X93813190Y-101301000D01*
X97200000Y-101850000D02*
X99180000Y-101850000D01*
X93027000Y-96820123D02*
X93027000Y-97255877D01*
X92600000Y-97682877D02*
X92600000Y-100087810D01*
X87151383Y-95364000D02*
X91570877Y-95364000D01*
X87067460Y-95280077D02*
X87151383Y-95364000D01*
%TO.N,/MCU_STM32H7/PC13*%
X87451000Y-103811000D02*
X85790000Y-102150000D01*
X87451000Y-115401000D02*
X87451000Y-103811000D01*
X97154000Y-116576000D02*
X88626000Y-116576000D01*
X85790000Y-102150000D02*
X84000000Y-102150000D01*
X88626000Y-116576000D02*
X87451000Y-115401000D01*
X97900000Y-115830000D02*
X97154000Y-116576000D01*
%TO.N,/MCU_STM32H7/PSPI.CLK*%
X86600000Y-91550000D02*
X88900000Y-93850000D01*
X99260000Y-94150000D02*
X100440000Y-92970000D01*
X94500000Y-94150000D02*
X99260000Y-94150000D01*
X94200000Y-93850000D02*
X94500000Y-94150000D01*
X78575000Y-111875000D02*
X81474000Y-108976000D01*
X88900000Y-93850000D02*
X94200000Y-93850000D01*
X86174000Y-93832123D02*
X86174000Y-92619877D01*
X81474000Y-108976000D02*
X81474000Y-100213810D01*
X85774000Y-94232123D02*
X86174000Y-93832123D01*
X85774000Y-95913810D02*
X85774000Y-94232123D01*
X86174000Y-92619877D02*
X86600000Y-92193877D01*
X81474000Y-100213810D02*
X85774000Y-95913810D01*
X86600000Y-92193877D02*
X86600000Y-91550000D01*
X75435000Y-111875000D02*
X78575000Y-111875000D01*
%TO.N,/MCU_STM32H7/PA3*%
X93626380Y-101752000D02*
X95902000Y-101752000D01*
X95902000Y-101752000D02*
X96400000Y-102250000D01*
X91700000Y-97089209D02*
X91700000Y-99825620D01*
X96400000Y-104170000D02*
X97900000Y-105670000D01*
X91751209Y-97038000D02*
X91700000Y-97089209D01*
X91700000Y-99825620D02*
X93626380Y-101752000D01*
X96400000Y-102250000D02*
X96400000Y-104170000D01*
%TO.N,/MCU_STM32H7/PA7*%
X91682687Y-94839000D02*
X93478000Y-96634313D01*
X97560000Y-100590000D02*
X97900000Y-100590000D01*
X87200000Y-94649949D02*
X87971949Y-94649949D01*
X93478000Y-96634313D02*
X93478000Y-97442687D01*
X87100970Y-94550919D02*
X87200000Y-94649949D01*
X97300000Y-100850000D02*
X97560000Y-100590000D01*
X87971949Y-94649949D02*
X88161000Y-94839000D01*
X94000000Y-100850000D02*
X97300000Y-100850000D01*
X93051000Y-99901000D02*
X94000000Y-100850000D01*
X93051000Y-97869687D02*
X93051000Y-99901000D01*
X88161000Y-94839000D02*
X91682687Y-94839000D01*
X93478000Y-97442687D02*
X93051000Y-97869687D01*
D21*
%TO.N,+3V3*%
X93151000Y-103277000D02*
X87930403Y-103277000D01*
D22*
X94200000Y-76150000D02*
X94200000Y-91750000D01*
X72550474Y-70275000D02*
X65305000Y-70275000D01*
X72618556Y-70343082D02*
X72550474Y-70275000D01*
X79332493Y-106550000D02*
X72700000Y-106550000D01*
D20*
X85296471Y-100646471D02*
X84478768Y-99828768D01*
D22*
X68900000Y-74775000D02*
X68900000Y-70375000D01*
D20*
X85299874Y-100646471D02*
X85296471Y-100646471D01*
D22*
X79350000Y-106567507D02*
X79332493Y-106550000D01*
X72200000Y-111750000D02*
X72700000Y-111250000D01*
X72700000Y-111250000D02*
X72700000Y-106550000D01*
D21*
X93700000Y-102728000D02*
X93151000Y-103277000D01*
D22*
X68900000Y-70375000D02*
X68800000Y-70275000D01*
D21*
X93576000Y-99650000D02*
X93900000Y-99650000D01*
D22*
X72200000Y-114875000D02*
X72200000Y-111904442D01*
D21*
X93900000Y-99650000D02*
X94870000Y-98680000D01*
X94120000Y-95790000D02*
X94100000Y-95790000D01*
X94870000Y-96540000D02*
X94120000Y-95790000D01*
D22*
X75665000Y-118340000D02*
X72200000Y-114875000D01*
D21*
X94870000Y-98680000D02*
X94870000Y-96540000D01*
D22*
X87035000Y-118340000D02*
X75665000Y-118340000D01*
X72700000Y-106550000D02*
X70000000Y-106550000D01*
X68900000Y-74775000D02*
X68900000Y-94550000D01*
X94200000Y-91750000D02*
X92800000Y-93150000D01*
X81800000Y-83350000D02*
X81800000Y-80111995D01*
X81800000Y-80111995D02*
X81386672Y-79698667D01*
D21*
X87930403Y-103277000D02*
X85299874Y-100646471D01*
D22*
X70000000Y-106550000D02*
X68900000Y-105450000D01*
X68900000Y-105450000D02*
X68900000Y-94550000D01*
X65305000Y-70275000D02*
X65140000Y-70110000D01*
X72200000Y-111904442D02*
X72200000Y-111750000D01*
D20*
%TO.N,/MCU_STM32H7/PC3*%
X96100000Y-108950000D02*
X97900000Y-110750000D01*
X96100000Y-108925000D02*
X96100000Y-108950000D01*
%TO.N,/MCU_STM32H7/PE4*%
X99076000Y-119734000D02*
X100440000Y-118370000D01*
X97412884Y-119734000D02*
X99076000Y-119734000D01*
X89574380Y-119750000D02*
X97396884Y-119750000D01*
X84154689Y-106250000D02*
X84279741Y-106375052D01*
X84279741Y-106375052D02*
X85145052Y-106375052D01*
X86098000Y-107328000D02*
X86098000Y-116273620D01*
X97396884Y-119750000D02*
X97412884Y-119734000D01*
X86098000Y-116273620D02*
X89574380Y-119750000D01*
X85145052Y-106375052D02*
X86098000Y-107328000D01*
%TO.N,/MCU_STM32H7/PA5*%
X87200000Y-95890000D02*
X91353414Y-95890000D01*
X92501000Y-97037586D02*
X92501000Y-97038000D01*
X91353414Y-95890000D02*
X92501000Y-97037586D01*
%TO.N,/MCU_STM32H7/PE6*%
X99220000Y-117050000D02*
X100440000Y-115830000D01*
X87000000Y-115900000D02*
X88150000Y-117050000D01*
X83300000Y-102850000D02*
X85852190Y-102850000D01*
X85852190Y-102850000D02*
X87000000Y-103997810D01*
X88150000Y-117050000D02*
X99220000Y-117050000D01*
X87000000Y-103997810D02*
X87000000Y-115900000D01*
%TO.N,/MCU_STM32H7/PC1*%
X96130000Y-111520000D02*
X97900000Y-113290000D01*
%TO.N,/MCU_STM32H7/PC5*%
X94600000Y-95150000D02*
X95900000Y-95150000D01*
X96500000Y-95750000D02*
X96500000Y-97550000D01*
X94300000Y-103172000D02*
X94300000Y-105325641D01*
X93825000Y-94375000D02*
X94600000Y-95150000D01*
X96550000Y-98050000D02*
X97000000Y-98050000D01*
X94722000Y-102750000D02*
X94300000Y-103172000D01*
X88525000Y-94375000D02*
X93825000Y-94375000D01*
X94580373Y-100019627D02*
X96550000Y-98050000D01*
X97000000Y-98050000D02*
X97900000Y-98050000D01*
X95900000Y-95150000D02*
X96500000Y-95750000D01*
X86832095Y-94014533D02*
X88164533Y-94014533D01*
X94300000Y-105325641D02*
X93966589Y-105659052D01*
X94580373Y-100325000D02*
X94580373Y-100019627D01*
X88164533Y-94014533D02*
X88525000Y-94375000D01*
X96500000Y-97550000D02*
X97000000Y-98050000D01*
%TO.N,/MCU_STM32H7/PE5*%
X86549000Y-106939000D02*
X85459052Y-105849052D01*
X97900000Y-118370000D02*
X88832190Y-118370000D01*
X86549000Y-116086810D02*
X86549000Y-106939000D01*
X85459052Y-105849052D02*
X84679689Y-105849052D01*
X88832190Y-118370000D02*
X86549000Y-116086810D01*
%TO.N,/SWDIO*%
X91574556Y-82049642D02*
X91574556Y-63884556D01*
X91574556Y-63884556D02*
X89540000Y-61850000D01*
X84445329Y-89178869D02*
X91574556Y-82049642D01*
%TO.N,/MCU_STM32H7/MCU_BOOT0*%
X86494556Y-82755444D02*
X86494556Y-67769556D01*
X81920000Y-65795000D02*
X81920000Y-61850000D01*
X86494556Y-67769556D02*
X86000000Y-67275000D01*
X81920000Y-87330000D02*
X86494556Y-82755444D01*
X86000000Y-67275000D02*
X83400000Y-67275000D01*
X83400000Y-67275000D02*
X81920000Y-65795000D01*
X81920000Y-99025346D02*
X81920000Y-87330000D01*
%TO.N,/SWDCLK*%
X84858225Y-89614208D02*
X92080000Y-82392433D01*
X92080000Y-82392433D02*
X92080000Y-61850000D01*
D23*
%TO.N,/USB_DN*%
X70725001Y-90382219D02*
X71567781Y-91224999D01*
X71567781Y-91224999D02*
X71800001Y-91224999D01*
X70725001Y-72249999D02*
X70725001Y-90382219D01*
X70825000Y-72150000D02*
X70725001Y-72249999D01*
X71800001Y-91224999D02*
X71900000Y-91125000D01*
%TO.N,/USB_DP*%
X71381387Y-91675001D02*
X71800001Y-91675001D01*
X70274999Y-90568613D02*
X71381387Y-91675001D01*
X70175000Y-72150000D02*
X70274999Y-72249999D01*
X71800001Y-91675001D02*
X71900000Y-91775000D01*
X70274999Y-72249999D02*
X70274999Y-90568613D01*
D20*
%TO.N,/TFT_SPI.MOSI*%
X77698270Y-85212624D02*
X77698270Y-70838688D01*
%TO.N,/TFT_SPI.CS*%
X81911312Y-70838688D02*
X82778270Y-70838688D01*
X79400000Y-84150000D02*
X79400000Y-73350000D01*
X79400000Y-73350000D02*
X81911312Y-70838688D01*
%TO.N,/TFT_SPI.SCL*%
X78800000Y-84350000D02*
X78800000Y-72276958D01*
X78800000Y-72276958D02*
X80238270Y-70838688D01*
%TO.N,/TFT_SPI.RS*%
X82900000Y-91050000D02*
X82900000Y-87150000D01*
X83900000Y-92050000D02*
X82900000Y-91050000D01*
X82900000Y-87150000D02*
X87858556Y-82191444D01*
X86000000Y-92050000D02*
X83900000Y-92050000D01*
X87858556Y-82191444D02*
X87858556Y-70343082D01*
%TO.N,/TFT_SPI.MISO*%
X78223270Y-71976804D02*
X79000000Y-71200074D01*
X79000000Y-69750000D02*
X79900000Y-68850000D01*
X79000000Y-71200074D02*
X79000000Y-69750000D01*
X78223270Y-84750000D02*
X78223270Y-71976804D01*
X84200000Y-68850000D02*
X85318270Y-69968270D01*
X79900000Y-68850000D02*
X84200000Y-68850000D01*
%TO.N,/TFT_SPI.RST*%
X83400000Y-90912190D02*
X83400000Y-87287810D01*
X83400000Y-87287810D02*
X90398556Y-80289254D01*
X90398556Y-80289254D02*
X90398556Y-70343082D01*
X85300000Y-91525000D02*
X84012810Y-91525000D01*
X84012810Y-91525000D02*
X83400000Y-90912190D01*
%TO.N,/MCU_STM32H7/PSPI.RS*%
X82736000Y-118975000D02*
X75200000Y-118975000D01*
X82751000Y-118990000D02*
X82736000Y-118975000D01*
%TO.N,/MCU_STM32H7/MCU_RST*%
X85700000Y-123750000D02*
X85700000Y-121750000D01*
%TD*%
%TA.AperFunction,Conductor*%
%TO.N,GND*%
G36*
X98083553Y-60554407D02*
G01*
X98119517Y-60603907D01*
X98119517Y-60665093D01*
X98083553Y-60714593D01*
X98058060Y-60727944D01*
X98000950Y-60747927D01*
X97753036Y-60867316D01*
X97753024Y-60867323D01*
X97520021Y-61013728D01*
X97393321Y-61114766D01*
X98070895Y-61792340D01*
X97962816Y-61870864D01*
X97795864Y-62037816D01*
X97717340Y-62145895D01*
X97039766Y-61468321D01*
X96938728Y-61595021D01*
X96792323Y-61828024D01*
X96792316Y-61828036D01*
X96672927Y-62075950D01*
X96582043Y-62335680D01*
X96520810Y-62603963D01*
X96490001Y-62877402D01*
X96490000Y-62877421D01*
X96490000Y-63152579D01*
X96490001Y-63152597D01*
X96520810Y-63426036D01*
X96582043Y-63694319D01*
X96672927Y-63954049D01*
X96792316Y-64201963D01*
X96792323Y-64201975D01*
X96938730Y-64434981D01*
X96938732Y-64434984D01*
X97039766Y-64561677D01*
X97717339Y-63884103D01*
X97795864Y-63992184D01*
X97962816Y-64159136D01*
X98070893Y-64237659D01*
X97393321Y-64915232D01*
X97520015Y-65016267D01*
X97520018Y-65016269D01*
X97753024Y-65162676D01*
X97753036Y-65162683D01*
X98000951Y-65282072D01*
X98000950Y-65282072D01*
X98260680Y-65372956D01*
X98528963Y-65434189D01*
X98802402Y-65464998D01*
X98802421Y-65465000D01*
X99077579Y-65465000D01*
X99077597Y-65464998D01*
X99351036Y-65434189D01*
X99619319Y-65372956D01*
X99879049Y-65282072D01*
X100126963Y-65162683D01*
X100126975Y-65162676D01*
X100359978Y-65016271D01*
X100486677Y-64915232D01*
X99809104Y-64237659D01*
X99917184Y-64159136D01*
X100084136Y-63992184D01*
X100162659Y-63884104D01*
X100840232Y-64561677D01*
X100941271Y-64434978D01*
X101087676Y-64201975D01*
X101087683Y-64201963D01*
X101207070Y-63954054D01*
X101222055Y-63911229D01*
X101259121Y-63862548D01*
X101317721Y-63844951D01*
X101375473Y-63865159D01*
X101410317Y-63915453D01*
X101414500Y-63943926D01*
X101414500Y-66819861D01*
X101395593Y-66878052D01*
X101346093Y-66914016D01*
X101284907Y-66914016D01*
X101245498Y-66889866D01*
X101109655Y-66754023D01*
X101109651Y-66754020D01*
X100937597Y-66639058D01*
X100746418Y-66559869D01*
X100543467Y-66519500D01*
X100543465Y-66519500D01*
X100336535Y-66519500D01*
X100336532Y-66519500D01*
X100133581Y-66559869D01*
X99942402Y-66639058D01*
X99770348Y-66754020D01*
X99624020Y-66900348D01*
X99509058Y-67072402D01*
X99429869Y-67263581D01*
X99389500Y-67466532D01*
X99389500Y-67673467D01*
X99429869Y-67876418D01*
X99509058Y-68067597D01*
X99624020Y-68239651D01*
X99624023Y-68239655D01*
X99770345Y-68385977D01*
X99942402Y-68500941D01*
X100133580Y-68580130D01*
X100336535Y-68620500D01*
X100336536Y-68620500D01*
X100543464Y-68620500D01*
X100543465Y-68620500D01*
X100746420Y-68580130D01*
X100937598Y-68500941D01*
X101109655Y-68385977D01*
X101245498Y-68250133D01*
X101300013Y-68222358D01*
X101360445Y-68231929D01*
X101403710Y-68275194D01*
X101414500Y-68320139D01*
X101414500Y-69360568D01*
X101395593Y-69418759D01*
X101346093Y-69454723D01*
X101284907Y-69454723D01*
X101245496Y-69430572D01*
X101109329Y-69294405D01*
X100937374Y-69179508D01*
X100937360Y-69179501D01*
X100746274Y-69100350D01*
X100690000Y-69089156D01*
X100690000Y-69676988D01*
X100632993Y-69644075D01*
X100505826Y-69610000D01*
X100374174Y-69610000D01*
X100247007Y-69644075D01*
X100190000Y-69676988D01*
X100190000Y-69089156D01*
X100133725Y-69100350D01*
X99942639Y-69179501D01*
X99942625Y-69179508D01*
X99770670Y-69294405D01*
X99624405Y-69440670D01*
X99509508Y-69612625D01*
X99509501Y-69612639D01*
X99430351Y-69803723D01*
X99430349Y-69803730D01*
X99419157Y-69860000D01*
X100006988Y-69860000D01*
X99974075Y-69917007D01*
X99940000Y-70044174D01*
X99940000Y-70175826D01*
X99974075Y-70302993D01*
X100006988Y-70360000D01*
X99419157Y-70360000D01*
X99430349Y-70416269D01*
X99430351Y-70416276D01*
X99509501Y-70607360D01*
X99509508Y-70607374D01*
X99624405Y-70779329D01*
X99770670Y-70925594D01*
X99942625Y-71040491D01*
X99942639Y-71040498D01*
X100133723Y-71119648D01*
X100133730Y-71119650D01*
X100190000Y-71130842D01*
X100190000Y-70543012D01*
X100247007Y-70575925D01*
X100374174Y-70610000D01*
X100505826Y-70610000D01*
X100632993Y-70575925D01*
X100690000Y-70543012D01*
X100690000Y-71130841D01*
X100746269Y-71119650D01*
X100746276Y-71119648D01*
X100937360Y-71040498D01*
X100937374Y-71040491D01*
X101109329Y-70925594D01*
X101245496Y-70789428D01*
X101300013Y-70761651D01*
X101360445Y-70771222D01*
X101403710Y-70814487D01*
X101414500Y-70859432D01*
X101414500Y-71899861D01*
X101395593Y-71958052D01*
X101346093Y-71994016D01*
X101284907Y-71994016D01*
X101245498Y-71969866D01*
X101109655Y-71834023D01*
X101102913Y-71829518D01*
X100937597Y-71719058D01*
X100746418Y-71639869D01*
X100543467Y-71599500D01*
X100543465Y-71599500D01*
X100336535Y-71599500D01*
X100336532Y-71599500D01*
X100133581Y-71639869D01*
X99942402Y-71719058D01*
X99770348Y-71834020D01*
X99624020Y-71980348D01*
X99509058Y-72152402D01*
X99429869Y-72343581D01*
X99389500Y-72546532D01*
X99389500Y-72546535D01*
X99389500Y-72753465D01*
X99429841Y-72956276D01*
X99429870Y-72956419D01*
X99429870Y-72956421D01*
X99475840Y-73067402D01*
X99480641Y-73128398D01*
X99454380Y-73175290D01*
X98970169Y-73659503D01*
X98915652Y-73687281D01*
X98900165Y-73688500D01*
X98562985Y-73688500D01*
X98504794Y-73669593D01*
X98468830Y-73620093D01*
X98468830Y-73558907D01*
X98504794Y-73509407D01*
X98507984Y-73507184D01*
X98511949Y-73504534D01*
X98569655Y-73465977D01*
X98715977Y-73319655D01*
X98830941Y-73147598D01*
X98910130Y-72956420D01*
X98950500Y-72753465D01*
X98950500Y-72546535D01*
X98910130Y-72343580D01*
X98830941Y-72152402D01*
X98715977Y-71980345D01*
X98569655Y-71834023D01*
X98562913Y-71829518D01*
X98397597Y-71719058D01*
X98206418Y-71639869D01*
X98003467Y-71599500D01*
X98003465Y-71599500D01*
X97796535Y-71599500D01*
X97796532Y-71599500D01*
X97593581Y-71639869D01*
X97402402Y-71719058D01*
X97230348Y-71834020D01*
X97084020Y-71980348D01*
X96969058Y-72152402D01*
X96889869Y-72343581D01*
X96849500Y-72546532D01*
X96849500Y-72753467D01*
X96889869Y-72956418D01*
X96969058Y-73147597D01*
X97083805Y-73319329D01*
X97084023Y-73319655D01*
X97230345Y-73465977D01*
X97230348Y-73465979D01*
X97292016Y-73507184D01*
X97329896Y-73555234D01*
X97332298Y-73616372D01*
X97298306Y-73667246D01*
X97240902Y-73688424D01*
X97237015Y-73688500D01*
X93884932Y-73688500D01*
X93884916Y-73688499D01*
X93878853Y-73688499D01*
X93793147Y-73688499D01*
X93793144Y-73688499D01*
X93710361Y-73710681D01*
X93686834Y-73724265D01*
X93673250Y-73732108D01*
X93649721Y-73745692D01*
X93636137Y-73753535D01*
X93575534Y-73814137D01*
X93575535Y-73814138D01*
X92574504Y-74815169D01*
X92519987Y-74842946D01*
X92459555Y-74833375D01*
X92416290Y-74790110D01*
X92405500Y-74745165D01*
X92405500Y-69860000D01*
X96879157Y-69860000D01*
X97466988Y-69860000D01*
X97434075Y-69917007D01*
X97400000Y-70044174D01*
X97400000Y-70175826D01*
X97434075Y-70302993D01*
X97466988Y-70360000D01*
X96879157Y-70360000D01*
X96890349Y-70416269D01*
X96890351Y-70416276D01*
X96969501Y-70607360D01*
X96969508Y-70607374D01*
X97084405Y-70779329D01*
X97230670Y-70925594D01*
X97402625Y-71040491D01*
X97402639Y-71040498D01*
X97593723Y-71119648D01*
X97593730Y-71119650D01*
X97650000Y-71130842D01*
X97650000Y-70543012D01*
X97707007Y-70575925D01*
X97834174Y-70610000D01*
X97965826Y-70610000D01*
X98092993Y-70575925D01*
X98150000Y-70543012D01*
X98150000Y-71130841D01*
X98206269Y-71119650D01*
X98206276Y-71119648D01*
X98397360Y-71040498D01*
X98397374Y-71040491D01*
X98569329Y-70925594D01*
X98715594Y-70779329D01*
X98830491Y-70607374D01*
X98830498Y-70607360D01*
X98909648Y-70416276D01*
X98909650Y-70416269D01*
X98920843Y-70360000D01*
X98333012Y-70360000D01*
X98365925Y-70302993D01*
X98400000Y-70175826D01*
X98400000Y-70044174D01*
X98365925Y-69917007D01*
X98333012Y-69860000D01*
X98920842Y-69860000D01*
X98909650Y-69803730D01*
X98909648Y-69803723D01*
X98830498Y-69612639D01*
X98830491Y-69612625D01*
X98715594Y-69440670D01*
X98569329Y-69294405D01*
X98397374Y-69179508D01*
X98397360Y-69179501D01*
X98206274Y-69100350D01*
X98150000Y-69089156D01*
X98150000Y-69676988D01*
X98092993Y-69644075D01*
X97965826Y-69610000D01*
X97834174Y-69610000D01*
X97707007Y-69644075D01*
X97650000Y-69676988D01*
X97650000Y-69089156D01*
X97593725Y-69100350D01*
X97402639Y-69179501D01*
X97402625Y-69179508D01*
X97230670Y-69294405D01*
X97084405Y-69440670D01*
X96969508Y-69612625D01*
X96969501Y-69612639D01*
X96890351Y-69803723D01*
X96890349Y-69803730D01*
X96879157Y-69860000D01*
X92405500Y-69860000D01*
X92405500Y-66700253D01*
X96849500Y-66700253D01*
X96849500Y-68439746D01*
X96849501Y-68439758D01*
X96861132Y-68498227D01*
X96861134Y-68498233D01*
X96893507Y-68546682D01*
X96905448Y-68564552D01*
X96971769Y-68608867D01*
X97016231Y-68617711D01*
X97030241Y-68620498D01*
X97030246Y-68620498D01*
X97030252Y-68620500D01*
X97030253Y-68620500D01*
X98769747Y-68620500D01*
X98769748Y-68620500D01*
X98828231Y-68608867D01*
X98894552Y-68564552D01*
X98938867Y-68498231D01*
X98950500Y-68439748D01*
X98950500Y-66700252D01*
X98938867Y-66641769D01*
X98894552Y-66575448D01*
X98894548Y-66575445D01*
X98828233Y-66531134D01*
X98828231Y-66531133D01*
X98828228Y-66531132D01*
X98828227Y-66531132D01*
X98769758Y-66519501D01*
X98769748Y-66519500D01*
X97030252Y-66519500D01*
X97030251Y-66519500D01*
X97030241Y-66519501D01*
X96971772Y-66531132D01*
X96971766Y-66531134D01*
X96905451Y-66575445D01*
X96905445Y-66575451D01*
X96861134Y-66641766D01*
X96861132Y-66641772D01*
X96849501Y-66700241D01*
X96849500Y-66700253D01*
X92405500Y-66700253D01*
X92405500Y-62918375D01*
X92413810Y-62892795D01*
X92420089Y-62866647D01*
X92423158Y-62864025D01*
X92424407Y-62860184D01*
X92466613Y-62826911D01*
X92524813Y-62802805D01*
X92572220Y-62783169D01*
X92575464Y-62781824D01*
X92577598Y-62780941D01*
X92749655Y-62665977D01*
X92895977Y-62519655D01*
X93010941Y-62347598D01*
X93090130Y-62156420D01*
X93130500Y-61953465D01*
X93130500Y-61746535D01*
X93090130Y-61543580D01*
X93010941Y-61352402D01*
X92895977Y-61180345D01*
X92749655Y-61034023D01*
X92749651Y-61034020D01*
X92577597Y-60919058D01*
X92386418Y-60839869D01*
X92183467Y-60799500D01*
X92183465Y-60799500D01*
X91976535Y-60799500D01*
X91976532Y-60799500D01*
X91773581Y-60839869D01*
X91582402Y-60919058D01*
X91410348Y-61034020D01*
X91264020Y-61180348D01*
X91149058Y-61352402D01*
X91069869Y-61543581D01*
X91029500Y-61746532D01*
X91029500Y-61953467D01*
X91069869Y-62156418D01*
X91149058Y-62347597D01*
X91210265Y-62439200D01*
X91264023Y-62519655D01*
X91410345Y-62665977D01*
X91582402Y-62780941D01*
X91582403Y-62780941D01*
X91582404Y-62780942D01*
X91612853Y-62793554D01*
X91693386Y-62826911D01*
X91739911Y-62866647D01*
X91754500Y-62918375D01*
X91754500Y-63365165D01*
X91735593Y-63423356D01*
X91686093Y-63459320D01*
X91624907Y-63459320D01*
X91585496Y-63435169D01*
X90525619Y-62375292D01*
X90497842Y-62320775D01*
X90504159Y-62267402D01*
X90511326Y-62250099D01*
X90550130Y-62156420D01*
X90590500Y-61953465D01*
X90590500Y-61746535D01*
X90550130Y-61543580D01*
X90470941Y-61352402D01*
X90355977Y-61180345D01*
X90209655Y-61034023D01*
X90209651Y-61034020D01*
X90037597Y-60919058D01*
X89846418Y-60839869D01*
X89643467Y-60799500D01*
X89643465Y-60799500D01*
X89436535Y-60799500D01*
X89436532Y-60799500D01*
X89233581Y-60839869D01*
X89042402Y-60919058D01*
X88870348Y-61034020D01*
X88724020Y-61180348D01*
X88609058Y-61352402D01*
X88529869Y-61543581D01*
X88489500Y-61746532D01*
X88489500Y-61953467D01*
X88529869Y-62156418D01*
X88609058Y-62347597D01*
X88670265Y-62439200D01*
X88724023Y-62519655D01*
X88870345Y-62665977D01*
X89042402Y-62780941D01*
X89233580Y-62860130D01*
X89436535Y-62900500D01*
X89436536Y-62900500D01*
X89643464Y-62900500D01*
X89643465Y-62900500D01*
X89846420Y-62860130D01*
X89957402Y-62814158D01*
X90018399Y-62809358D01*
X90065292Y-62835619D01*
X91220060Y-63990386D01*
X91247837Y-64044903D01*
X91249056Y-64060390D01*
X91249056Y-69468942D01*
X91230149Y-69527133D01*
X91180649Y-69563097D01*
X91119463Y-69563097D01*
X91080055Y-69538948D01*
X91068211Y-69527105D01*
X90896153Y-69412140D01*
X90704974Y-69332951D01*
X90502023Y-69292582D01*
X90502021Y-69292582D01*
X90295091Y-69292582D01*
X90295088Y-69292582D01*
X90092137Y-69332951D01*
X89900958Y-69412140D01*
X89728904Y-69527102D01*
X89582576Y-69673430D01*
X89467614Y-69845484D01*
X89388425Y-70036663D01*
X89348056Y-70239614D01*
X89348056Y-70446549D01*
X89388425Y-70649500D01*
X89467614Y-70840679D01*
X89582576Y-71012733D01*
X89582579Y-71012737D01*
X89728901Y-71159059D01*
X89900958Y-71274023D01*
X90011942Y-71319993D01*
X90058467Y-71359729D01*
X90073056Y-71411457D01*
X90073056Y-80113419D01*
X90054149Y-80171610D01*
X90044060Y-80183423D01*
X88353060Y-81874423D01*
X88298543Y-81902200D01*
X88238111Y-81892629D01*
X88194846Y-81849364D01*
X88184056Y-81804419D01*
X88184056Y-71411457D01*
X88202963Y-71353266D01*
X88245169Y-71319993D01*
X88356154Y-71274023D01*
X88528211Y-71159059D01*
X88674533Y-71012737D01*
X88789497Y-70840680D01*
X88868686Y-70649502D01*
X88909056Y-70446547D01*
X88909056Y-70239617D01*
X88868686Y-70036662D01*
X88789497Y-69845484D01*
X88674533Y-69673427D01*
X88528211Y-69527105D01*
X88528207Y-69527102D01*
X88356153Y-69412140D01*
X88164974Y-69332951D01*
X87962023Y-69292582D01*
X87962021Y-69292582D01*
X87755091Y-69292582D01*
X87755088Y-69292582D01*
X87552137Y-69332951D01*
X87360958Y-69412140D01*
X87188904Y-69527102D01*
X87042576Y-69673430D01*
X87001372Y-69735098D01*
X86953322Y-69772978D01*
X86892184Y-69775380D01*
X86841310Y-69741388D01*
X86820132Y-69683984D01*
X86820056Y-69680097D01*
X86820056Y-67726704D01*
X86820056Y-67726703D01*
X86797874Y-67643918D01*
X86797874Y-67643917D01*
X86760000Y-67578318D01*
X86755021Y-67569694D01*
X86694418Y-67509091D01*
X86694415Y-67509089D01*
X86199862Y-67014535D01*
X86199859Y-67014533D01*
X86199857Y-67014531D01*
X86125642Y-66971683D01*
X86125644Y-66971683D01*
X86093521Y-66963076D01*
X86042853Y-66949500D01*
X86042851Y-66949500D01*
X83575835Y-66949500D01*
X83517644Y-66930593D01*
X83505831Y-66920504D01*
X82274496Y-65689169D01*
X82246719Y-65634652D01*
X82245500Y-65619165D01*
X82245500Y-62999500D01*
X82264407Y-62941309D01*
X82313907Y-62905345D01*
X82344500Y-62900500D01*
X82789747Y-62900500D01*
X82789748Y-62900500D01*
X82848231Y-62888867D01*
X82914552Y-62844552D01*
X82958867Y-62778231D01*
X82970500Y-62719748D01*
X82970500Y-61746532D01*
X83409500Y-61746532D01*
X83409500Y-61953467D01*
X83449869Y-62156418D01*
X83529058Y-62347597D01*
X83590265Y-62439200D01*
X83644023Y-62519655D01*
X83790345Y-62665977D01*
X83962402Y-62780941D01*
X84153580Y-62860130D01*
X84356535Y-62900500D01*
X84356536Y-62900500D01*
X84563464Y-62900500D01*
X84563465Y-62900500D01*
X84766420Y-62860130D01*
X84957598Y-62780941D01*
X85129655Y-62665977D01*
X85275977Y-62519655D01*
X85390941Y-62347598D01*
X85470130Y-62156420D01*
X85510500Y-61953465D01*
X85510500Y-61746581D01*
X85950000Y-61746581D01*
X85950000Y-61953418D01*
X85990349Y-62156272D01*
X86069501Y-62347360D01*
X86069505Y-62347369D01*
X86101377Y-62395067D01*
X86517036Y-61979407D01*
X86534075Y-62042993D01*
X86599901Y-62157007D01*
X86692993Y-62250099D01*
X86807007Y-62315925D01*
X86870590Y-62332962D01*
X86454931Y-62748621D01*
X86502639Y-62780498D01*
X86693727Y-62859650D01*
X86896581Y-62899999D01*
X86896586Y-62900000D01*
X87103414Y-62900000D01*
X87103418Y-62899999D01*
X87306272Y-62859650D01*
X87497359Y-62780499D01*
X87545068Y-62748621D01*
X87129409Y-62332962D01*
X87192993Y-62315925D01*
X87307007Y-62250099D01*
X87400099Y-62157007D01*
X87465925Y-62042993D01*
X87482962Y-61979409D01*
X87898621Y-62395068D01*
X87930499Y-62347359D01*
X88009650Y-62156272D01*
X88049999Y-61953418D01*
X88050000Y-61953413D01*
X88050000Y-61746586D01*
X88049999Y-61746581D01*
X88009650Y-61543727D01*
X87930498Y-61352639D01*
X87898621Y-61304931D01*
X87482962Y-61720590D01*
X87465925Y-61657007D01*
X87400099Y-61542993D01*
X87307007Y-61449901D01*
X87192993Y-61384075D01*
X87129407Y-61367036D01*
X87545067Y-60951377D01*
X87497369Y-60919505D01*
X87497360Y-60919501D01*
X87306272Y-60840349D01*
X87103418Y-60800000D01*
X86896581Y-60800000D01*
X86693727Y-60840349D01*
X86502638Y-60919501D01*
X86454931Y-60951377D01*
X86870591Y-61367037D01*
X86807007Y-61384075D01*
X86692993Y-61449901D01*
X86599901Y-61542993D01*
X86534075Y-61657007D01*
X86517037Y-61720591D01*
X86101377Y-61304931D01*
X86069501Y-61352638D01*
X85990349Y-61543727D01*
X85950000Y-61746581D01*
X85510500Y-61746581D01*
X85510500Y-61746535D01*
X85470130Y-61543580D01*
X85390941Y-61352402D01*
X85275977Y-61180345D01*
X85129655Y-61034023D01*
X85129651Y-61034020D01*
X84957597Y-60919058D01*
X84766418Y-60839869D01*
X84563467Y-60799500D01*
X84563465Y-60799500D01*
X84356535Y-60799500D01*
X84356532Y-60799500D01*
X84153581Y-60839869D01*
X83962402Y-60919058D01*
X83790348Y-61034020D01*
X83644020Y-61180348D01*
X83529058Y-61352402D01*
X83449869Y-61543581D01*
X83409500Y-61746532D01*
X82970500Y-61746532D01*
X82970500Y-60980252D01*
X82958867Y-60921769D01*
X82914552Y-60855448D01*
X82914548Y-60855445D01*
X82848233Y-60811134D01*
X82848231Y-60811133D01*
X82848228Y-60811132D01*
X82848227Y-60811132D01*
X82789758Y-60799501D01*
X82789748Y-60799500D01*
X81050252Y-60799500D01*
X81050251Y-60799500D01*
X81050241Y-60799501D01*
X80991772Y-60811132D01*
X80991766Y-60811134D01*
X80925451Y-60855445D01*
X80925445Y-60855451D01*
X80881134Y-60921766D01*
X80881132Y-60921772D01*
X80869501Y-60980241D01*
X80869500Y-60980253D01*
X80869500Y-62719746D01*
X80869501Y-62719758D01*
X80881132Y-62778227D01*
X80881134Y-62778233D01*
X80913660Y-62826911D01*
X80925448Y-62844552D01*
X80991769Y-62888867D01*
X81032390Y-62896947D01*
X81050241Y-62900498D01*
X81050246Y-62900498D01*
X81050252Y-62900500D01*
X81495500Y-62900500D01*
X81553691Y-62919407D01*
X81589655Y-62968907D01*
X81594500Y-62999500D01*
X81594500Y-65752147D01*
X81594500Y-65837853D01*
X81605926Y-65880495D01*
X81616683Y-65920643D01*
X81659531Y-65994857D01*
X81659533Y-65994859D01*
X81659535Y-65994862D01*
X83200138Y-67535465D01*
X83200140Y-67535466D01*
X83200142Y-67535468D01*
X83274357Y-67578316D01*
X83274355Y-67578316D01*
X83274359Y-67578317D01*
X83274361Y-67578318D01*
X83357147Y-67600500D01*
X83442853Y-67600500D01*
X85824166Y-67600500D01*
X85882357Y-67619407D01*
X85894169Y-67629496D01*
X86140059Y-67875385D01*
X86167837Y-67929902D01*
X86169056Y-67945389D01*
X86169056Y-69468942D01*
X86150149Y-69527133D01*
X86100649Y-69563097D01*
X86039463Y-69563097D01*
X86000055Y-69538948D01*
X85988211Y-69527105D01*
X85816153Y-69412140D01*
X85624974Y-69332951D01*
X85422023Y-69292582D01*
X85422021Y-69292582D01*
X85215091Y-69292582D01*
X85215085Y-69292582D01*
X85173419Y-69300870D01*
X85112657Y-69293678D01*
X85084102Y-69273776D01*
X84805830Y-68995504D01*
X84399862Y-68589535D01*
X84399859Y-68589533D01*
X84399857Y-68589531D01*
X84325642Y-68546683D01*
X84325644Y-68546683D01*
X84293521Y-68538076D01*
X84242853Y-68524500D01*
X79942853Y-68524500D01*
X79857147Y-68524500D01*
X79806478Y-68538076D01*
X79774356Y-68546683D01*
X79700142Y-68589531D01*
X78739531Y-69550142D01*
X78696683Y-69624357D01*
X78696680Y-69624362D01*
X78691710Y-69642911D01*
X78658384Y-69694224D01*
X78601261Y-69716148D01*
X78542161Y-69700309D01*
X78518231Y-69676687D01*
X78517621Y-69677189D01*
X78514540Y-69673435D01*
X78514535Y-69673430D01*
X78514533Y-69673427D01*
X78368211Y-69527105D01*
X78368207Y-69527102D01*
X78196153Y-69412140D01*
X78004974Y-69332951D01*
X77802023Y-69292582D01*
X77802021Y-69292582D01*
X77595091Y-69292582D01*
X77595088Y-69292582D01*
X77392137Y-69332951D01*
X77200958Y-69412140D01*
X77028904Y-69527102D01*
X76882576Y-69673430D01*
X76767614Y-69845484D01*
X76688425Y-70036663D01*
X76648056Y-70239614D01*
X76648056Y-70446549D01*
X76688425Y-70649500D01*
X76767614Y-70840679D01*
X76882576Y-71012733D01*
X76882579Y-71012737D01*
X77028901Y-71159059D01*
X77200958Y-71274023D01*
X77311655Y-71319875D01*
X77358181Y-71359611D01*
X77372770Y-71411339D01*
X77372770Y-84948877D01*
X77359507Y-84998376D01*
X77325064Y-85058034D01*
X77325063Y-85058036D01*
X77325063Y-85058037D01*
X77297770Y-85159897D01*
X77297770Y-85265351D01*
X77325063Y-85367211D01*
X77325064Y-85367213D01*
X77325064Y-85367214D01*
X77374863Y-85453467D01*
X77377790Y-85458537D01*
X77452357Y-85533104D01*
X77543683Y-85585831D01*
X77645543Y-85613124D01*
X77645545Y-85613124D01*
X77750995Y-85613124D01*
X77750997Y-85613124D01*
X77852857Y-85585831D01*
X77944183Y-85533104D01*
X78018750Y-85458537D01*
X78071477Y-85367211D01*
X78098770Y-85265351D01*
X78098770Y-85249500D01*
X78117677Y-85191309D01*
X78167177Y-85155345D01*
X78197770Y-85150500D01*
X78275995Y-85150500D01*
X78275997Y-85150500D01*
X78377857Y-85123207D01*
X78469183Y-85070480D01*
X78543750Y-84995913D01*
X78596477Y-84904587D01*
X78619477Y-84818748D01*
X78652800Y-84767435D01*
X78709921Y-84745508D01*
X78740726Y-84748745D01*
X78747273Y-84750500D01*
X78747274Y-84750500D01*
X78852725Y-84750500D01*
X78852727Y-84750500D01*
X78954587Y-84723207D01*
X79045913Y-84670480D01*
X79120480Y-84595913D01*
X79135588Y-84569745D01*
X79181055Y-84528804D01*
X79241905Y-84522407D01*
X79246910Y-84523608D01*
X79347273Y-84550500D01*
X79347275Y-84550500D01*
X79452725Y-84550500D01*
X79452727Y-84550500D01*
X79554587Y-84523207D01*
X79645913Y-84470480D01*
X79720480Y-84395913D01*
X79773207Y-84304587D01*
X79800500Y-84202727D01*
X79800500Y-84097273D01*
X79773207Y-83995413D01*
X79764992Y-83981184D01*
X79738763Y-83935752D01*
X79725500Y-83886253D01*
X79725500Y-79629484D01*
X80861172Y-79629484D01*
X80861172Y-79767850D01*
X80896984Y-79901503D01*
X80966167Y-80021332D01*
X81064007Y-80119172D01*
X81183836Y-80188355D01*
X81233918Y-80201774D01*
X81278298Y-80227396D01*
X81320504Y-80269602D01*
X81348281Y-80324119D01*
X81349500Y-80339606D01*
X81349500Y-83052760D01*
X81336237Y-83102259D01*
X81310312Y-83147162D01*
X81295502Y-83202437D01*
X81274500Y-83280817D01*
X81274500Y-83419183D01*
X81310312Y-83552836D01*
X81379495Y-83672665D01*
X81477335Y-83770505D01*
X81597164Y-83839688D01*
X81730817Y-83875500D01*
X81730819Y-83875500D01*
X81869181Y-83875500D01*
X81869183Y-83875500D01*
X82002836Y-83839688D01*
X82122665Y-83770505D01*
X82220505Y-83672665D01*
X82289688Y-83552836D01*
X82325500Y-83419183D01*
X82325500Y-83280817D01*
X82289688Y-83147164D01*
X82289687Y-83147162D01*
X82263763Y-83102259D01*
X82250500Y-83052760D01*
X82250500Y-80052687D01*
X82250500Y-80052686D01*
X82226625Y-79963581D01*
X82222858Y-79949522D01*
X82219799Y-79938107D01*
X82219797Y-79938104D01*
X82160492Y-79835385D01*
X82160490Y-79835383D01*
X82160489Y-79835381D01*
X81915399Y-79590291D01*
X81889779Y-79545914D01*
X81876360Y-79495831D01*
X81807177Y-79376002D01*
X81709337Y-79278162D01*
X81589508Y-79208979D01*
X81455855Y-79173167D01*
X81317489Y-79173167D01*
X81183836Y-79208979D01*
X81064007Y-79278162D01*
X80966167Y-79376002D01*
X80896984Y-79495831D01*
X80861172Y-79629484D01*
X79725500Y-79629484D01*
X79725500Y-73525835D01*
X79744407Y-73467644D01*
X79754496Y-73455831D01*
X80867334Y-72342993D01*
X82016904Y-71193422D01*
X82071419Y-71165647D01*
X82131851Y-71175218D01*
X82141907Y-71181113D01*
X82280955Y-71274021D01*
X82280954Y-71274021D01*
X82280956Y-71274022D01*
X82280958Y-71274023D01*
X82472136Y-71353212D01*
X82675091Y-71393582D01*
X82675092Y-71393582D01*
X82882020Y-71393582D01*
X82882021Y-71393582D01*
X83084976Y-71353212D01*
X83276154Y-71274023D01*
X83448211Y-71159059D01*
X83594533Y-71012737D01*
X83709497Y-70840680D01*
X83788686Y-70649502D01*
X83829056Y-70446547D01*
X83829056Y-70239617D01*
X83788686Y-70036662D01*
X83709497Y-69845484D01*
X83594533Y-69673427D01*
X83448211Y-69527105D01*
X83448207Y-69527102D01*
X83276153Y-69412140D01*
X83195290Y-69378646D01*
X83164672Y-69365963D01*
X83118148Y-69326227D01*
X83103864Y-69266733D01*
X83127279Y-69210205D01*
X83179448Y-69178235D01*
X83202559Y-69175500D01*
X84024165Y-69175500D01*
X84082356Y-69194407D01*
X84094169Y-69204496D01*
X84469369Y-69579696D01*
X84497146Y-69634213D01*
X84487575Y-69694645D01*
X84481681Y-69704701D01*
X84387614Y-69845484D01*
X84308425Y-70036663D01*
X84268056Y-70239614D01*
X84268056Y-70446549D01*
X84308425Y-70649500D01*
X84387614Y-70840679D01*
X84502576Y-71012733D01*
X84502579Y-71012737D01*
X84648901Y-71159059D01*
X84820958Y-71274023D01*
X85012136Y-71353212D01*
X85215091Y-71393582D01*
X85215092Y-71393582D01*
X85422020Y-71393582D01*
X85422021Y-71393582D01*
X85624976Y-71353212D01*
X85816154Y-71274023D01*
X85988211Y-71159059D01*
X86000054Y-71147215D01*
X86054569Y-71119440D01*
X86115001Y-71129011D01*
X86158266Y-71172276D01*
X86169056Y-71217221D01*
X86169056Y-82579609D01*
X86150149Y-82637800D01*
X86140060Y-82649613D01*
X81659531Y-87130142D01*
X81616683Y-87204356D01*
X81616682Y-87204361D01*
X81597205Y-87277054D01*
X81594500Y-87287148D01*
X81594500Y-98761599D01*
X81584270Y-98805427D01*
X81582841Y-98808320D01*
X81546793Y-98870759D01*
X81540596Y-98893884D01*
X81536270Y-98902648D01*
X81521401Y-98917896D01*
X81509802Y-98935758D01*
X81500506Y-98939326D01*
X81493555Y-98946455D01*
X81472563Y-98950052D01*
X81452681Y-98957684D01*
X81443063Y-98955107D01*
X81433249Y-98956789D01*
X81414151Y-98947360D01*
X81393580Y-98941848D01*
X81387313Y-98934109D01*
X81378386Y-98929702D01*
X81368478Y-98910850D01*
X81355075Y-98894298D01*
X81352511Y-98880468D01*
X81349922Y-98875540D01*
X81350659Y-98870471D01*
X81348500Y-98858820D01*
X81348500Y-91380148D01*
X81348500Y-91380147D01*
X81326318Y-91297362D01*
X81283465Y-91223138D01*
X81259827Y-91199500D01*
X81222862Y-91162534D01*
X81222862Y-91162535D01*
X79024659Y-88964332D01*
X78999037Y-88919953D01*
X78973207Y-88823552D01*
X78920480Y-88732226D01*
X78845913Y-88657659D01*
X78815567Y-88640139D01*
X78754589Y-88604933D01*
X78754588Y-88604932D01*
X78754587Y-88604932D01*
X78652727Y-88577639D01*
X78547273Y-88577639D01*
X78445413Y-88604932D01*
X78445412Y-88604932D01*
X78445410Y-88604933D01*
X78445409Y-88604933D01*
X78354089Y-88657657D01*
X78279518Y-88732228D01*
X78226794Y-88823548D01*
X78226794Y-88823549D01*
X78226793Y-88823551D01*
X78226793Y-88823552D01*
X78199500Y-88925412D01*
X78199500Y-89030866D01*
X78226793Y-89132726D01*
X78226794Y-89132728D01*
X78226794Y-89132729D01*
X78279518Y-89224049D01*
X78279520Y-89224052D01*
X78354087Y-89298619D01*
X78445413Y-89351346D01*
X78445415Y-89351346D01*
X78445418Y-89351348D01*
X78482085Y-89361172D01*
X78526468Y-89386795D01*
X80668504Y-91528831D01*
X80672130Y-91535948D01*
X80678593Y-91540644D01*
X80685756Y-91562692D01*
X80696281Y-91583348D01*
X80697500Y-91598835D01*
X80697500Y-91748165D01*
X80678593Y-91806356D01*
X80629093Y-91842320D01*
X80567907Y-91842320D01*
X80528496Y-91818169D01*
X78516657Y-89806330D01*
X78491035Y-89761950D01*
X78473207Y-89695413D01*
X78420480Y-89604087D01*
X78345913Y-89529520D01*
X78293655Y-89499349D01*
X78254589Y-89476794D01*
X78254588Y-89476793D01*
X78254587Y-89476793D01*
X78152727Y-89449500D01*
X78047273Y-89449500D01*
X77945413Y-89476793D01*
X77945412Y-89476793D01*
X77945410Y-89476794D01*
X77945409Y-89476794D01*
X77854089Y-89529518D01*
X77779518Y-89604089D01*
X77726794Y-89695409D01*
X77726794Y-89695410D01*
X77726793Y-89695412D01*
X77726793Y-89695413D01*
X77699500Y-89797273D01*
X77699500Y-89902727D01*
X77722192Y-89987415D01*
X77726794Y-90004589D01*
X77726794Y-90004590D01*
X77779245Y-90095437D01*
X77779520Y-90095913D01*
X77854087Y-90170480D01*
X77945413Y-90223207D01*
X78011950Y-90241035D01*
X78056330Y-90266657D01*
X80217504Y-92427831D01*
X80245281Y-92482348D01*
X80246500Y-92497835D01*
X80246500Y-108426545D01*
X80227593Y-108484736D01*
X80217504Y-108496549D01*
X78393549Y-110320504D01*
X78339032Y-110348281D01*
X78323545Y-110349500D01*
X75442853Y-110349500D01*
X75357147Y-110349500D01*
X75327059Y-110357562D01*
X75274356Y-110371683D01*
X75200142Y-110414531D01*
X74239531Y-111375142D01*
X74196683Y-111449357D01*
X74196681Y-111449361D01*
X74185735Y-111490209D01*
X74185736Y-111490210D01*
X74174500Y-111532144D01*
X74174500Y-112086253D01*
X74161237Y-112135752D01*
X74126794Y-112195410D01*
X74126793Y-112195412D01*
X74126793Y-112195413D01*
X74099500Y-112297273D01*
X74099500Y-112402727D01*
X74126793Y-112504587D01*
X74126794Y-112504589D01*
X74126794Y-112504590D01*
X74179518Y-112595910D01*
X74179520Y-112595913D01*
X74254087Y-112670480D01*
X74345413Y-112723207D01*
X74447273Y-112750500D01*
X74447275Y-112750500D01*
X74552725Y-112750500D01*
X74552727Y-112750500D01*
X74654587Y-112723207D01*
X74745913Y-112670480D01*
X74820480Y-112595913D01*
X74873207Y-112504587D01*
X74900500Y-112402727D01*
X74900500Y-112297273D01*
X74873207Y-112195413D01*
X74861510Y-112175153D01*
X74838763Y-112135752D01*
X74825500Y-112086253D01*
X74825500Y-111750835D01*
X74844407Y-111692644D01*
X74854495Y-111680832D01*
X74865842Y-111669485D01*
X74890900Y-111644426D01*
X74945415Y-111616650D01*
X75005847Y-111626221D01*
X75049112Y-111669485D01*
X75058684Y-111729917D01*
X75056530Y-111740053D01*
X75040334Y-111800499D01*
X75034500Y-111822273D01*
X75034500Y-111927727D01*
X75061793Y-112029587D01*
X75061794Y-112029589D01*
X75061794Y-112029590D01*
X75094509Y-112086253D01*
X75114520Y-112120913D01*
X75189087Y-112195480D01*
X75280413Y-112248207D01*
X75382273Y-112275500D01*
X75382275Y-112275500D01*
X75487725Y-112275500D01*
X75487727Y-112275500D01*
X75589587Y-112248207D01*
X75649246Y-112213762D01*
X75698745Y-112200500D01*
X78617851Y-112200500D01*
X78617853Y-112200500D01*
X78700639Y-112178318D01*
X78700641Y-112178316D01*
X78700643Y-112178316D01*
X78774857Y-112135468D01*
X78774857Y-112135467D01*
X78774862Y-112135465D01*
X81734465Y-109175862D01*
X81777318Y-109101639D01*
X81799500Y-109018853D01*
X81799500Y-108933147D01*
X81799500Y-106681653D01*
X81818407Y-106623462D01*
X81867907Y-106587498D01*
X81924123Y-106586027D01*
X81946273Y-106591962D01*
X81946274Y-106591962D01*
X82051725Y-106591962D01*
X82051727Y-106591962D01*
X82153587Y-106564669D01*
X82241757Y-106513763D01*
X82291257Y-106500500D01*
X83417851Y-106500500D01*
X83417853Y-106500500D01*
X83500639Y-106478318D01*
X83500641Y-106478316D01*
X83500643Y-106478316D01*
X83574862Y-106435465D01*
X83625925Y-106384402D01*
X83680441Y-106356624D01*
X83740873Y-106366195D01*
X83781665Y-106404905D01*
X83834207Y-106495910D01*
X83834209Y-106495913D01*
X83908776Y-106570480D01*
X84000102Y-106623207D01*
X84096594Y-106649061D01*
X84120466Y-106658950D01*
X84136968Y-106668478D01*
X84154098Y-106678368D01*
X84154099Y-106678368D01*
X84154102Y-106678370D01*
X84236888Y-106700552D01*
X84969217Y-106700552D01*
X85027408Y-106719459D01*
X85039221Y-106729548D01*
X85743504Y-107433831D01*
X85771281Y-107488348D01*
X85772500Y-107503835D01*
X85772500Y-116230767D01*
X85772500Y-116316473D01*
X85775481Y-116327597D01*
X85794683Y-116399263D01*
X85837531Y-116473477D01*
X85837533Y-116473479D01*
X85837535Y-116473482D01*
X86674519Y-117310465D01*
X87034550Y-117670496D01*
X87062327Y-117725013D01*
X87052756Y-117785445D01*
X87009491Y-117828710D01*
X86991489Y-117835763D01*
X86978276Y-117839500D01*
X86969108Y-117839500D01*
X86841814Y-117873608D01*
X86826577Y-117882404D01*
X86814704Y-117885763D01*
X86803343Y-117885325D01*
X86787761Y-117889500D01*
X75892611Y-117889500D01*
X75834420Y-117870593D01*
X75822607Y-117860504D01*
X72679496Y-114717393D01*
X72651719Y-114662876D01*
X72650500Y-114647389D01*
X72650500Y-112201679D01*
X72663762Y-112152181D01*
X72689688Y-112107278D01*
X72725500Y-111973625D01*
X72725500Y-111902610D01*
X72744407Y-111844419D01*
X72754497Y-111832606D01*
X72885499Y-111701604D01*
X73060490Y-111526614D01*
X73119799Y-111423887D01*
X73127346Y-111395721D01*
X73135468Y-111365412D01*
X73142652Y-111338599D01*
X73150500Y-111309309D01*
X73150500Y-107099500D01*
X73169407Y-107041309D01*
X73218907Y-107005345D01*
X73249500Y-107000500D01*
X79022438Y-107000500D01*
X79071936Y-107013762D01*
X79147164Y-107057195D01*
X79280817Y-107093007D01*
X79280819Y-107093007D01*
X79419181Y-107093007D01*
X79419183Y-107093007D01*
X79552836Y-107057195D01*
X79672665Y-106988012D01*
X79770505Y-106890172D01*
X79839688Y-106770343D01*
X79875500Y-106636690D01*
X79875500Y-106498324D01*
X79839688Y-106364671D01*
X79770505Y-106244842D01*
X79672665Y-106147002D01*
X79552836Y-106077819D01*
X79419183Y-106042007D01*
X79280817Y-106042007D01*
X79147164Y-106077819D01*
X79147163Y-106077819D01*
X79147161Y-106077820D01*
X79147159Y-106077821D01*
X79132582Y-106086237D01*
X79083084Y-106099500D01*
X70227611Y-106099500D01*
X70169420Y-106080593D01*
X70157607Y-106070504D01*
X69379496Y-105292393D01*
X69351719Y-105237876D01*
X69350500Y-105222389D01*
X69350500Y-94847237D01*
X69363762Y-94797739D01*
X69389688Y-94752836D01*
X69425500Y-94619183D01*
X69425500Y-94480817D01*
X69389688Y-94347164D01*
X69382672Y-94335012D01*
X69363763Y-94302259D01*
X69350500Y-94252760D01*
X69350500Y-75072237D01*
X69363762Y-75022739D01*
X69389688Y-74977836D01*
X69425500Y-74844183D01*
X69425500Y-74705817D01*
X69389688Y-74572164D01*
X69389687Y-74572162D01*
X69363763Y-74527259D01*
X69350500Y-74477760D01*
X69350500Y-72097273D01*
X69774500Y-72097273D01*
X69774500Y-72202727D01*
X69789193Y-72257562D01*
X69801794Y-72304589D01*
X69801794Y-72304590D01*
X69824306Y-72343581D01*
X69854520Y-72395913D01*
X69929087Y-72470480D01*
X69929089Y-72470481D01*
X69929092Y-72470484D01*
X69934238Y-72474433D01*
X69932597Y-72476571D01*
X69965922Y-72513548D01*
X69974499Y-72553856D01*
X69974499Y-90608177D01*
X69994977Y-90684601D01*
X70010986Y-90712328D01*
X70010987Y-90712331D01*
X70034534Y-90753118D01*
X70034537Y-90753121D01*
X70034539Y-90753124D01*
X71140927Y-91859512D01*
X71140926Y-91859512D01*
X71196876Y-91915461D01*
X71265394Y-91955020D01*
X71265398Y-91955022D01*
X71341822Y-91975500D01*
X71341824Y-91975501D01*
X71341825Y-91975501D01*
X71420949Y-91975501D01*
X71496143Y-91975501D01*
X71554334Y-91994408D01*
X71574385Y-92016672D01*
X71575569Y-92015764D01*
X71579517Y-92020909D01*
X71579518Y-92020910D01*
X71579520Y-92020913D01*
X71654087Y-92095480D01*
X71745413Y-92148207D01*
X71847273Y-92175500D01*
X71847275Y-92175500D01*
X71952725Y-92175500D01*
X71952727Y-92175500D01*
X72054587Y-92148207D01*
X72145913Y-92095480D01*
X72220480Y-92020913D01*
X72273207Y-91929587D01*
X72300500Y-91827727D01*
X72300500Y-91722273D01*
X72273207Y-91620413D01*
X72271813Y-91617999D01*
X72220481Y-91529089D01*
X72220480Y-91529087D01*
X72211394Y-91520001D01*
X72183619Y-91465487D01*
X72193190Y-91405055D01*
X72211393Y-91379999D01*
X72220480Y-91370913D01*
X72273207Y-91279587D01*
X72300500Y-91177727D01*
X72300500Y-91072273D01*
X72273207Y-90970413D01*
X72220480Y-90879087D01*
X72145913Y-90804520D01*
X72131992Y-90796483D01*
X72054589Y-90751794D01*
X72054588Y-90751793D01*
X72054587Y-90751793D01*
X71952727Y-90724500D01*
X71847273Y-90724500D01*
X71796343Y-90738146D01*
X71745411Y-90751793D01*
X71668006Y-90796483D01*
X71608158Y-90809204D01*
X71552262Y-90784317D01*
X71548503Y-90780750D01*
X71054497Y-90286744D01*
X71026720Y-90232227D01*
X71025501Y-90216740D01*
X71025501Y-72553856D01*
X71044408Y-72495665D01*
X71066676Y-72475624D01*
X71065762Y-72474433D01*
X71070907Y-72470484D01*
X71070908Y-72470482D01*
X71070913Y-72470480D01*
X71145480Y-72395913D01*
X71198207Y-72304587D01*
X71225500Y-72202727D01*
X71225500Y-72097273D01*
X71198207Y-71995413D01*
X71197400Y-71994016D01*
X71145481Y-71904089D01*
X71145480Y-71904087D01*
X71070913Y-71829520D01*
X70979587Y-71776793D01*
X70877727Y-71749500D01*
X70772273Y-71749500D01*
X70670413Y-71776793D01*
X70670412Y-71776793D01*
X70670410Y-71776794D01*
X70670409Y-71776794D01*
X70579089Y-71829518D01*
X70579087Y-71829519D01*
X70579087Y-71829520D01*
X70570001Y-71838605D01*
X70515487Y-71866381D01*
X70455055Y-71856810D01*
X70429999Y-71838606D01*
X70420913Y-71829520D01*
X70329587Y-71776793D01*
X70227727Y-71749500D01*
X70122273Y-71749500D01*
X70020413Y-71776793D01*
X70020412Y-71776793D01*
X70020410Y-71776794D01*
X70020409Y-71776794D01*
X69929089Y-71829518D01*
X69854518Y-71904089D01*
X69801794Y-71995409D01*
X69801794Y-71995410D01*
X69801793Y-71995412D01*
X69801793Y-71995413D01*
X69774500Y-72097273D01*
X69350500Y-72097273D01*
X69350500Y-70824500D01*
X69369407Y-70766309D01*
X69418907Y-70730345D01*
X69449500Y-70725500D01*
X71469056Y-70725500D01*
X71527247Y-70744407D01*
X71563211Y-70793907D01*
X71568056Y-70824500D01*
X71568056Y-71212828D01*
X71568057Y-71212840D01*
X71579688Y-71271309D01*
X71579690Y-71271315D01*
X71612216Y-71319993D01*
X71624004Y-71337634D01*
X71690325Y-71381949D01*
X71734787Y-71390793D01*
X71748797Y-71393580D01*
X71748802Y-71393580D01*
X71748808Y-71393582D01*
X71748809Y-71393582D01*
X73488303Y-71393582D01*
X73488304Y-71393582D01*
X73546787Y-71381949D01*
X73613108Y-71337634D01*
X73657423Y-71271313D01*
X73669056Y-71212830D01*
X73669056Y-70239663D01*
X74108556Y-70239663D01*
X74108556Y-70446500D01*
X74148905Y-70649354D01*
X74228057Y-70840442D01*
X74228061Y-70840451D01*
X74259933Y-70888149D01*
X74675592Y-70472489D01*
X74692631Y-70536075D01*
X74758457Y-70650089D01*
X74851549Y-70743181D01*
X74965563Y-70809007D01*
X75029146Y-70826044D01*
X74613487Y-71241703D01*
X74661195Y-71273580D01*
X74852283Y-71352732D01*
X75055137Y-71393081D01*
X75055142Y-71393082D01*
X75261970Y-71393082D01*
X75261974Y-71393081D01*
X75464828Y-71352732D01*
X75655915Y-71273581D01*
X75703624Y-71241703D01*
X75287965Y-70826044D01*
X75351549Y-70809007D01*
X75465563Y-70743181D01*
X75558655Y-70650089D01*
X75624481Y-70536075D01*
X75641518Y-70472491D01*
X76057177Y-70888150D01*
X76089055Y-70840441D01*
X76168206Y-70649354D01*
X76208555Y-70446500D01*
X76208556Y-70446495D01*
X76208556Y-70239668D01*
X76208555Y-70239663D01*
X76168206Y-70036809D01*
X76089054Y-69845721D01*
X76057177Y-69798013D01*
X75641518Y-70213672D01*
X75624481Y-70150089D01*
X75558655Y-70036075D01*
X75465563Y-69942983D01*
X75351549Y-69877157D01*
X75287963Y-69860118D01*
X75703623Y-69444459D01*
X75655925Y-69412587D01*
X75655916Y-69412583D01*
X75464828Y-69333431D01*
X75261974Y-69293082D01*
X75055137Y-69293082D01*
X74852283Y-69333431D01*
X74661194Y-69412583D01*
X74613487Y-69444459D01*
X75029147Y-69860119D01*
X74965563Y-69877157D01*
X74851549Y-69942983D01*
X74758457Y-70036075D01*
X74692631Y-70150089D01*
X74675593Y-70213673D01*
X74259933Y-69798013D01*
X74228057Y-69845720D01*
X74148905Y-70036809D01*
X74108556Y-70239663D01*
X73669056Y-70239663D01*
X73669056Y-69473334D01*
X73668182Y-69468942D01*
X73665354Y-69454723D01*
X73657423Y-69414851D01*
X73613108Y-69348530D01*
X73613104Y-69348527D01*
X73546789Y-69304216D01*
X73546787Y-69304215D01*
X73546784Y-69304214D01*
X73546783Y-69304214D01*
X73488314Y-69292583D01*
X73488304Y-69292582D01*
X71748808Y-69292582D01*
X71748807Y-69292582D01*
X71748797Y-69292583D01*
X71690328Y-69304214D01*
X71690322Y-69304216D01*
X71624007Y-69348527D01*
X71624001Y-69348533D01*
X71579690Y-69414848D01*
X71579688Y-69414854D01*
X71568057Y-69473323D01*
X71568056Y-69473335D01*
X71568056Y-69725500D01*
X71549149Y-69783691D01*
X71499649Y-69819655D01*
X71469056Y-69824500D01*
X69188005Y-69824500D01*
X69173237Y-69819701D01*
X69157711Y-69819751D01*
X69144873Y-69810486D01*
X69129814Y-69805593D01*
X69120686Y-69793029D01*
X69108097Y-69783944D01*
X69103156Y-69768902D01*
X69093850Y-69756093D01*
X69093850Y-69740565D01*
X69089005Y-69725814D01*
X69093850Y-69710740D01*
X69093850Y-69694907D01*
X69102976Y-69682345D01*
X69107728Y-69667563D01*
X69119730Y-69659286D01*
X69129814Y-69645407D01*
X69157114Y-69631443D01*
X69159724Y-69630585D01*
X69202836Y-69619034D01*
X69213309Y-69612987D01*
X69223047Y-69609789D01*
X69235638Y-69609749D01*
X69253938Y-69604846D01*
X69262599Y-69604846D01*
X69262601Y-69604846D01*
X69383536Y-69572441D01*
X69491964Y-69509841D01*
X69922307Y-69079496D01*
X69976824Y-69051719D01*
X69992311Y-69050500D01*
X75646062Y-69050500D01*
X75691023Y-69062547D01*
X75691166Y-69062204D01*
X75693772Y-69063283D01*
X75695561Y-69063762D01*
X75697164Y-69064688D01*
X75830817Y-69100500D01*
X75830819Y-69100500D01*
X75969181Y-69100500D01*
X75969183Y-69100500D01*
X76102836Y-69064688D01*
X76222665Y-68995505D01*
X76320505Y-68897665D01*
X76389688Y-68777836D01*
X76425500Y-68644183D01*
X76425500Y-68505817D01*
X76389688Y-68372164D01*
X76320505Y-68252335D01*
X76222665Y-68154495D01*
X76102836Y-68085312D01*
X75969183Y-68049500D01*
X75830817Y-68049500D01*
X75763990Y-68067406D01*
X75697162Y-68085312D01*
X75695562Y-68086237D01*
X75693772Y-68086716D01*
X75691166Y-68087796D01*
X75691023Y-68087452D01*
X75646062Y-68099500D01*
X69816951Y-68099500D01*
X69816947Y-68099499D01*
X69691745Y-68099499D01*
X69640875Y-68113130D01*
X69631540Y-68113815D01*
X69610476Y-68108639D01*
X69588819Y-68107505D01*
X69581396Y-68101494D01*
X69572122Y-68099216D01*
X69558123Y-68082648D01*
X69541268Y-68069000D01*
X69538796Y-68059775D01*
X69532632Y-68052480D01*
X69531044Y-68030847D01*
X69525432Y-68009900D01*
X69528853Y-68000985D01*
X69528155Y-67991459D01*
X69539586Y-67973025D01*
X69547358Y-67952778D01*
X69558375Y-67942726D01*
X69560401Y-67939460D01*
X69563213Y-67938312D01*
X69569295Y-67932764D01*
X69626220Y-67894728D01*
X69723728Y-67797220D01*
X69800333Y-67682571D01*
X69853098Y-67555183D01*
X69879999Y-67419944D01*
X69880000Y-67419942D01*
X69880000Y-67051001D01*
X69879999Y-67051000D01*
X69480000Y-67051000D01*
X69480000Y-66551000D01*
X69879999Y-66551000D01*
X69880000Y-66550999D01*
X69880000Y-66241817D01*
X70074500Y-66241817D01*
X70074500Y-66380183D01*
X70110312Y-66513836D01*
X70179495Y-66633665D01*
X70277335Y-66731505D01*
X70397164Y-66800688D01*
X70530817Y-66836500D01*
X70530819Y-66836500D01*
X70669181Y-66836500D01*
X70669183Y-66836500D01*
X70802836Y-66800688D01*
X70922665Y-66731505D01*
X71020505Y-66633665D01*
X71089688Y-66513836D01*
X71125500Y-66380183D01*
X71125500Y-66241817D01*
X71122821Y-66231817D01*
X75874500Y-66231817D01*
X75874500Y-66370183D01*
X75910312Y-66503836D01*
X75979495Y-66623665D01*
X76077335Y-66721505D01*
X76197164Y-66790688D01*
X76330817Y-66826500D01*
X76330819Y-66826500D01*
X76469181Y-66826500D01*
X76469183Y-66826500D01*
X76602836Y-66790688D01*
X76722665Y-66721505D01*
X76820505Y-66623665D01*
X76889688Y-66503836D01*
X76925500Y-66370183D01*
X76925500Y-66231817D01*
X76912166Y-66182055D01*
X77120000Y-66182055D01*
X77120000Y-66550999D01*
X77120001Y-66551000D01*
X77520000Y-66551000D01*
X77520000Y-67051000D01*
X77120001Y-67051000D01*
X77120000Y-67051001D01*
X77120000Y-67419944D01*
X77146901Y-67555183D01*
X77199666Y-67682571D01*
X77276271Y-67797220D01*
X77373779Y-67894728D01*
X77488421Y-67971329D01*
X77488431Y-67971334D01*
X77569999Y-68005120D01*
X77570000Y-68005120D01*
X77570000Y-67517988D01*
X77579940Y-67535205D01*
X77635795Y-67591060D01*
X77704204Y-67630556D01*
X77780504Y-67651000D01*
X77859496Y-67651000D01*
X77935796Y-67630556D01*
X78004205Y-67591060D01*
X78060060Y-67535205D01*
X78070000Y-67517988D01*
X78070000Y-68005120D01*
X78151568Y-67971334D01*
X78151578Y-67971329D01*
X78266220Y-67894728D01*
X78363728Y-67797220D01*
X78440333Y-67682571D01*
X78493098Y-67555183D01*
X78519999Y-67419944D01*
X78520000Y-67419942D01*
X78520000Y-67051001D01*
X78519999Y-67051000D01*
X78120000Y-67051000D01*
X78120000Y-66551000D01*
X78519999Y-66551000D01*
X78520000Y-66550999D01*
X78520000Y-66182057D01*
X78519999Y-66182055D01*
X78493098Y-66046816D01*
X78440333Y-65919428D01*
X78363728Y-65804779D01*
X78266220Y-65707271D01*
X78151571Y-65630666D01*
X78070000Y-65596878D01*
X78070000Y-66084011D01*
X78060060Y-66066795D01*
X78004205Y-66010940D01*
X77935796Y-65971444D01*
X77859496Y-65951000D01*
X77780504Y-65951000D01*
X77704204Y-65971444D01*
X77635795Y-66010940D01*
X77579940Y-66066795D01*
X77570000Y-66084011D01*
X77570000Y-65596879D01*
X77569999Y-65596878D01*
X77488428Y-65630666D01*
X77373779Y-65707271D01*
X77276271Y-65804779D01*
X77199666Y-65919428D01*
X77146901Y-66046816D01*
X77120000Y-66182055D01*
X76912166Y-66182055D01*
X76889688Y-66098164D01*
X76820505Y-65978335D01*
X76722665Y-65880495D01*
X76602836Y-65811312D01*
X76469183Y-65775500D01*
X76330817Y-65775500D01*
X76197164Y-65811312D01*
X76077335Y-65880495D01*
X75979495Y-65978335D01*
X75910312Y-66098164D01*
X75874500Y-66231817D01*
X71122821Y-66231817D01*
X71089688Y-66108164D01*
X71020505Y-65988335D01*
X70922665Y-65890495D01*
X70802836Y-65821312D01*
X70669183Y-65785500D01*
X70530817Y-65785500D01*
X70397164Y-65821312D01*
X70277335Y-65890495D01*
X70179495Y-65988335D01*
X70110312Y-66108164D01*
X70074500Y-66241817D01*
X69880000Y-66241817D01*
X69880000Y-66182057D01*
X69879999Y-66182055D01*
X69853098Y-66046816D01*
X69800333Y-65919428D01*
X69723728Y-65804779D01*
X69626220Y-65707271D01*
X69511571Y-65630666D01*
X69430000Y-65596878D01*
X69430000Y-66084011D01*
X69420060Y-66066795D01*
X69364205Y-66010940D01*
X69295796Y-65971444D01*
X69219496Y-65951000D01*
X69140504Y-65951000D01*
X69064204Y-65971444D01*
X68995795Y-66010940D01*
X68939940Y-66066795D01*
X68930000Y-66084011D01*
X68930000Y-65596879D01*
X68929999Y-65596878D01*
X68848428Y-65630666D01*
X68733779Y-65707271D01*
X68636271Y-65804779D01*
X68559666Y-65919428D01*
X68506901Y-66046816D01*
X68480000Y-66182055D01*
X68480000Y-66550999D01*
X68480001Y-66551000D01*
X68880000Y-66551000D01*
X68880000Y-67051000D01*
X68480001Y-67051000D01*
X68480000Y-67051001D01*
X68480000Y-67419944D01*
X68506901Y-67555183D01*
X68559666Y-67682571D01*
X68636271Y-67797220D01*
X68733779Y-67894728D01*
X68848421Y-67971329D01*
X68848431Y-67971334D01*
X68929999Y-68005120D01*
X68930000Y-68005120D01*
X68930000Y-67517988D01*
X68939940Y-67535205D01*
X68995795Y-67591060D01*
X69064204Y-67630556D01*
X69140504Y-67651000D01*
X69219496Y-67651000D01*
X69295796Y-67630556D01*
X69364205Y-67591060D01*
X69420060Y-67535205D01*
X69430000Y-67517988D01*
X69430000Y-68005119D01*
X69464688Y-68028298D01*
X69502567Y-68076348D01*
X69504969Y-68137486D01*
X69470976Y-68188360D01*
X69465945Y-68191770D01*
X69462384Y-68194502D01*
X69373850Y-68283035D01*
X69373851Y-68283036D01*
X69082037Y-68574850D01*
X69027520Y-68602627D01*
X69012033Y-68603846D01*
X68930817Y-68603846D01*
X68797164Y-68639658D01*
X68677335Y-68708841D01*
X68579495Y-68806681D01*
X68510312Y-68926510D01*
X68474500Y-69060163D01*
X68474500Y-69198529D01*
X68510312Y-69332182D01*
X68579495Y-69452011D01*
X68677335Y-69549851D01*
X68797164Y-69619034D01*
X68837619Y-69629873D01*
X68888932Y-69663197D01*
X68910859Y-69720318D01*
X68895024Y-69779419D01*
X68847474Y-69817924D01*
X68811995Y-69824500D01*
X66224945Y-69824500D01*
X66166754Y-69805593D01*
X66133481Y-69763386D01*
X66070941Y-69612402D01*
X65955979Y-69440348D01*
X65955977Y-69440345D01*
X65809655Y-69294023D01*
X65807500Y-69292583D01*
X65637597Y-69179058D01*
X65446418Y-69099869D01*
X65243467Y-69059500D01*
X65243465Y-69059500D01*
X65036535Y-69059500D01*
X65036532Y-69059500D01*
X64833581Y-69099869D01*
X64642402Y-69179058D01*
X64470348Y-69294020D01*
X64324020Y-69440348D01*
X64209058Y-69612402D01*
X64129869Y-69803581D01*
X64089500Y-70006532D01*
X64089500Y-70213467D01*
X64129869Y-70416418D01*
X64209058Y-70607597D01*
X64317237Y-70769499D01*
X64324023Y-70779655D01*
X64470345Y-70925977D01*
X64642402Y-71040941D01*
X64833580Y-71120130D01*
X65036535Y-71160500D01*
X65036536Y-71160500D01*
X65243464Y-71160500D01*
X65243465Y-71160500D01*
X65446420Y-71120130D01*
X65637598Y-71040941D01*
X65809655Y-70925977D01*
X65955977Y-70779655D01*
X65962763Y-70769499D01*
X66010813Y-70731619D01*
X66045079Y-70725500D01*
X68350500Y-70725500D01*
X68408691Y-70744407D01*
X68444655Y-70793907D01*
X68449500Y-70824500D01*
X68449500Y-74477760D01*
X68436237Y-74527259D01*
X68410312Y-74572162D01*
X68386437Y-74661266D01*
X68374500Y-74705817D01*
X68374500Y-74844183D01*
X68410312Y-74977836D01*
X68436237Y-75022739D01*
X68449500Y-75072237D01*
X68449500Y-94252760D01*
X68436237Y-94302259D01*
X68410312Y-94347162D01*
X68386437Y-94436266D01*
X68374500Y-94480817D01*
X68374500Y-94619183D01*
X68410312Y-94752836D01*
X68436237Y-94797739D01*
X68449500Y-94847237D01*
X68449500Y-105509308D01*
X68464832Y-105566531D01*
X68464833Y-105566532D01*
X68464834Y-105566535D01*
X68480201Y-105623887D01*
X68480202Y-105623889D01*
X68480203Y-105623892D01*
X68539507Y-105726609D01*
X68539509Y-105726611D01*
X68539511Y-105726614D01*
X69723386Y-106910489D01*
X69723388Y-106910490D01*
X69723390Y-106910492D01*
X69826107Y-106969796D01*
X69826109Y-106969797D01*
X69826113Y-106969799D01*
X69850322Y-106976284D01*
X69850325Y-106976287D01*
X69850326Y-106976286D01*
X69940688Y-107000499D01*
X69940690Y-107000500D01*
X69940691Y-107000500D01*
X72150500Y-107000500D01*
X72208691Y-107019407D01*
X72244655Y-107068907D01*
X72249500Y-107099500D01*
X72249500Y-111022389D01*
X72230593Y-111080580D01*
X72220504Y-111092392D01*
X71839511Y-111473385D01*
X71839507Y-111473390D01*
X71780202Y-111576110D01*
X71777717Y-111582109D01*
X71777181Y-111581887D01*
X71771464Y-111595685D01*
X71710312Y-111701604D01*
X71688799Y-111781893D01*
X71674500Y-111835259D01*
X71674500Y-111973625D01*
X71710312Y-112107278D01*
X71736237Y-112152181D01*
X71749500Y-112201679D01*
X71749500Y-114934309D01*
X71773713Y-115024673D01*
X71773712Y-115024673D01*
X71780200Y-115048886D01*
X71780202Y-115048890D01*
X71839507Y-115151609D01*
X71839508Y-115151610D01*
X71839509Y-115151611D01*
X71839511Y-115151614D01*
X73482055Y-116794158D01*
X75116818Y-118428921D01*
X75144595Y-118483438D01*
X75135024Y-118543870D01*
X75091759Y-118587135D01*
X75072438Y-118594551D01*
X75045416Y-118601791D01*
X75045409Y-118601794D01*
X74954089Y-118654518D01*
X74879518Y-118729089D01*
X74826794Y-118820409D01*
X74826794Y-118820410D01*
X74826793Y-118820412D01*
X74826793Y-118820413D01*
X74799500Y-118922273D01*
X74799500Y-119027727D01*
X74826793Y-119129587D01*
X74826794Y-119129589D01*
X74826794Y-119129590D01*
X74879518Y-119220910D01*
X74879520Y-119220913D01*
X74954087Y-119295480D01*
X75045413Y-119348207D01*
X75147273Y-119375500D01*
X75147275Y-119375500D01*
X75252725Y-119375500D01*
X75252727Y-119375500D01*
X75354587Y-119348207D01*
X75414246Y-119313762D01*
X75463745Y-119300500D01*
X82461275Y-119300500D01*
X82510775Y-119313764D01*
X82596413Y-119363207D01*
X82698273Y-119390500D01*
X82698275Y-119390500D01*
X82803725Y-119390500D01*
X82803727Y-119390500D01*
X82905587Y-119363207D01*
X82996913Y-119310480D01*
X83071480Y-119235913D01*
X83124207Y-119144587D01*
X83151500Y-119042727D01*
X83151500Y-118937273D01*
X83145565Y-118915123D01*
X83148766Y-118854023D01*
X83187271Y-118806472D01*
X83241191Y-118790500D01*
X86787761Y-118790500D01*
X86837258Y-118803761D01*
X86841814Y-118806392D01*
X86969108Y-118840500D01*
X86969110Y-118840500D01*
X87100890Y-118840500D01*
X87100892Y-118840500D01*
X87228186Y-118806392D01*
X87228188Y-118806390D01*
X87228190Y-118806390D01*
X87342309Y-118740503D01*
X87342309Y-118740502D01*
X87342314Y-118740500D01*
X87435500Y-118647314D01*
X87465963Y-118594551D01*
X87501390Y-118533190D01*
X87501390Y-118533188D01*
X87501392Y-118533186D01*
X87535500Y-118405892D01*
X87535500Y-118405889D01*
X87536347Y-118399458D01*
X87538960Y-118399802D01*
X87554407Y-118352263D01*
X87603907Y-118316299D01*
X87665093Y-118316299D01*
X87704504Y-118340450D01*
X89313913Y-119949859D01*
X89313915Y-119949862D01*
X89374518Y-120010465D01*
X89396588Y-120023207D01*
X89448741Y-120053318D01*
X89531524Y-120075500D01*
X89531526Y-120075501D01*
X89531527Y-120075501D01*
X89623296Y-120075501D01*
X89623312Y-120075500D01*
X97009990Y-120075500D01*
X97068181Y-120094407D01*
X97104145Y-120143907D01*
X97104145Y-120205093D01*
X97086516Y-120237308D01*
X97084020Y-120240348D01*
X96969058Y-120412402D01*
X96889869Y-120603581D01*
X96849500Y-120806532D01*
X96849500Y-121013467D01*
X96889869Y-121216418D01*
X96969058Y-121407597D01*
X97084020Y-121579651D01*
X97084023Y-121579655D01*
X97230345Y-121725977D01*
X97402402Y-121840941D01*
X97593580Y-121920130D01*
X97796535Y-121960500D01*
X97796536Y-121960500D01*
X98003464Y-121960500D01*
X98003465Y-121960500D01*
X98206420Y-121920130D01*
X98397598Y-121840941D01*
X98569655Y-121725977D01*
X98715977Y-121579655D01*
X98830941Y-121407598D01*
X98910130Y-121216420D01*
X98950500Y-121013465D01*
X98950500Y-120806535D01*
X98910130Y-120603580D01*
X98830941Y-120412402D01*
X98715977Y-120240345D01*
X98704133Y-120228501D01*
X98676358Y-120173987D01*
X98685929Y-120113555D01*
X98729194Y-120070290D01*
X98774139Y-120059500D01*
X99118851Y-120059500D01*
X99118853Y-120059500D01*
X99201639Y-120037318D01*
X99201641Y-120037316D01*
X99201643Y-120037316D01*
X99275857Y-119994468D01*
X99275857Y-119994467D01*
X99275862Y-119994465D01*
X99914709Y-119355616D01*
X99969224Y-119327841D01*
X100022593Y-119334157D01*
X100133580Y-119380130D01*
X100336535Y-119420500D01*
X100336536Y-119420500D01*
X100543464Y-119420500D01*
X100543465Y-119420500D01*
X100746420Y-119380130D01*
X100937598Y-119300941D01*
X101109655Y-119185977D01*
X101245498Y-119050133D01*
X101300013Y-119022358D01*
X101360445Y-119031929D01*
X101403710Y-119075194D01*
X101414500Y-119120139D01*
X101414500Y-120159861D01*
X101395593Y-120218052D01*
X101346093Y-120254016D01*
X101284907Y-120254016D01*
X101245498Y-120229866D01*
X101109655Y-120094023D01*
X101081935Y-120075501D01*
X100937597Y-119979058D01*
X100746418Y-119899869D01*
X100543467Y-119859500D01*
X100543465Y-119859500D01*
X100336535Y-119859500D01*
X100336532Y-119859500D01*
X100133581Y-119899869D01*
X99942402Y-119979058D01*
X99770348Y-120094020D01*
X99624020Y-120240348D01*
X99509058Y-120412402D01*
X99429869Y-120603581D01*
X99389500Y-120806532D01*
X99389500Y-121013467D01*
X99429869Y-121216418D01*
X99509058Y-121407597D01*
X99624020Y-121579651D01*
X99624023Y-121579655D01*
X99770345Y-121725977D01*
X99942402Y-121840941D01*
X100133580Y-121920130D01*
X100336535Y-121960500D01*
X100336536Y-121960500D01*
X100543464Y-121960500D01*
X100543465Y-121960500D01*
X100746420Y-121920130D01*
X100937598Y-121840941D01*
X101109655Y-121725977D01*
X101245498Y-121590133D01*
X101300013Y-121562358D01*
X101360445Y-121571929D01*
X101403710Y-121615194D01*
X101414500Y-121660139D01*
X101414500Y-124566073D01*
X101395593Y-124624264D01*
X101346093Y-124660228D01*
X101284907Y-124660228D01*
X101235407Y-124624264D01*
X101222056Y-124598771D01*
X101207072Y-124555950D01*
X101087683Y-124308036D01*
X101087676Y-124308024D01*
X100941269Y-124075018D01*
X100941267Y-124075015D01*
X100840232Y-123948321D01*
X100162659Y-124625893D01*
X100084136Y-124517816D01*
X99917184Y-124350864D01*
X99809103Y-124272339D01*
X100486677Y-123594766D01*
X100359984Y-123493732D01*
X100359981Y-123493730D01*
X100126975Y-123347323D01*
X100126963Y-123347316D01*
X99879048Y-123227927D01*
X99879049Y-123227927D01*
X99619319Y-123137043D01*
X99351036Y-123075810D01*
X99077597Y-123045001D01*
X99077579Y-123045000D01*
X98802421Y-123045000D01*
X98802402Y-123045001D01*
X98528963Y-123075810D01*
X98260680Y-123137043D01*
X98000950Y-123227927D01*
X97753036Y-123347316D01*
X97753024Y-123347323D01*
X97520021Y-123493728D01*
X97393321Y-123594766D01*
X98070895Y-124272340D01*
X97962816Y-124350864D01*
X97795864Y-124517816D01*
X97717340Y-124625895D01*
X97039766Y-123948321D01*
X96938728Y-124075021D01*
X96792323Y-124308024D01*
X96792316Y-124308036D01*
X96672927Y-124555950D01*
X96582043Y-124815680D01*
X96520810Y-125083963D01*
X96490001Y-125357402D01*
X96490000Y-125357421D01*
X96490000Y-125632579D01*
X96490001Y-125632597D01*
X96520810Y-125906036D01*
X96582043Y-126174319D01*
X96672927Y-126434049D01*
X96792316Y-126681963D01*
X96792323Y-126681975D01*
X96938730Y-126914981D01*
X96938732Y-126914984D01*
X97039766Y-127041677D01*
X97717339Y-126364103D01*
X97795864Y-126472184D01*
X97962816Y-126639136D01*
X98070893Y-126717659D01*
X97393321Y-127395232D01*
X97520015Y-127496267D01*
X97520018Y-127496269D01*
X97753024Y-127642676D01*
X97753036Y-127642683D01*
X98000951Y-127762072D01*
X98000950Y-127762072D01*
X98058060Y-127782056D01*
X98106740Y-127819121D01*
X98124337Y-127877722D01*
X98104129Y-127935473D01*
X98053834Y-127970317D01*
X98025362Y-127974500D01*
X65064638Y-127974500D01*
X65006447Y-127955593D01*
X64970483Y-127906093D01*
X64970483Y-127844907D01*
X65006447Y-127795407D01*
X65031940Y-127782056D01*
X65089049Y-127762072D01*
X65336963Y-127642683D01*
X65336975Y-127642676D01*
X65569978Y-127496271D01*
X65696677Y-127395232D01*
X65019105Y-126717659D01*
X65127184Y-126639136D01*
X65294136Y-126472184D01*
X65372659Y-126364104D01*
X66050232Y-127041677D01*
X66151271Y-126914978D01*
X66297676Y-126681975D01*
X66297683Y-126681963D01*
X66417072Y-126434049D01*
X66507956Y-126174319D01*
X66569189Y-125906036D01*
X66599998Y-125632597D01*
X66600000Y-125632579D01*
X66600000Y-125357421D01*
X66599998Y-125357402D01*
X66569189Y-125083963D01*
X66507956Y-124815680D01*
X66417072Y-124555950D01*
X66297683Y-124308036D01*
X66297676Y-124308024D01*
X66151269Y-124075018D01*
X66151267Y-124075015D01*
X66050232Y-123948321D01*
X65372659Y-124625893D01*
X65294136Y-124517816D01*
X65127184Y-124350864D01*
X65019103Y-124272339D01*
X65696677Y-123594766D01*
X65569984Y-123493732D01*
X65569981Y-123493730D01*
X65336975Y-123347323D01*
X65336963Y-123347316D01*
X65089048Y-123227927D01*
X65089049Y-123227927D01*
X64829319Y-123137043D01*
X64561036Y-123075810D01*
X64287597Y-123045001D01*
X64287579Y-123045000D01*
X64012421Y-123045000D01*
X64012402Y-123045001D01*
X63738963Y-123075810D01*
X63470680Y-123137043D01*
X63210950Y-123227927D01*
X62963036Y-123347316D01*
X62963024Y-123347323D01*
X62730021Y-123493728D01*
X62603321Y-123594766D01*
X63280895Y-124272340D01*
X63172816Y-124350864D01*
X63005864Y-124517816D01*
X62927340Y-124625894D01*
X62249766Y-123948321D01*
X62148728Y-124075021D01*
X62002323Y-124308024D01*
X62002316Y-124308036D01*
X61882927Y-124555950D01*
X61867944Y-124598771D01*
X61830879Y-124647451D01*
X61772278Y-124665048D01*
X61714527Y-124644840D01*
X61679683Y-124594545D01*
X61675500Y-124566073D01*
X61675500Y-121710139D01*
X61694407Y-121651948D01*
X61743907Y-121615984D01*
X61805093Y-121615984D01*
X61844501Y-121640133D01*
X61930345Y-121725977D01*
X62102402Y-121840941D01*
X62293580Y-121920130D01*
X62496535Y-121960500D01*
X62496536Y-121960500D01*
X62703464Y-121960500D01*
X62703465Y-121960500D01*
X62906420Y-121920130D01*
X63097598Y-121840941D01*
X63269655Y-121725977D01*
X63415977Y-121579655D01*
X63530941Y-121407598D01*
X63610130Y-121216420D01*
X63650500Y-121013465D01*
X63650500Y-120806535D01*
X63650499Y-120806532D01*
X64089500Y-120806532D01*
X64089500Y-121013467D01*
X64129869Y-121216418D01*
X64209058Y-121407597D01*
X64324020Y-121579651D01*
X64324023Y-121579655D01*
X64470345Y-121725977D01*
X64642402Y-121840941D01*
X64833580Y-121920130D01*
X65036535Y-121960500D01*
X65036536Y-121960500D01*
X65243464Y-121960500D01*
X65243465Y-121960500D01*
X65446420Y-121920130D01*
X65637598Y-121840941D01*
X65809655Y-121725977D01*
X65838359Y-121697273D01*
X85299500Y-121697273D01*
X85299500Y-121802727D01*
X85326793Y-121904587D01*
X85361237Y-121964245D01*
X85374500Y-122013745D01*
X85374500Y-123486253D01*
X85361237Y-123535752D01*
X85326794Y-123595410D01*
X85326793Y-123595412D01*
X85326793Y-123595413D01*
X85299500Y-123697273D01*
X85299500Y-123802727D01*
X85326793Y-123904587D01*
X85326794Y-123904589D01*
X85326794Y-123904590D01*
X85378993Y-123995000D01*
X85379520Y-123995913D01*
X85454087Y-124070480D01*
X85545413Y-124123207D01*
X85647273Y-124150500D01*
X85647275Y-124150500D01*
X85752725Y-124150500D01*
X85752727Y-124150500D01*
X85854587Y-124123207D01*
X85945913Y-124070480D01*
X86020480Y-123995913D01*
X86073207Y-123904587D01*
X86100500Y-123802727D01*
X86100500Y-123697273D01*
X86073207Y-123595413D01*
X86035583Y-123530246D01*
X86033129Y-123524361D01*
X86032006Y-123510537D01*
X86025500Y-123486253D01*
X86025500Y-122013745D01*
X86038763Y-121964245D01*
X86073207Y-121904587D01*
X86100500Y-121802727D01*
X86100500Y-121697273D01*
X86073207Y-121595413D01*
X86020480Y-121504087D01*
X85945913Y-121429520D01*
X85924638Y-121417237D01*
X85854589Y-121376794D01*
X85854588Y-121376793D01*
X85854587Y-121376793D01*
X85752727Y-121349500D01*
X85647273Y-121349500D01*
X85545413Y-121376793D01*
X85545412Y-121376793D01*
X85545410Y-121376794D01*
X85545409Y-121376794D01*
X85454089Y-121429518D01*
X85379518Y-121504089D01*
X85326794Y-121595409D01*
X85326794Y-121595410D01*
X85326793Y-121595412D01*
X85326793Y-121595413D01*
X85299500Y-121697273D01*
X65838359Y-121697273D01*
X65955977Y-121579655D01*
X66070941Y-121407598D01*
X66150130Y-121216420D01*
X66190500Y-121013465D01*
X66190500Y-120806535D01*
X66150130Y-120603580D01*
X66070941Y-120412402D01*
X65955977Y-120240345D01*
X65809655Y-120094023D01*
X65781935Y-120075501D01*
X65637597Y-119979058D01*
X65446418Y-119899869D01*
X65243467Y-119859500D01*
X65243465Y-119859500D01*
X65036535Y-119859500D01*
X65036532Y-119859500D01*
X64833581Y-119899869D01*
X64642402Y-119979058D01*
X64470348Y-120094020D01*
X64324020Y-120240348D01*
X64209058Y-120412402D01*
X64129869Y-120603581D01*
X64089500Y-120806532D01*
X63650499Y-120806532D01*
X63610130Y-120603580D01*
X63530941Y-120412402D01*
X63415977Y-120240345D01*
X63269655Y-120094023D01*
X63241935Y-120075501D01*
X63097597Y-119979058D01*
X62906418Y-119899869D01*
X62703467Y-119859500D01*
X62703465Y-119859500D01*
X62496535Y-119859500D01*
X62496532Y-119859500D01*
X62293581Y-119899869D01*
X62102402Y-119979058D01*
X61930348Y-120094020D01*
X61930345Y-120094022D01*
X61930345Y-120094023D01*
X61844501Y-120179866D01*
X61789987Y-120207642D01*
X61729555Y-120198071D01*
X61686290Y-120154806D01*
X61675500Y-120109861D01*
X61675500Y-119170139D01*
X61694407Y-119111948D01*
X61743907Y-119075984D01*
X61805093Y-119075984D01*
X61844501Y-119100133D01*
X61930345Y-119185977D01*
X62102402Y-119300941D01*
X62293580Y-119380130D01*
X62496535Y-119420500D01*
X62496536Y-119420500D01*
X62703464Y-119420500D01*
X62703465Y-119420500D01*
X62906420Y-119380130D01*
X63097598Y-119300941D01*
X63269655Y-119185977D01*
X63415977Y-119039655D01*
X63530941Y-118867598D01*
X63610130Y-118676420D01*
X63650500Y-118473465D01*
X63650500Y-118266535D01*
X63650499Y-118266532D01*
X64089500Y-118266532D01*
X64089500Y-118473467D01*
X64129869Y-118676418D01*
X64209058Y-118867597D01*
X64324020Y-119039651D01*
X64324023Y-119039655D01*
X64470345Y-119185977D01*
X64642402Y-119300941D01*
X64833580Y-119380130D01*
X65036535Y-119420500D01*
X65036536Y-119420500D01*
X65243464Y-119420500D01*
X65243465Y-119420500D01*
X65446420Y-119380130D01*
X65637598Y-119300941D01*
X65809655Y-119185977D01*
X65955977Y-119039655D01*
X66070941Y-118867598D01*
X66150130Y-118676420D01*
X66190500Y-118473465D01*
X66190500Y-118266535D01*
X66150130Y-118063580D01*
X66070941Y-117872402D01*
X65955977Y-117700345D01*
X65809655Y-117554023D01*
X65809651Y-117554020D01*
X65637597Y-117439058D01*
X65446418Y-117359869D01*
X65243467Y-117319500D01*
X65243465Y-117319500D01*
X65036535Y-117319500D01*
X65036532Y-117319500D01*
X64833581Y-117359869D01*
X64642402Y-117439058D01*
X64470348Y-117554020D01*
X64324020Y-117700348D01*
X64209058Y-117872402D01*
X64129869Y-118063581D01*
X64089500Y-118266532D01*
X63650499Y-118266532D01*
X63610130Y-118063580D01*
X63530941Y-117872402D01*
X63415977Y-117700345D01*
X63269655Y-117554023D01*
X63269651Y-117554020D01*
X63097597Y-117439058D01*
X62906418Y-117359869D01*
X62703467Y-117319500D01*
X62703465Y-117319500D01*
X62496535Y-117319500D01*
X62496532Y-117319500D01*
X62293581Y-117359869D01*
X62102402Y-117439058D01*
X61930348Y-117554020D01*
X61930345Y-117554022D01*
X61930345Y-117554023D01*
X61844501Y-117639866D01*
X61789987Y-117667642D01*
X61729555Y-117658071D01*
X61686290Y-117614806D01*
X61675500Y-117569861D01*
X61675500Y-116630139D01*
X61694407Y-116571948D01*
X61743907Y-116535984D01*
X61805093Y-116535984D01*
X61844501Y-116560133D01*
X61930345Y-116645977D01*
X62102402Y-116760941D01*
X62293580Y-116840130D01*
X62496535Y-116880500D01*
X62496536Y-116880500D01*
X62703464Y-116880500D01*
X62703465Y-116880500D01*
X62906420Y-116840130D01*
X63097598Y-116760941D01*
X63269655Y-116645977D01*
X63415977Y-116499655D01*
X63530941Y-116327598D01*
X63610130Y-116136420D01*
X63650500Y-115933465D01*
X63650500Y-115726535D01*
X63650499Y-115726532D01*
X64089500Y-115726532D01*
X64089500Y-115933467D01*
X64129869Y-116136418D01*
X64209058Y-116327597D01*
X64324020Y-116499651D01*
X64324023Y-116499655D01*
X64470345Y-116645977D01*
X64642402Y-116760941D01*
X64833580Y-116840130D01*
X65036535Y-116880500D01*
X65036536Y-116880500D01*
X65243464Y-116880500D01*
X65243465Y-116880500D01*
X65446420Y-116840130D01*
X65637598Y-116760941D01*
X65809655Y-116645977D01*
X65955977Y-116499655D01*
X66070941Y-116327598D01*
X66092067Y-116276593D01*
X66116913Y-116216614D01*
X66156650Y-116170088D01*
X66208377Y-116155500D01*
X70766355Y-116155500D01*
X70824546Y-116174407D01*
X70836359Y-116184496D01*
X72345504Y-117693640D01*
X72373281Y-117748157D01*
X72374500Y-117763644D01*
X72374500Y-119377593D01*
X72361237Y-119427092D01*
X72321793Y-119495411D01*
X72303597Y-119563319D01*
X72294500Y-119597273D01*
X72294500Y-119702727D01*
X72321793Y-119804587D01*
X72321794Y-119804589D01*
X72321794Y-119804590D01*
X72353497Y-119859500D01*
X72374520Y-119895913D01*
X72449087Y-119970480D01*
X72540413Y-120023207D01*
X72642273Y-120050500D01*
X72642275Y-120050500D01*
X72747725Y-120050500D01*
X72747727Y-120050500D01*
X72849587Y-120023207D01*
X72940913Y-119970480D01*
X73015480Y-119895913D01*
X73068207Y-119804587D01*
X73095500Y-119702727D01*
X73095500Y-119597273D01*
X73068207Y-119495413D01*
X73068205Y-119495410D01*
X73038763Y-119444413D01*
X73025500Y-119394914D01*
X73025500Y-117974835D01*
X73044407Y-117916644D01*
X73093907Y-117880680D01*
X73155093Y-117880680D01*
X73194504Y-117904831D01*
X73610504Y-118320831D01*
X73638281Y-118375348D01*
X73639500Y-118390835D01*
X73639500Y-119386253D01*
X73626237Y-119435752D01*
X73591794Y-119495410D01*
X73591794Y-119495411D01*
X73591793Y-119495413D01*
X73564500Y-119597273D01*
X73564500Y-119702727D01*
X73591793Y-119804587D01*
X73591794Y-119804589D01*
X73591794Y-119804590D01*
X73623497Y-119859500D01*
X73644520Y-119895913D01*
X73719087Y-119970480D01*
X73810413Y-120023207D01*
X73912273Y-120050500D01*
X73912275Y-120050500D01*
X74017725Y-120050500D01*
X74017727Y-120050500D01*
X74119587Y-120023207D01*
X74210913Y-119970480D01*
X74285480Y-119895913D01*
X74338207Y-119804587D01*
X74365500Y-119702727D01*
X74365500Y-119597273D01*
X74338207Y-119495413D01*
X74308763Y-119444413D01*
X74303763Y-119435752D01*
X74290500Y-119386253D01*
X74290500Y-118172148D01*
X74290500Y-118172147D01*
X74268318Y-118089362D01*
X74268318Y-118089361D01*
X74268318Y-118089360D01*
X74225468Y-118015142D01*
X74225466Y-118015140D01*
X74225465Y-118015138D01*
X71199862Y-114989535D01*
X71199859Y-114989533D01*
X71199857Y-114989531D01*
X71125642Y-114946683D01*
X71125644Y-114946683D01*
X71079461Y-114934309D01*
X71042853Y-114924500D01*
X71042851Y-114924500D01*
X67775833Y-114924500D01*
X67717642Y-114905593D01*
X67705829Y-114895503D01*
X67454496Y-114644169D01*
X67426719Y-114589653D01*
X67425500Y-114574166D01*
X67425500Y-80533745D01*
X67438763Y-80484245D01*
X67473207Y-80424587D01*
X67500500Y-80322727D01*
X67500500Y-80217273D01*
X67473207Y-80115413D01*
X67420480Y-80024087D01*
X67345913Y-79949520D01*
X67262743Y-79901502D01*
X67254589Y-79896794D01*
X67254588Y-79896793D01*
X67254587Y-79896793D01*
X67152727Y-79869500D01*
X67047273Y-79869500D01*
X66945413Y-79896793D01*
X66945412Y-79896793D01*
X66945410Y-79896794D01*
X66945409Y-79896794D01*
X66854089Y-79949518D01*
X66779518Y-80024089D01*
X66726794Y-80115409D01*
X66726794Y-80115410D01*
X66726793Y-80115412D01*
X66726793Y-80115413D01*
X66699500Y-80217273D01*
X66699500Y-80322727D01*
X66726793Y-80424587D01*
X66761237Y-80484245D01*
X66774500Y-80533745D01*
X66774500Y-114707147D01*
X66774500Y-114792853D01*
X66781739Y-114819869D01*
X66796683Y-114875643D01*
X66839531Y-114949857D01*
X66839533Y-114949859D01*
X66839535Y-114949862D01*
X67114839Y-115225165D01*
X67225170Y-115335496D01*
X67252947Y-115390013D01*
X67243376Y-115450445D01*
X67200111Y-115493710D01*
X67155166Y-115504500D01*
X66208377Y-115504500D01*
X66150186Y-115485593D01*
X66116913Y-115443386D01*
X66070941Y-115332402D01*
X65955979Y-115160348D01*
X65955977Y-115160345D01*
X65809655Y-115014023D01*
X65713631Y-114949862D01*
X65637597Y-114899058D01*
X65446418Y-114819869D01*
X65243467Y-114779500D01*
X65243465Y-114779500D01*
X65036535Y-114779500D01*
X65036532Y-114779500D01*
X64833581Y-114819869D01*
X64642402Y-114899058D01*
X64470348Y-115014020D01*
X64324020Y-115160348D01*
X64209058Y-115332402D01*
X64129869Y-115523581D01*
X64089500Y-115726532D01*
X63650499Y-115726532D01*
X63610130Y-115523580D01*
X63530941Y-115332402D01*
X63415977Y-115160345D01*
X63269655Y-115014023D01*
X63173631Y-114949862D01*
X63097597Y-114899058D01*
X62906418Y-114819869D01*
X62703467Y-114779500D01*
X62703465Y-114779500D01*
X62496535Y-114779500D01*
X62496532Y-114779500D01*
X62293581Y-114819869D01*
X62102402Y-114899058D01*
X61930348Y-115014020D01*
X61930345Y-115014022D01*
X61930345Y-115014023D01*
X61844501Y-115099866D01*
X61789987Y-115127642D01*
X61729555Y-115118071D01*
X61686290Y-115074806D01*
X61675500Y-115029861D01*
X61675500Y-114090139D01*
X61694407Y-114031948D01*
X61743907Y-113995984D01*
X61805093Y-113995984D01*
X61844501Y-114020133D01*
X61930345Y-114105977D01*
X62102402Y-114220941D01*
X62293580Y-114300130D01*
X62496535Y-114340500D01*
X62496536Y-114340500D01*
X62703464Y-114340500D01*
X62703465Y-114340500D01*
X62906420Y-114300130D01*
X63097598Y-114220941D01*
X63269655Y-114105977D01*
X63415977Y-113959655D01*
X63530941Y-113787598D01*
X63610130Y-113596420D01*
X63650500Y-113393465D01*
X63650500Y-113186535D01*
X63650499Y-113186532D01*
X64089500Y-113186532D01*
X64089500Y-113393467D01*
X64129869Y-113596418D01*
X64209058Y-113787597D01*
X64324020Y-113959651D01*
X64324023Y-113959655D01*
X64470345Y-114105977D01*
X64642402Y-114220941D01*
X64833580Y-114300130D01*
X65036535Y-114340500D01*
X65036536Y-114340500D01*
X65243464Y-114340500D01*
X65243465Y-114340500D01*
X65446420Y-114300130D01*
X65637598Y-114220941D01*
X65809655Y-114105977D01*
X65955977Y-113959655D01*
X66070941Y-113787598D01*
X66150130Y-113596420D01*
X66190500Y-113393465D01*
X66190500Y-113186535D01*
X66150130Y-112983580D01*
X66070941Y-112792402D01*
X65955977Y-112620345D01*
X65809655Y-112474023D01*
X65809651Y-112474020D01*
X65637597Y-112359058D01*
X65446418Y-112279869D01*
X65243467Y-112239500D01*
X65243465Y-112239500D01*
X65036535Y-112239500D01*
X65036532Y-112239500D01*
X64833581Y-112279869D01*
X64642402Y-112359058D01*
X64470348Y-112474020D01*
X64324020Y-112620348D01*
X64209058Y-112792402D01*
X64129869Y-112983581D01*
X64089500Y-113186532D01*
X63650499Y-113186532D01*
X63610130Y-112983580D01*
X63530941Y-112792402D01*
X63415977Y-112620345D01*
X63269655Y-112474023D01*
X63269651Y-112474020D01*
X63097597Y-112359058D01*
X62906418Y-112279869D01*
X62703467Y-112239500D01*
X62703465Y-112239500D01*
X62496535Y-112239500D01*
X62496532Y-112239500D01*
X62293581Y-112279869D01*
X62102402Y-112359058D01*
X61930348Y-112474020D01*
X61930345Y-112474022D01*
X61930345Y-112474023D01*
X61844501Y-112559866D01*
X61789987Y-112587642D01*
X61729555Y-112578071D01*
X61686290Y-112534806D01*
X61675500Y-112489861D01*
X61675500Y-111550139D01*
X61694407Y-111491948D01*
X61743907Y-111455984D01*
X61805093Y-111455984D01*
X61844501Y-111480133D01*
X61930345Y-111565977D01*
X62102402Y-111680941D01*
X62293580Y-111760130D01*
X62496535Y-111800500D01*
X62496536Y-111800500D01*
X62703464Y-111800500D01*
X62703465Y-111800500D01*
X62906420Y-111760130D01*
X63097598Y-111680941D01*
X63269655Y-111565977D01*
X63415977Y-111419655D01*
X63530941Y-111247598D01*
X63610130Y-111056420D01*
X63650500Y-110853465D01*
X63650500Y-110646535D01*
X63650499Y-110646532D01*
X64089500Y-110646532D01*
X64089500Y-110853467D01*
X64129869Y-111056418D01*
X64209058Y-111247597D01*
X64324020Y-111419651D01*
X64324023Y-111419655D01*
X64470345Y-111565977D01*
X64642402Y-111680941D01*
X64833580Y-111760130D01*
X65036535Y-111800500D01*
X65036536Y-111800500D01*
X65243464Y-111800500D01*
X65243465Y-111800500D01*
X65446420Y-111760130D01*
X65637598Y-111680941D01*
X65809655Y-111565977D01*
X65955977Y-111419655D01*
X66070941Y-111247598D01*
X66150130Y-111056420D01*
X66190500Y-110853465D01*
X66190500Y-110646535D01*
X66150130Y-110443580D01*
X66070941Y-110252402D01*
X65955977Y-110080345D01*
X65809655Y-109934023D01*
X65637598Y-109819059D01*
X65637599Y-109819059D01*
X65637597Y-109819058D01*
X65446418Y-109739869D01*
X65243467Y-109699500D01*
X65243465Y-109699500D01*
X65036535Y-109699500D01*
X65036532Y-109699500D01*
X64833581Y-109739869D01*
X64642402Y-109819058D01*
X64470348Y-109934020D01*
X64324020Y-110080348D01*
X64209058Y-110252402D01*
X64129869Y-110443581D01*
X64089500Y-110646532D01*
X63650499Y-110646532D01*
X63610130Y-110443580D01*
X63530941Y-110252402D01*
X63415977Y-110080345D01*
X63269655Y-109934023D01*
X63097598Y-109819059D01*
X63097599Y-109819059D01*
X63097597Y-109819058D01*
X62906418Y-109739869D01*
X62703467Y-109699500D01*
X62703465Y-109699500D01*
X62496535Y-109699500D01*
X62496532Y-109699500D01*
X62293581Y-109739869D01*
X62102402Y-109819058D01*
X61930348Y-109934020D01*
X61930345Y-109934022D01*
X61930345Y-109934023D01*
X61844501Y-110019866D01*
X61789987Y-110047642D01*
X61729555Y-110038071D01*
X61686290Y-109994806D01*
X61675500Y-109949861D01*
X61675500Y-109010139D01*
X61694407Y-108951948D01*
X61743907Y-108915984D01*
X61805093Y-108915984D01*
X61844501Y-108940133D01*
X61930345Y-109025977D01*
X62102402Y-109140941D01*
X62293580Y-109220130D01*
X62496535Y-109260500D01*
X62496536Y-109260500D01*
X62703464Y-109260500D01*
X62703465Y-109260500D01*
X62906420Y-109220130D01*
X63097598Y-109140941D01*
X63269655Y-109025977D01*
X63415977Y-108879655D01*
X63530941Y-108707598D01*
X63610130Y-108516420D01*
X63650500Y-108313465D01*
X63650500Y-108106535D01*
X63650499Y-108106532D01*
X64089500Y-108106532D01*
X64089500Y-108313467D01*
X64129869Y-108516418D01*
X64209058Y-108707597D01*
X64324020Y-108879651D01*
X64324023Y-108879655D01*
X64470345Y-109025977D01*
X64642402Y-109140941D01*
X64833580Y-109220130D01*
X65036535Y-109260500D01*
X65036536Y-109260500D01*
X65243464Y-109260500D01*
X65243465Y-109260500D01*
X65446420Y-109220130D01*
X65637598Y-109140941D01*
X65809655Y-109025977D01*
X65955977Y-108879655D01*
X66070941Y-108707598D01*
X66150130Y-108516420D01*
X66190500Y-108313465D01*
X66190500Y-108106535D01*
X66150130Y-107903580D01*
X66070941Y-107712402D01*
X65955977Y-107540345D01*
X65809655Y-107394023D01*
X65637598Y-107279059D01*
X65637599Y-107279059D01*
X65637597Y-107279058D01*
X65446418Y-107199869D01*
X65243467Y-107159500D01*
X65243465Y-107159500D01*
X65036535Y-107159500D01*
X65036532Y-107159500D01*
X64833581Y-107199869D01*
X64642402Y-107279058D01*
X64470348Y-107394020D01*
X64324020Y-107540348D01*
X64209058Y-107712402D01*
X64129869Y-107903581D01*
X64089500Y-108106532D01*
X63650499Y-108106532D01*
X63610130Y-107903580D01*
X63530941Y-107712402D01*
X63415977Y-107540345D01*
X63269655Y-107394023D01*
X63097598Y-107279059D01*
X63097599Y-107279059D01*
X63097597Y-107279058D01*
X62906418Y-107199869D01*
X62703467Y-107159500D01*
X62703465Y-107159500D01*
X62496535Y-107159500D01*
X62496532Y-107159500D01*
X62293581Y-107199869D01*
X62102402Y-107279058D01*
X61930348Y-107394020D01*
X61930345Y-107394022D01*
X61930345Y-107394023D01*
X61844501Y-107479866D01*
X61789987Y-107507642D01*
X61729555Y-107498071D01*
X61686290Y-107454806D01*
X61675500Y-107409861D01*
X61675500Y-106470139D01*
X61694407Y-106411948D01*
X61743907Y-106375984D01*
X61805093Y-106375984D01*
X61844501Y-106400133D01*
X61930345Y-106485977D01*
X62102402Y-106600941D01*
X62293580Y-106680130D01*
X62496535Y-106720500D01*
X62496536Y-106720500D01*
X62703464Y-106720500D01*
X62703465Y-106720500D01*
X62906420Y-106680130D01*
X63097598Y-106600941D01*
X63269655Y-106485977D01*
X63415977Y-106339655D01*
X63530941Y-106167598D01*
X63610130Y-105976420D01*
X63650500Y-105773465D01*
X63650500Y-105566535D01*
X63650499Y-105566532D01*
X64089500Y-105566532D01*
X64089500Y-105773467D01*
X64129869Y-105976418D01*
X64209058Y-106167597D01*
X64324020Y-106339651D01*
X64324023Y-106339655D01*
X64470345Y-106485977D01*
X64642402Y-106600941D01*
X64833580Y-106680130D01*
X65036535Y-106720500D01*
X65036536Y-106720500D01*
X65243464Y-106720500D01*
X65243465Y-106720500D01*
X65446420Y-106680130D01*
X65637598Y-106600941D01*
X65809655Y-106485977D01*
X65955977Y-106339655D01*
X66070941Y-106167598D01*
X66150130Y-105976420D01*
X66190500Y-105773465D01*
X66190500Y-105566535D01*
X66150130Y-105363580D01*
X66070941Y-105172402D01*
X65955977Y-105000345D01*
X65809655Y-104854023D01*
X65809651Y-104854020D01*
X65637597Y-104739058D01*
X65446418Y-104659869D01*
X65243467Y-104619500D01*
X65243465Y-104619500D01*
X65036535Y-104619500D01*
X65036532Y-104619500D01*
X64833581Y-104659869D01*
X64642402Y-104739058D01*
X64470348Y-104854020D01*
X64324020Y-105000348D01*
X64209058Y-105172402D01*
X64129869Y-105363581D01*
X64089500Y-105566532D01*
X63650499Y-105566532D01*
X63610130Y-105363580D01*
X63530941Y-105172402D01*
X63415977Y-105000345D01*
X63269655Y-104854023D01*
X63269651Y-104854020D01*
X63097597Y-104739058D01*
X62906418Y-104659869D01*
X62703467Y-104619500D01*
X62703465Y-104619500D01*
X62496535Y-104619500D01*
X62496532Y-104619500D01*
X62293581Y-104659869D01*
X62102402Y-104739058D01*
X61930348Y-104854020D01*
X61930345Y-104854022D01*
X61930345Y-104854023D01*
X61844501Y-104939866D01*
X61789987Y-104967642D01*
X61729555Y-104958071D01*
X61686290Y-104914806D01*
X61675500Y-104869861D01*
X61675500Y-103930139D01*
X61694407Y-103871948D01*
X61743907Y-103835984D01*
X61805093Y-103835984D01*
X61844501Y-103860133D01*
X61930345Y-103945977D01*
X62102402Y-104060941D01*
X62293580Y-104140130D01*
X62496535Y-104180500D01*
X62496536Y-104180500D01*
X62703464Y-104180500D01*
X62703465Y-104180500D01*
X62906420Y-104140130D01*
X63097598Y-104060941D01*
X63269655Y-103945977D01*
X63415977Y-103799655D01*
X63530941Y-103627598D01*
X63610130Y-103436420D01*
X63650500Y-103233465D01*
X63650500Y-103026535D01*
X63650499Y-103026532D01*
X64089500Y-103026532D01*
X64089500Y-103233467D01*
X64129869Y-103436418D01*
X64209058Y-103627597D01*
X64324020Y-103799651D01*
X64324023Y-103799655D01*
X64470345Y-103945977D01*
X64642402Y-104060941D01*
X64833580Y-104140130D01*
X65036535Y-104180500D01*
X65036536Y-104180500D01*
X65243464Y-104180500D01*
X65243465Y-104180500D01*
X65446420Y-104140130D01*
X65637598Y-104060941D01*
X65809655Y-103945977D01*
X65955977Y-103799655D01*
X66070941Y-103627598D01*
X66150130Y-103436420D01*
X66190500Y-103233465D01*
X66190500Y-103026535D01*
X66150130Y-102823580D01*
X66070941Y-102632402D01*
X65955977Y-102460345D01*
X65809655Y-102314023D01*
X65795533Y-102304587D01*
X65637597Y-102199058D01*
X65446418Y-102119869D01*
X65243467Y-102079500D01*
X65243465Y-102079500D01*
X65036535Y-102079500D01*
X65036532Y-102079500D01*
X64833581Y-102119869D01*
X64642402Y-102199058D01*
X64470348Y-102314020D01*
X64324020Y-102460348D01*
X64209058Y-102632402D01*
X64129869Y-102823581D01*
X64089500Y-103026532D01*
X63650499Y-103026532D01*
X63610130Y-102823580D01*
X63530941Y-102632402D01*
X63415977Y-102460345D01*
X63269655Y-102314023D01*
X63255533Y-102304587D01*
X63097597Y-102199058D01*
X62906418Y-102119869D01*
X62703467Y-102079500D01*
X62703465Y-102079500D01*
X62496535Y-102079500D01*
X62496532Y-102079500D01*
X62293581Y-102119869D01*
X62102402Y-102199058D01*
X61930348Y-102314020D01*
X61930345Y-102314022D01*
X61930345Y-102314023D01*
X61844501Y-102399866D01*
X61789987Y-102427642D01*
X61729555Y-102418071D01*
X61686290Y-102374806D01*
X61675500Y-102329861D01*
X61675500Y-101390139D01*
X61694407Y-101331948D01*
X61743907Y-101295984D01*
X61805093Y-101295984D01*
X61844501Y-101320133D01*
X61930345Y-101405977D01*
X62102402Y-101520941D01*
X62293580Y-101600130D01*
X62496535Y-101640500D01*
X62496536Y-101640500D01*
X62703464Y-101640500D01*
X62703465Y-101640500D01*
X62906420Y-101600130D01*
X63097598Y-101520941D01*
X63269655Y-101405977D01*
X63415977Y-101259655D01*
X63530941Y-101087598D01*
X63610130Y-100896420D01*
X63650500Y-100693465D01*
X63650500Y-100486535D01*
X63650499Y-100486532D01*
X64089500Y-100486532D01*
X64089500Y-100693467D01*
X64129869Y-100896418D01*
X64209058Y-101087597D01*
X64324020Y-101259651D01*
X64324023Y-101259655D01*
X64470345Y-101405977D01*
X64642402Y-101520941D01*
X64833580Y-101600130D01*
X65036535Y-101640500D01*
X65036536Y-101640500D01*
X65243464Y-101640500D01*
X65243465Y-101640500D01*
X65446420Y-101600130D01*
X65637598Y-101520941D01*
X65809655Y-101405977D01*
X65955977Y-101259655D01*
X66070941Y-101087598D01*
X66150130Y-100896420D01*
X66190500Y-100693465D01*
X66190500Y-100486535D01*
X66150130Y-100283580D01*
X66070941Y-100092402D01*
X65955977Y-99920345D01*
X65809655Y-99774023D01*
X65804815Y-99770789D01*
X65637597Y-99659058D01*
X65446418Y-99579869D01*
X65243467Y-99539500D01*
X65243465Y-99539500D01*
X65036535Y-99539500D01*
X65036532Y-99539500D01*
X64833581Y-99579869D01*
X64642402Y-99659058D01*
X64470348Y-99774020D01*
X64324020Y-99920348D01*
X64209058Y-100092402D01*
X64129869Y-100283581D01*
X64089500Y-100486532D01*
X63650499Y-100486532D01*
X63610130Y-100283580D01*
X63530941Y-100092402D01*
X63415977Y-99920345D01*
X63269655Y-99774023D01*
X63264815Y-99770789D01*
X63097597Y-99659058D01*
X62906418Y-99579869D01*
X62703467Y-99539500D01*
X62703465Y-99539500D01*
X62496535Y-99539500D01*
X62496532Y-99539500D01*
X62293581Y-99579869D01*
X62102402Y-99659058D01*
X61930348Y-99774020D01*
X61930345Y-99774022D01*
X61930345Y-99774023D01*
X61844501Y-99859866D01*
X61789987Y-99887642D01*
X61729555Y-99878071D01*
X61686290Y-99834806D01*
X61675500Y-99789861D01*
X61675500Y-98850139D01*
X61694407Y-98791948D01*
X61743907Y-98755984D01*
X61805093Y-98755984D01*
X61844501Y-98780133D01*
X61930345Y-98865977D01*
X62102402Y-98980941D01*
X62293580Y-99060130D01*
X62496535Y-99100500D01*
X62496536Y-99100500D01*
X62703464Y-99100500D01*
X62703465Y-99100500D01*
X62906420Y-99060130D01*
X63097598Y-98980941D01*
X63269655Y-98865977D01*
X63415977Y-98719655D01*
X63530941Y-98547598D01*
X63610130Y-98356420D01*
X63650500Y-98153465D01*
X63650500Y-97946535D01*
X63650499Y-97946532D01*
X64089500Y-97946532D01*
X64089500Y-98153467D01*
X64129869Y-98356418D01*
X64209058Y-98547597D01*
X64324020Y-98719651D01*
X64324023Y-98719655D01*
X64470345Y-98865977D01*
X64642402Y-98980941D01*
X64833580Y-99060130D01*
X65036535Y-99100500D01*
X65036536Y-99100500D01*
X65243464Y-99100500D01*
X65243465Y-99100500D01*
X65446420Y-99060130D01*
X65637598Y-98980941D01*
X65809655Y-98865977D01*
X65955977Y-98719655D01*
X66070941Y-98547598D01*
X66150130Y-98356420D01*
X66190500Y-98153465D01*
X66190500Y-97946535D01*
X66150130Y-97743580D01*
X66070941Y-97552402D01*
X65955977Y-97380345D01*
X65809655Y-97234023D01*
X65809651Y-97234020D01*
X65637597Y-97119058D01*
X65446418Y-97039869D01*
X65243467Y-96999500D01*
X65243465Y-96999500D01*
X65036535Y-96999500D01*
X65036532Y-96999500D01*
X64833581Y-97039869D01*
X64642402Y-97119058D01*
X64470348Y-97234020D01*
X64324020Y-97380348D01*
X64209058Y-97552402D01*
X64129869Y-97743581D01*
X64089500Y-97946532D01*
X63650499Y-97946532D01*
X63610130Y-97743580D01*
X63530941Y-97552402D01*
X63415977Y-97380345D01*
X63269655Y-97234023D01*
X63269651Y-97234020D01*
X63097597Y-97119058D01*
X62906418Y-97039869D01*
X62703467Y-96999500D01*
X62703465Y-96999500D01*
X62496535Y-96999500D01*
X62496532Y-96999500D01*
X62293581Y-97039869D01*
X62102402Y-97119058D01*
X61930348Y-97234020D01*
X61930345Y-97234022D01*
X61930345Y-97234023D01*
X61844501Y-97319866D01*
X61789987Y-97347642D01*
X61729555Y-97338071D01*
X61686290Y-97294806D01*
X61675500Y-97249861D01*
X61675500Y-96310139D01*
X61694407Y-96251948D01*
X61743907Y-96215984D01*
X61805093Y-96215984D01*
X61844501Y-96240133D01*
X61930345Y-96325977D01*
X62102402Y-96440941D01*
X62293580Y-96520130D01*
X62496535Y-96560500D01*
X62496536Y-96560500D01*
X62703464Y-96560500D01*
X62703465Y-96560500D01*
X62906420Y-96520130D01*
X63097598Y-96440941D01*
X63269655Y-96325977D01*
X63415977Y-96179655D01*
X63530941Y-96007598D01*
X63610130Y-95816420D01*
X63650500Y-95613465D01*
X63650500Y-95406535D01*
X63650499Y-95406532D01*
X64089500Y-95406532D01*
X64089500Y-95613467D01*
X64129869Y-95816418D01*
X64209058Y-96007597D01*
X64321189Y-96175414D01*
X64324023Y-96179655D01*
X64470345Y-96325977D01*
X64642402Y-96440941D01*
X64833580Y-96520130D01*
X65036535Y-96560500D01*
X65036536Y-96560500D01*
X65243464Y-96560500D01*
X65243465Y-96560500D01*
X65446420Y-96520130D01*
X65637598Y-96440941D01*
X65809655Y-96325977D01*
X65955977Y-96179655D01*
X66070941Y-96007598D01*
X66150130Y-95816420D01*
X66190500Y-95613465D01*
X66190500Y-95406535D01*
X66150130Y-95203580D01*
X66070941Y-95012402D01*
X65955977Y-94840345D01*
X65809655Y-94694023D01*
X65809651Y-94694020D01*
X65637597Y-94579058D01*
X65446418Y-94499869D01*
X65243467Y-94459500D01*
X65243465Y-94459500D01*
X65036535Y-94459500D01*
X65036532Y-94459500D01*
X64833581Y-94499869D01*
X64642402Y-94579058D01*
X64470348Y-94694020D01*
X64324020Y-94840348D01*
X64209058Y-95012402D01*
X64129869Y-95203581D01*
X64089500Y-95406532D01*
X63650499Y-95406532D01*
X63610130Y-95203580D01*
X63530941Y-95012402D01*
X63415977Y-94840345D01*
X63269655Y-94694023D01*
X63269651Y-94694020D01*
X63097597Y-94579058D01*
X62906418Y-94499869D01*
X62703467Y-94459500D01*
X62703465Y-94459500D01*
X62496535Y-94459500D01*
X62496532Y-94459500D01*
X62293581Y-94499869D01*
X62102402Y-94579058D01*
X61930348Y-94694020D01*
X61930345Y-94694022D01*
X61930345Y-94694023D01*
X61844501Y-94779866D01*
X61789987Y-94807642D01*
X61729555Y-94798071D01*
X61686290Y-94754806D01*
X61675500Y-94709861D01*
X61675500Y-93770139D01*
X61694407Y-93711948D01*
X61743907Y-93675984D01*
X61805093Y-93675984D01*
X61844501Y-93700133D01*
X61930345Y-93785977D01*
X62102402Y-93900941D01*
X62293580Y-93980130D01*
X62496535Y-94020500D01*
X62496536Y-94020500D01*
X62703464Y-94020500D01*
X62703465Y-94020500D01*
X62906420Y-93980130D01*
X63097598Y-93900941D01*
X63269655Y-93785977D01*
X63415977Y-93639655D01*
X63530941Y-93467598D01*
X63610130Y-93276420D01*
X63650500Y-93073465D01*
X63650500Y-92866535D01*
X63650499Y-92866532D01*
X64089500Y-92866532D01*
X64089500Y-93073467D01*
X64129869Y-93276418D01*
X64209058Y-93467597D01*
X64320898Y-93634978D01*
X64324023Y-93639655D01*
X64470345Y-93785977D01*
X64642402Y-93900941D01*
X64833580Y-93980130D01*
X65036535Y-94020500D01*
X65036536Y-94020500D01*
X65243464Y-94020500D01*
X65243465Y-94020500D01*
X65446420Y-93980130D01*
X65637598Y-93900941D01*
X65809655Y-93785977D01*
X65955977Y-93639655D01*
X66070941Y-93467598D01*
X66150130Y-93276420D01*
X66190500Y-93073465D01*
X66190500Y-92866535D01*
X66150130Y-92663580D01*
X66070941Y-92472402D01*
X65955977Y-92300345D01*
X65809655Y-92154023D01*
X65800948Y-92148205D01*
X65637597Y-92039058D01*
X65446418Y-91959869D01*
X65243467Y-91919500D01*
X65243465Y-91919500D01*
X65036535Y-91919500D01*
X65036532Y-91919500D01*
X64833581Y-91959869D01*
X64642402Y-92039058D01*
X64470348Y-92154020D01*
X64324020Y-92300348D01*
X64209058Y-92472402D01*
X64129869Y-92663581D01*
X64089500Y-92866532D01*
X63650499Y-92866532D01*
X63610130Y-92663580D01*
X63530941Y-92472402D01*
X63415977Y-92300345D01*
X63269655Y-92154023D01*
X63260948Y-92148205D01*
X63097597Y-92039058D01*
X62906418Y-91959869D01*
X62703467Y-91919500D01*
X62703465Y-91919500D01*
X62496535Y-91919500D01*
X62496532Y-91919500D01*
X62293581Y-91959869D01*
X62102402Y-92039058D01*
X61930348Y-92154020D01*
X61930345Y-92154022D01*
X61930345Y-92154023D01*
X61844501Y-92239866D01*
X61789987Y-92267642D01*
X61729555Y-92258071D01*
X61686290Y-92214806D01*
X61675500Y-92169861D01*
X61675500Y-91230139D01*
X61694407Y-91171948D01*
X61743907Y-91135984D01*
X61805093Y-91135984D01*
X61844501Y-91160133D01*
X61930345Y-91245977D01*
X62102402Y-91360941D01*
X62293580Y-91440130D01*
X62496535Y-91480500D01*
X62496536Y-91480500D01*
X62703464Y-91480500D01*
X62703465Y-91480500D01*
X62906420Y-91440130D01*
X63097598Y-91360941D01*
X63269655Y-91245977D01*
X63415977Y-91099655D01*
X63530941Y-90927598D01*
X63610130Y-90736420D01*
X63650500Y-90533465D01*
X63650500Y-90326535D01*
X63650499Y-90326532D01*
X64089500Y-90326532D01*
X64089500Y-90533467D01*
X64129869Y-90736418D01*
X64209058Y-90927597D01*
X64319478Y-91092853D01*
X64324023Y-91099655D01*
X64470345Y-91245977D01*
X64642402Y-91360941D01*
X64833580Y-91440130D01*
X65036535Y-91480500D01*
X65036536Y-91480500D01*
X65243464Y-91480500D01*
X65243465Y-91480500D01*
X65446420Y-91440130D01*
X65637598Y-91360941D01*
X65809655Y-91245977D01*
X65955977Y-91099655D01*
X66070941Y-90927598D01*
X66150130Y-90736420D01*
X66190500Y-90533465D01*
X66190500Y-90326535D01*
X66150130Y-90123580D01*
X66070941Y-89932402D01*
X65955977Y-89760345D01*
X65809655Y-89614023D01*
X65794785Y-89604087D01*
X65637597Y-89499058D01*
X65446418Y-89419869D01*
X65243467Y-89379500D01*
X65243465Y-89379500D01*
X65036535Y-89379500D01*
X65036532Y-89379500D01*
X64833581Y-89419869D01*
X64642402Y-89499058D01*
X64470348Y-89614020D01*
X64324020Y-89760348D01*
X64209058Y-89932402D01*
X64129869Y-90123581D01*
X64089500Y-90326532D01*
X63650499Y-90326532D01*
X63610130Y-90123580D01*
X63530941Y-89932402D01*
X63415977Y-89760345D01*
X63269655Y-89614023D01*
X63254785Y-89604087D01*
X63097597Y-89499058D01*
X62906418Y-89419869D01*
X62703467Y-89379500D01*
X62703465Y-89379500D01*
X62496535Y-89379500D01*
X62496532Y-89379500D01*
X62293581Y-89419869D01*
X62102402Y-89499058D01*
X61930348Y-89614020D01*
X61930345Y-89614022D01*
X61930345Y-89614023D01*
X61844501Y-89699866D01*
X61789987Y-89727642D01*
X61729555Y-89718071D01*
X61686290Y-89674806D01*
X61675500Y-89629861D01*
X61675500Y-88690139D01*
X61694407Y-88631948D01*
X61743907Y-88595984D01*
X61805093Y-88595984D01*
X61844501Y-88620133D01*
X61930345Y-88705977D01*
X62102402Y-88820941D01*
X62293580Y-88900130D01*
X62496535Y-88940500D01*
X62496536Y-88940500D01*
X62703464Y-88940500D01*
X62703465Y-88940500D01*
X62906420Y-88900130D01*
X63097598Y-88820941D01*
X63269655Y-88705977D01*
X63415977Y-88559655D01*
X63530941Y-88387598D01*
X63610130Y-88196420D01*
X63650500Y-87993465D01*
X63650500Y-87786535D01*
X63650499Y-87786532D01*
X64089500Y-87786532D01*
X64089500Y-87993467D01*
X64129869Y-88196418D01*
X64209058Y-88387597D01*
X64324020Y-88559651D01*
X64324023Y-88559655D01*
X64470345Y-88705977D01*
X64642402Y-88820941D01*
X64833580Y-88900130D01*
X65036535Y-88940500D01*
X65036536Y-88940500D01*
X65243464Y-88940500D01*
X65243465Y-88940500D01*
X65446420Y-88900130D01*
X65637598Y-88820941D01*
X65809655Y-88705977D01*
X65955977Y-88559655D01*
X66070941Y-88387598D01*
X66150130Y-88196420D01*
X66190500Y-87993465D01*
X66190500Y-87786535D01*
X66150130Y-87583580D01*
X66070941Y-87392402D01*
X65955977Y-87220345D01*
X65809655Y-87074023D01*
X65637598Y-86959059D01*
X65637599Y-86959059D01*
X65637597Y-86959058D01*
X65446418Y-86879869D01*
X65243467Y-86839500D01*
X65243465Y-86839500D01*
X65036535Y-86839500D01*
X65036532Y-86839500D01*
X64833581Y-86879869D01*
X64642402Y-86959058D01*
X64470348Y-87074020D01*
X64324020Y-87220348D01*
X64209058Y-87392402D01*
X64129869Y-87583581D01*
X64089500Y-87786532D01*
X63650499Y-87786532D01*
X63610130Y-87583580D01*
X63530941Y-87392402D01*
X63415977Y-87220345D01*
X63269655Y-87074023D01*
X63097598Y-86959059D01*
X63097599Y-86959059D01*
X63097597Y-86959058D01*
X62906418Y-86879869D01*
X62703467Y-86839500D01*
X62703465Y-86839500D01*
X62496535Y-86839500D01*
X62496532Y-86839500D01*
X62293581Y-86879869D01*
X62102402Y-86959058D01*
X61930348Y-87074020D01*
X61930345Y-87074022D01*
X61930345Y-87074023D01*
X61844501Y-87159866D01*
X61789987Y-87187642D01*
X61729555Y-87178071D01*
X61686290Y-87134806D01*
X61675500Y-87089861D01*
X61675500Y-86150139D01*
X61694407Y-86091948D01*
X61743907Y-86055984D01*
X61805093Y-86055984D01*
X61844501Y-86080133D01*
X61930345Y-86165977D01*
X62102402Y-86280941D01*
X62293580Y-86360130D01*
X62496535Y-86400500D01*
X62496536Y-86400500D01*
X62703464Y-86400500D01*
X62703465Y-86400500D01*
X62906420Y-86360130D01*
X63097598Y-86280941D01*
X63269655Y-86165977D01*
X63415977Y-86019655D01*
X63530941Y-85847598D01*
X63610130Y-85656420D01*
X63650500Y-85453465D01*
X63650500Y-85246535D01*
X63650499Y-85246532D01*
X64089500Y-85246532D01*
X64089500Y-85453467D01*
X64129869Y-85656418D01*
X64209058Y-85847597D01*
X64324020Y-86019651D01*
X64324023Y-86019655D01*
X64470345Y-86165977D01*
X64642402Y-86280941D01*
X64833580Y-86360130D01*
X65036535Y-86400500D01*
X65036536Y-86400500D01*
X65243464Y-86400500D01*
X65243465Y-86400500D01*
X65446420Y-86360130D01*
X65637598Y-86280941D01*
X65809655Y-86165977D01*
X65955977Y-86019655D01*
X66070941Y-85847598D01*
X66150130Y-85656420D01*
X66190500Y-85453465D01*
X66190500Y-85246535D01*
X66150130Y-85043580D01*
X66070941Y-84852402D01*
X65955977Y-84680345D01*
X65809655Y-84534023D01*
X65809651Y-84534020D01*
X65637597Y-84419058D01*
X65446418Y-84339869D01*
X65243467Y-84299500D01*
X65243465Y-84299500D01*
X65036535Y-84299500D01*
X65036532Y-84299500D01*
X64833581Y-84339869D01*
X64642402Y-84419058D01*
X64470348Y-84534020D01*
X64324020Y-84680348D01*
X64209058Y-84852402D01*
X64129869Y-85043581D01*
X64089500Y-85246532D01*
X63650499Y-85246532D01*
X63610130Y-85043580D01*
X63530941Y-84852402D01*
X63415977Y-84680345D01*
X63269655Y-84534023D01*
X63269651Y-84534020D01*
X63097597Y-84419058D01*
X62906418Y-84339869D01*
X62703467Y-84299500D01*
X62703465Y-84299500D01*
X62496535Y-84299500D01*
X62496532Y-84299500D01*
X62293581Y-84339869D01*
X62102402Y-84419058D01*
X61930348Y-84534020D01*
X61930345Y-84534022D01*
X61930345Y-84534023D01*
X61844501Y-84619866D01*
X61789987Y-84647642D01*
X61729555Y-84638071D01*
X61686290Y-84594806D01*
X61675500Y-84549861D01*
X61675500Y-83610139D01*
X61694407Y-83551948D01*
X61743907Y-83515984D01*
X61805093Y-83515984D01*
X61844501Y-83540133D01*
X61930345Y-83625977D01*
X62102402Y-83740941D01*
X62293580Y-83820130D01*
X62496535Y-83860500D01*
X62496536Y-83860500D01*
X62703464Y-83860500D01*
X62703465Y-83860500D01*
X62906420Y-83820130D01*
X63097598Y-83740941D01*
X63269655Y-83625977D01*
X63415977Y-83479655D01*
X63530941Y-83307598D01*
X63610130Y-83116420D01*
X63650500Y-82913465D01*
X63650500Y-82706535D01*
X63650499Y-82706532D01*
X64089500Y-82706532D01*
X64089500Y-82913467D01*
X64129869Y-83116418D01*
X64209058Y-83307597D01*
X64324020Y-83479651D01*
X64324023Y-83479655D01*
X64470345Y-83625977D01*
X64642402Y-83740941D01*
X64833580Y-83820130D01*
X65036535Y-83860500D01*
X65036536Y-83860500D01*
X65243464Y-83860500D01*
X65243465Y-83860500D01*
X65446420Y-83820130D01*
X65637598Y-83740941D01*
X65809655Y-83625977D01*
X65955977Y-83479655D01*
X66070941Y-83307598D01*
X66150130Y-83116420D01*
X66190500Y-82913465D01*
X66190500Y-82706535D01*
X66150130Y-82503580D01*
X66070941Y-82312402D01*
X65955977Y-82140345D01*
X65809655Y-81994023D01*
X65809651Y-81994020D01*
X65637597Y-81879058D01*
X65446418Y-81799869D01*
X65243467Y-81759500D01*
X65243465Y-81759500D01*
X65036535Y-81759500D01*
X65036532Y-81759500D01*
X64833581Y-81799869D01*
X64642402Y-81879058D01*
X64470348Y-81994020D01*
X64324020Y-82140348D01*
X64209058Y-82312402D01*
X64129869Y-82503581D01*
X64089500Y-82706532D01*
X63650499Y-82706532D01*
X63610130Y-82503580D01*
X63530941Y-82312402D01*
X63415977Y-82140345D01*
X63269655Y-81994023D01*
X63269651Y-81994020D01*
X63097597Y-81879058D01*
X62906418Y-81799869D01*
X62703467Y-81759500D01*
X62703465Y-81759500D01*
X62496535Y-81759500D01*
X62496532Y-81759500D01*
X62293581Y-81799869D01*
X62102402Y-81879058D01*
X61930348Y-81994020D01*
X61930345Y-81994022D01*
X61930345Y-81994023D01*
X61844501Y-82079866D01*
X61789987Y-82107642D01*
X61729555Y-82098071D01*
X61686290Y-82054806D01*
X61675500Y-82009861D01*
X61675500Y-81070139D01*
X61694407Y-81011948D01*
X61743907Y-80975984D01*
X61805093Y-80975984D01*
X61844501Y-81000133D01*
X61930345Y-81085977D01*
X62102402Y-81200941D01*
X62293580Y-81280130D01*
X62496535Y-81320500D01*
X62496536Y-81320500D01*
X62703464Y-81320500D01*
X62703465Y-81320500D01*
X62906420Y-81280130D01*
X63097598Y-81200941D01*
X63269655Y-81085977D01*
X63415977Y-80939655D01*
X63530941Y-80767598D01*
X63610130Y-80576420D01*
X63650500Y-80373465D01*
X63650500Y-80166535D01*
X63650499Y-80166532D01*
X64089500Y-80166532D01*
X64089500Y-80373467D01*
X64129869Y-80576418D01*
X64209058Y-80767597D01*
X64324020Y-80939651D01*
X64324023Y-80939655D01*
X64470345Y-81085977D01*
X64642402Y-81200941D01*
X64833580Y-81280130D01*
X65036535Y-81320500D01*
X65036536Y-81320500D01*
X65243464Y-81320500D01*
X65243465Y-81320500D01*
X65446420Y-81280130D01*
X65637598Y-81200941D01*
X65809655Y-81085977D01*
X65955977Y-80939655D01*
X66070941Y-80767598D01*
X66150130Y-80576420D01*
X66190500Y-80373465D01*
X66190500Y-80166535D01*
X66150130Y-79963580D01*
X66070941Y-79772402D01*
X65955977Y-79600345D01*
X65809655Y-79454023D01*
X65809651Y-79454020D01*
X65637597Y-79339058D01*
X65446418Y-79259869D01*
X65243467Y-79219500D01*
X65243465Y-79219500D01*
X65036535Y-79219500D01*
X65036532Y-79219500D01*
X64833581Y-79259869D01*
X64642402Y-79339058D01*
X64470348Y-79454020D01*
X64324020Y-79600348D01*
X64209058Y-79772402D01*
X64129869Y-79963581D01*
X64089500Y-80166532D01*
X63650499Y-80166532D01*
X63610130Y-79963580D01*
X63530941Y-79772402D01*
X63415977Y-79600345D01*
X63269655Y-79454023D01*
X63269651Y-79454020D01*
X63097597Y-79339058D01*
X62906418Y-79259869D01*
X62703467Y-79219500D01*
X62703465Y-79219500D01*
X62496535Y-79219500D01*
X62496532Y-79219500D01*
X62293581Y-79259869D01*
X62102402Y-79339058D01*
X61930348Y-79454020D01*
X61930345Y-79454022D01*
X61930345Y-79454023D01*
X61844501Y-79539866D01*
X61789987Y-79567642D01*
X61729555Y-79558071D01*
X61686290Y-79514806D01*
X61675500Y-79469861D01*
X61675500Y-78530139D01*
X61694407Y-78471948D01*
X61743907Y-78435984D01*
X61805093Y-78435984D01*
X61844501Y-78460133D01*
X61930345Y-78545977D01*
X62102402Y-78660941D01*
X62293580Y-78740130D01*
X62496535Y-78780500D01*
X62496536Y-78780500D01*
X62703464Y-78780500D01*
X62703465Y-78780500D01*
X62906420Y-78740130D01*
X63097598Y-78660941D01*
X63269655Y-78545977D01*
X63415977Y-78399655D01*
X63530941Y-78227598D01*
X63610130Y-78036420D01*
X63650500Y-77833465D01*
X63650500Y-77626535D01*
X63650499Y-77626532D01*
X64089500Y-77626532D01*
X64089500Y-77833467D01*
X64129869Y-78036418D01*
X64209058Y-78227597D01*
X64324020Y-78399651D01*
X64324023Y-78399655D01*
X64470345Y-78545977D01*
X64642402Y-78660941D01*
X64833580Y-78740130D01*
X65036535Y-78780500D01*
X65036536Y-78780500D01*
X65243464Y-78780500D01*
X65243465Y-78780500D01*
X65446420Y-78740130D01*
X65637598Y-78660941D01*
X65809655Y-78545977D01*
X65955977Y-78399655D01*
X66070941Y-78227598D01*
X66150130Y-78036420D01*
X66190500Y-77833465D01*
X66190500Y-77626535D01*
X66150130Y-77423580D01*
X66070941Y-77232402D01*
X65955977Y-77060345D01*
X65809655Y-76914023D01*
X65637598Y-76799059D01*
X65637599Y-76799059D01*
X65637597Y-76799058D01*
X65446418Y-76719869D01*
X65243467Y-76679500D01*
X65243465Y-76679500D01*
X65036535Y-76679500D01*
X65036532Y-76679500D01*
X64833581Y-76719869D01*
X64642402Y-76799058D01*
X64470348Y-76914020D01*
X64324020Y-77060348D01*
X64209058Y-77232402D01*
X64129869Y-77423581D01*
X64089500Y-77626532D01*
X63650499Y-77626532D01*
X63610130Y-77423580D01*
X63530941Y-77232402D01*
X63415977Y-77060345D01*
X63269655Y-76914023D01*
X63097598Y-76799059D01*
X63097599Y-76799059D01*
X63097597Y-76799058D01*
X62906418Y-76719869D01*
X62703467Y-76679500D01*
X62703465Y-76679500D01*
X62496535Y-76679500D01*
X62496532Y-76679500D01*
X62293581Y-76719869D01*
X62102402Y-76799058D01*
X61930348Y-76914020D01*
X61930345Y-76914022D01*
X61930345Y-76914023D01*
X61844501Y-76999866D01*
X61789987Y-77027642D01*
X61729555Y-77018071D01*
X61686290Y-76974806D01*
X61675500Y-76929861D01*
X61675500Y-75990139D01*
X61694407Y-75931948D01*
X61743907Y-75895984D01*
X61805093Y-75895984D01*
X61844501Y-75920133D01*
X61930345Y-76005977D01*
X62102402Y-76120941D01*
X62293580Y-76200130D01*
X62496535Y-76240500D01*
X62496536Y-76240500D01*
X62703464Y-76240500D01*
X62703465Y-76240500D01*
X62906420Y-76200130D01*
X63097598Y-76120941D01*
X63269655Y-76005977D01*
X63415977Y-75859655D01*
X63530941Y-75687598D01*
X63610130Y-75496420D01*
X63650500Y-75293465D01*
X63650500Y-75086535D01*
X63650499Y-75086532D01*
X64089500Y-75086532D01*
X64089500Y-75293467D01*
X64129869Y-75496418D01*
X64209058Y-75687597D01*
X64324020Y-75859651D01*
X64324023Y-75859655D01*
X64470345Y-76005977D01*
X64642402Y-76120941D01*
X64833580Y-76200130D01*
X65036535Y-76240500D01*
X65036536Y-76240500D01*
X65243464Y-76240500D01*
X65243465Y-76240500D01*
X65446420Y-76200130D01*
X65637598Y-76120941D01*
X65809655Y-76005977D01*
X65955977Y-75859655D01*
X66070941Y-75687598D01*
X66150130Y-75496420D01*
X66190500Y-75293465D01*
X66190500Y-75086535D01*
X66150130Y-74883580D01*
X66070941Y-74692402D01*
X65955977Y-74520345D01*
X65809655Y-74374023D01*
X65809651Y-74374020D01*
X65637597Y-74259058D01*
X65446418Y-74179869D01*
X65243467Y-74139500D01*
X65243465Y-74139500D01*
X65036535Y-74139500D01*
X65036532Y-74139500D01*
X64833581Y-74179869D01*
X64642402Y-74259058D01*
X64470348Y-74374020D01*
X64324020Y-74520348D01*
X64209058Y-74692402D01*
X64129869Y-74883581D01*
X64089500Y-75086532D01*
X63650499Y-75086532D01*
X63610130Y-74883580D01*
X63530941Y-74692402D01*
X63415977Y-74520345D01*
X63269655Y-74374023D01*
X63269651Y-74374020D01*
X63097597Y-74259058D01*
X62906418Y-74179869D01*
X62703467Y-74139500D01*
X62703465Y-74139500D01*
X62496535Y-74139500D01*
X62496532Y-74139500D01*
X62293581Y-74179869D01*
X62102402Y-74259058D01*
X61930348Y-74374020D01*
X61930345Y-74374022D01*
X61930345Y-74374023D01*
X61844501Y-74459866D01*
X61789987Y-74487642D01*
X61729555Y-74478071D01*
X61686290Y-74434806D01*
X61675500Y-74389861D01*
X61675500Y-73449432D01*
X61694407Y-73391241D01*
X61743907Y-73355277D01*
X61805093Y-73355277D01*
X61844504Y-73379428D01*
X61930670Y-73465594D01*
X62102625Y-73580491D01*
X62102639Y-73580498D01*
X62293723Y-73659648D01*
X62293730Y-73659650D01*
X62350000Y-73670842D01*
X62350000Y-73083012D01*
X62407007Y-73115925D01*
X62534174Y-73150000D01*
X62665826Y-73150000D01*
X62792993Y-73115925D01*
X62850000Y-73083012D01*
X62850000Y-73670841D01*
X62906269Y-73659650D01*
X62906276Y-73659648D01*
X63097360Y-73580498D01*
X63097374Y-73580491D01*
X63269329Y-73465594D01*
X63415594Y-73319329D01*
X63530491Y-73147374D01*
X63530498Y-73147360D01*
X63609648Y-72956276D01*
X63609650Y-72956269D01*
X63620843Y-72900000D01*
X63033012Y-72900000D01*
X63065925Y-72842993D01*
X63100000Y-72715826D01*
X63100000Y-72584174D01*
X63065925Y-72457007D01*
X63033012Y-72400000D01*
X63620842Y-72400000D01*
X64119157Y-72400000D01*
X64706988Y-72400000D01*
X64674075Y-72457007D01*
X64640000Y-72584174D01*
X64640000Y-72715826D01*
X64674075Y-72842993D01*
X64706988Y-72900000D01*
X64119157Y-72900000D01*
X64130349Y-72956269D01*
X64130351Y-72956276D01*
X64209501Y-73147360D01*
X64209508Y-73147374D01*
X64324405Y-73319329D01*
X64470670Y-73465594D01*
X64642625Y-73580491D01*
X64642639Y-73580498D01*
X64833723Y-73659648D01*
X64833730Y-73659650D01*
X64890000Y-73670842D01*
X64890000Y-73083012D01*
X64947007Y-73115925D01*
X65074174Y-73150000D01*
X65205826Y-73150000D01*
X65332993Y-73115925D01*
X65390000Y-73083012D01*
X65390000Y-73670841D01*
X65446269Y-73659650D01*
X65446276Y-73659648D01*
X65637360Y-73580498D01*
X65637374Y-73580491D01*
X65809329Y-73465594D01*
X65955594Y-73319329D01*
X66070491Y-73147374D01*
X66070498Y-73147360D01*
X66149648Y-72956276D01*
X66149650Y-72956269D01*
X66160843Y-72900000D01*
X65573012Y-72900000D01*
X65605925Y-72842993D01*
X65640000Y-72715826D01*
X65640000Y-72584174D01*
X65605925Y-72457007D01*
X65573012Y-72400000D01*
X66160842Y-72400000D01*
X66149650Y-72343730D01*
X66149648Y-72343723D01*
X66070498Y-72152639D01*
X66070491Y-72152625D01*
X65955594Y-71980670D01*
X65809329Y-71834405D01*
X65637374Y-71719508D01*
X65637360Y-71719501D01*
X65446274Y-71640350D01*
X65390000Y-71629156D01*
X65390000Y-72216988D01*
X65332993Y-72184075D01*
X65205826Y-72150000D01*
X65074174Y-72150000D01*
X64947007Y-72184075D01*
X64890000Y-72216988D01*
X64890000Y-71629156D01*
X64833725Y-71640350D01*
X64642639Y-71719501D01*
X64642625Y-71719508D01*
X64470670Y-71834405D01*
X64324405Y-71980670D01*
X64209508Y-72152625D01*
X64209501Y-72152639D01*
X64130351Y-72343723D01*
X64130349Y-72343730D01*
X64119157Y-72400000D01*
X63620842Y-72400000D01*
X63609650Y-72343730D01*
X63609648Y-72343723D01*
X63530498Y-72152639D01*
X63530491Y-72152625D01*
X63415594Y-71980670D01*
X63269329Y-71834405D01*
X63097374Y-71719508D01*
X63097360Y-71719501D01*
X62906274Y-71640350D01*
X62850000Y-71629156D01*
X62850000Y-72216988D01*
X62792993Y-72184075D01*
X62665826Y-72150000D01*
X62534174Y-72150000D01*
X62407007Y-72184075D01*
X62350000Y-72216988D01*
X62350000Y-71629156D01*
X62293725Y-71640350D01*
X62102639Y-71719501D01*
X62102625Y-71719508D01*
X61930668Y-71834406D01*
X61844503Y-71920571D01*
X61789986Y-71948348D01*
X61729554Y-71938776D01*
X61686290Y-71895512D01*
X61675500Y-71850567D01*
X61675500Y-70910139D01*
X61694407Y-70851948D01*
X61743907Y-70815984D01*
X61805093Y-70815984D01*
X61844501Y-70840133D01*
X61930345Y-70925977D01*
X62102402Y-71040941D01*
X62293580Y-71120130D01*
X62496535Y-71160500D01*
X62496536Y-71160500D01*
X62703464Y-71160500D01*
X62703465Y-71160500D01*
X62906420Y-71120130D01*
X63097598Y-71040941D01*
X63269655Y-70925977D01*
X63415977Y-70779655D01*
X63530941Y-70607598D01*
X63610130Y-70416420D01*
X63650500Y-70213465D01*
X63650500Y-70006535D01*
X63610130Y-69803580D01*
X63530941Y-69612402D01*
X63415977Y-69440345D01*
X63269655Y-69294023D01*
X63267500Y-69292583D01*
X63097597Y-69179058D01*
X62906418Y-69099869D01*
X62703467Y-69059500D01*
X62703465Y-69059500D01*
X62496535Y-69059500D01*
X62496532Y-69059500D01*
X62293581Y-69099869D01*
X62102402Y-69179058D01*
X61930348Y-69294020D01*
X61930345Y-69294022D01*
X61930345Y-69294023D01*
X61844501Y-69379866D01*
X61789987Y-69407642D01*
X61729555Y-69398071D01*
X61686290Y-69354806D01*
X61675500Y-69309861D01*
X61675500Y-68719500D01*
X61694407Y-68661309D01*
X61743907Y-68625345D01*
X61774500Y-68620500D01*
X63469747Y-68620500D01*
X63469748Y-68620500D01*
X63528231Y-68608867D01*
X63594552Y-68564552D01*
X63638867Y-68498231D01*
X63650500Y-68439748D01*
X63650500Y-67466532D01*
X64089500Y-67466532D01*
X64089500Y-67673467D01*
X64129869Y-67876418D01*
X64209058Y-68067597D01*
X64324020Y-68239651D01*
X64324023Y-68239655D01*
X64470345Y-68385977D01*
X64642402Y-68500941D01*
X64833580Y-68580130D01*
X65036535Y-68620500D01*
X65036536Y-68620500D01*
X65243464Y-68620500D01*
X65243465Y-68620500D01*
X65446420Y-68580130D01*
X65637598Y-68500941D01*
X65809655Y-68385977D01*
X65955977Y-68239655D01*
X66070941Y-68067598D01*
X66150130Y-67876420D01*
X66190500Y-67673465D01*
X66190500Y-67466535D01*
X66150130Y-67263580D01*
X66070941Y-67072402D01*
X65955977Y-66900345D01*
X65809655Y-66754023D01*
X65809651Y-66754020D01*
X65637597Y-66639058D01*
X65446418Y-66559869D01*
X65243467Y-66519500D01*
X65243465Y-66519500D01*
X65036535Y-66519500D01*
X65036532Y-66519500D01*
X64833581Y-66559869D01*
X64642402Y-66639058D01*
X64470348Y-66754020D01*
X64324020Y-66900348D01*
X64209058Y-67072402D01*
X64129869Y-67263581D01*
X64089500Y-67466532D01*
X63650500Y-67466532D01*
X63650500Y-66700252D01*
X63638867Y-66641769D01*
X63594552Y-66575448D01*
X63594548Y-66575445D01*
X63528233Y-66531134D01*
X63528231Y-66531133D01*
X63528228Y-66531132D01*
X63528227Y-66531132D01*
X63469758Y-66519501D01*
X63469748Y-66519500D01*
X61774500Y-66519500D01*
X61716309Y-66500593D01*
X61680345Y-66451093D01*
X61675500Y-66420500D01*
X61675500Y-63943926D01*
X61694407Y-63885735D01*
X61743907Y-63849771D01*
X61805093Y-63849771D01*
X61854593Y-63885735D01*
X61867945Y-63911229D01*
X61882929Y-63954054D01*
X62002316Y-64201963D01*
X62002323Y-64201975D01*
X62148730Y-64434981D01*
X62148732Y-64434984D01*
X62249766Y-64561677D01*
X62927339Y-63884103D01*
X63005864Y-63992184D01*
X63172816Y-64159136D01*
X63280893Y-64237659D01*
X62603321Y-64915232D01*
X62730015Y-65016267D01*
X62730018Y-65016269D01*
X62963024Y-65162676D01*
X62963036Y-65162683D01*
X63210951Y-65282072D01*
X63210950Y-65282072D01*
X63470680Y-65372956D01*
X63738963Y-65434189D01*
X64012402Y-65464998D01*
X64012421Y-65465000D01*
X64287579Y-65465000D01*
X64287597Y-65464998D01*
X64561036Y-65434189D01*
X64829319Y-65372956D01*
X65089049Y-65282072D01*
X65336963Y-65162683D01*
X65336975Y-65162676D01*
X65569978Y-65016271D01*
X65696677Y-64915232D01*
X65019104Y-64237659D01*
X65127184Y-64159136D01*
X65294136Y-63992184D01*
X65372659Y-63884104D01*
X66050232Y-64561677D01*
X66151271Y-64434978D01*
X66297676Y-64201975D01*
X66297683Y-64201963D01*
X66417072Y-63954049D01*
X66507956Y-63694319D01*
X66569189Y-63426036D01*
X66599998Y-63152597D01*
X66600000Y-63152579D01*
X66600000Y-62877421D01*
X66599999Y-62877410D01*
X66599286Y-62871081D01*
X66599286Y-62871078D01*
X66569189Y-62603963D01*
X66507956Y-62335680D01*
X66463940Y-62209890D01*
X66454200Y-62182055D01*
X68480000Y-62182055D01*
X68480000Y-62400999D01*
X68480001Y-62401000D01*
X68880000Y-62401000D01*
X68880000Y-62901000D01*
X68480001Y-62901000D01*
X68480000Y-62901001D01*
X68480000Y-63119944D01*
X68506901Y-63255183D01*
X68559666Y-63382571D01*
X68636271Y-63497220D01*
X68733779Y-63594728D01*
X68848421Y-63671329D01*
X68848431Y-63671334D01*
X68929999Y-63705120D01*
X68930000Y-63705120D01*
X68930000Y-63217988D01*
X68939940Y-63235205D01*
X68995795Y-63291060D01*
X69064204Y-63330556D01*
X69140504Y-63351000D01*
X69219496Y-63351000D01*
X69295796Y-63330556D01*
X69364205Y-63291060D01*
X69420060Y-63235205D01*
X69430000Y-63217988D01*
X69430000Y-63705120D01*
X69511568Y-63671334D01*
X69511578Y-63671329D01*
X69626220Y-63594728D01*
X69723728Y-63497220D01*
X69800333Y-63382571D01*
X69853098Y-63255183D01*
X69879999Y-63119944D01*
X69880000Y-63119942D01*
X69880000Y-62901001D01*
X69879999Y-62901000D01*
X69480000Y-62901000D01*
X69480000Y-62401000D01*
X69879999Y-62401000D01*
X69880000Y-62400999D01*
X69880000Y-62182057D01*
X69879999Y-62182055D01*
X77120000Y-62182055D01*
X77120000Y-62400999D01*
X77120001Y-62401000D01*
X77520000Y-62401000D01*
X77520000Y-62901000D01*
X77120001Y-62901000D01*
X77120000Y-62901001D01*
X77120000Y-63119944D01*
X77146901Y-63255183D01*
X77199666Y-63382571D01*
X77276271Y-63497220D01*
X77373779Y-63594728D01*
X77488421Y-63671329D01*
X77488431Y-63671334D01*
X77569999Y-63705120D01*
X77570000Y-63705120D01*
X77570000Y-63217988D01*
X77579940Y-63235205D01*
X77635795Y-63291060D01*
X77704204Y-63330556D01*
X77780504Y-63351000D01*
X77859496Y-63351000D01*
X77935796Y-63330556D01*
X78004205Y-63291060D01*
X78060060Y-63235205D01*
X78070000Y-63217988D01*
X78070000Y-63705120D01*
X78151568Y-63671334D01*
X78151578Y-63671329D01*
X78266220Y-63594728D01*
X78363728Y-63497220D01*
X78440333Y-63382571D01*
X78493098Y-63255183D01*
X78519999Y-63119944D01*
X78520000Y-63119942D01*
X78520000Y-62901001D01*
X78519999Y-62901000D01*
X78120000Y-62901000D01*
X78120000Y-62401000D01*
X78519999Y-62401000D01*
X78520000Y-62400999D01*
X78520000Y-62182057D01*
X78519999Y-62182055D01*
X78493098Y-62046816D01*
X78440333Y-61919428D01*
X78363728Y-61804779D01*
X78266220Y-61707271D01*
X78151571Y-61630666D01*
X78070000Y-61596878D01*
X78070000Y-62084011D01*
X78060060Y-62066795D01*
X78004205Y-62010940D01*
X77935796Y-61971444D01*
X77859496Y-61951000D01*
X77780504Y-61951000D01*
X77704204Y-61971444D01*
X77635795Y-62010940D01*
X77579940Y-62066795D01*
X77570000Y-62084011D01*
X77570000Y-61596879D01*
X77569999Y-61596878D01*
X77488428Y-61630666D01*
X77373779Y-61707271D01*
X77276271Y-61804779D01*
X77199666Y-61919428D01*
X77146901Y-62046816D01*
X77120000Y-62182055D01*
X69879999Y-62182055D01*
X69853098Y-62046816D01*
X69800333Y-61919428D01*
X69723728Y-61804779D01*
X69626220Y-61707271D01*
X69511571Y-61630666D01*
X69430000Y-61596878D01*
X69430000Y-62084011D01*
X69420060Y-62066795D01*
X69364205Y-62010940D01*
X69295796Y-61971444D01*
X69219496Y-61951000D01*
X69140504Y-61951000D01*
X69064204Y-61971444D01*
X68995795Y-62010940D01*
X68939940Y-62066795D01*
X68930000Y-62084011D01*
X68930000Y-61596879D01*
X68929999Y-61596878D01*
X68848428Y-61630666D01*
X68733779Y-61707271D01*
X68636271Y-61804779D01*
X68559666Y-61919428D01*
X68506901Y-62046816D01*
X68480000Y-62182055D01*
X66454200Y-62182055D01*
X66417072Y-62075950D01*
X66297683Y-61828036D01*
X66297676Y-61828024D01*
X66151269Y-61595018D01*
X66151267Y-61595015D01*
X66050232Y-61468321D01*
X65372659Y-62145893D01*
X65294136Y-62037816D01*
X65127184Y-61870864D01*
X65019103Y-61792339D01*
X65696677Y-61114766D01*
X65569984Y-61013732D01*
X65569981Y-61013730D01*
X65336975Y-60867323D01*
X65336963Y-60867316D01*
X65089048Y-60747927D01*
X65089049Y-60747927D01*
X65031940Y-60727944D01*
X64983260Y-60690879D01*
X64965663Y-60632278D01*
X64985871Y-60574527D01*
X65036166Y-60539683D01*
X65064638Y-60535500D01*
X98025362Y-60535500D01*
X98083553Y-60554407D01*
G37*
%TD.AperFunction*%
%TA.AperFunction,Conductor*%
G36*
X101375473Y-126345159D02*
G01*
X101410317Y-126395453D01*
X101414500Y-126423926D01*
X101414500Y-127875500D01*
X101395593Y-127933691D01*
X101346093Y-127969655D01*
X101315500Y-127974500D01*
X99854638Y-127974500D01*
X99796447Y-127955593D01*
X99760483Y-127906093D01*
X99760483Y-127844907D01*
X99796447Y-127795407D01*
X99821940Y-127782056D01*
X99879049Y-127762072D01*
X100126963Y-127642683D01*
X100126975Y-127642676D01*
X100359978Y-127496271D01*
X100486677Y-127395232D01*
X99809104Y-126717659D01*
X99917184Y-126639136D01*
X100084136Y-126472184D01*
X100162659Y-126364104D01*
X100840232Y-127041677D01*
X100941271Y-126914978D01*
X101087676Y-126681975D01*
X101087683Y-126681963D01*
X101207070Y-126434054D01*
X101222055Y-126391229D01*
X101259121Y-126342548D01*
X101317721Y-126324951D01*
X101375473Y-126345159D01*
G37*
%TD.AperFunction*%
%TA.AperFunction,Conductor*%
G36*
X95435357Y-102547407D02*
G01*
X95447169Y-102557496D01*
X95594503Y-102704829D01*
X95622281Y-102759346D01*
X95623500Y-102774833D01*
X95623500Y-106216147D01*
X95623500Y-106301853D01*
X95631559Y-106331929D01*
X95645683Y-106384643D01*
X95688531Y-106458857D01*
X95688532Y-106458858D01*
X95688533Y-106458859D01*
X95688535Y-106458862D01*
X96322680Y-107093007D01*
X96914380Y-107684707D01*
X96926590Y-107708672D01*
X96940640Y-107731599D01*
X96940323Y-107735624D01*
X96942157Y-107739224D01*
X96935840Y-107792596D01*
X96923087Y-107823385D01*
X96883351Y-107869911D01*
X96831623Y-107884500D01*
X95998415Y-107884500D01*
X95912709Y-107884500D01*
X95862040Y-107898076D01*
X95829918Y-107906683D01*
X95755704Y-107949531D01*
X95239531Y-108465704D01*
X95196682Y-108539922D01*
X95196681Y-108539922D01*
X95196682Y-108539923D01*
X95174500Y-108622709D01*
X95174500Y-115374165D01*
X95155593Y-115432356D01*
X95145504Y-115444169D01*
X94894169Y-115695504D01*
X94839652Y-115723281D01*
X94824165Y-115724500D01*
X91663745Y-115724500D01*
X91614246Y-115711237D01*
X91554587Y-115676793D01*
X91452727Y-115649500D01*
X91347273Y-115649500D01*
X91245413Y-115676793D01*
X91245412Y-115676793D01*
X91245410Y-115676794D01*
X91245409Y-115676794D01*
X91154089Y-115729518D01*
X91079518Y-115804089D01*
X91026794Y-115895409D01*
X91026794Y-115895410D01*
X90999500Y-115997274D01*
X90999500Y-116102729D01*
X91005703Y-116125879D01*
X91002500Y-116186980D01*
X90963994Y-116234529D01*
X90910076Y-116250500D01*
X88801835Y-116250500D01*
X88743644Y-116231593D01*
X88731831Y-116221504D01*
X87805496Y-115295169D01*
X87777719Y-115240652D01*
X87776500Y-115225165D01*
X87776500Y-103864752D01*
X87776500Y-103853856D01*
X87776501Y-103853853D01*
X87776501Y-103768147D01*
X87769231Y-103741017D01*
X87768640Y-103730949D01*
X87773946Y-103710632D01*
X87775045Y-103689667D01*
X87781507Y-103681686D01*
X87784103Y-103671749D01*
X87800337Y-103658432D01*
X87813549Y-103642116D01*
X87823467Y-103639458D01*
X87831409Y-103632944D01*
X87852372Y-103631712D01*
X87872649Y-103626279D01*
X87880401Y-103626991D01*
X87884254Y-103627498D01*
X87884259Y-103627500D01*
X87884264Y-103627500D01*
X93197142Y-103627500D01*
X93197144Y-103627500D01*
X93286288Y-103603614D01*
X93366212Y-103557470D01*
X93791963Y-103131716D01*
X93836342Y-103106095D01*
X93849883Y-103102467D01*
X93910983Y-103105672D01*
X93958531Y-103144180D01*
X93974500Y-103198095D01*
X93974500Y-105149806D01*
X93955593Y-105207997D01*
X93945502Y-105219811D01*
X93922919Y-105242393D01*
X93878542Y-105268014D01*
X93812001Y-105285845D01*
X93811998Y-105285846D01*
X93720678Y-105338570D01*
X93646107Y-105413141D01*
X93593383Y-105504461D01*
X93593383Y-105504462D01*
X93593382Y-105504464D01*
X93593382Y-105504465D01*
X93566089Y-105606325D01*
X93566089Y-105711779D01*
X93593382Y-105813639D01*
X93593383Y-105813641D01*
X93593383Y-105813642D01*
X93614086Y-105849500D01*
X93646109Y-105904965D01*
X93720676Y-105979532D01*
X93812002Y-106032259D01*
X93913862Y-106059552D01*
X93913864Y-106059552D01*
X94019314Y-106059552D01*
X94019316Y-106059552D01*
X94121176Y-106032259D01*
X94212502Y-105979532D01*
X94287069Y-105904965D01*
X94339796Y-105813639D01*
X94357625Y-105747098D01*
X94383246Y-105702720D01*
X94560465Y-105525503D01*
X94562235Y-105522438D01*
X94603318Y-105451279D01*
X94625500Y-105368494D01*
X94625500Y-103347833D01*
X94627968Y-103340235D01*
X94626719Y-103332346D01*
X94637242Y-103311691D01*
X94644407Y-103289642D01*
X94654491Y-103277835D01*
X94765668Y-103166657D01*
X94810046Y-103141036D01*
X94876587Y-103123207D01*
X94967913Y-103070480D01*
X95042480Y-102995913D01*
X95095207Y-102904587D01*
X95122500Y-102802727D01*
X95122500Y-102697273D01*
X95110670Y-102653122D01*
X95112142Y-102625041D01*
X95112142Y-102596907D01*
X95113731Y-102594719D01*
X95113873Y-102592021D01*
X95131569Y-102570168D01*
X95148106Y-102547407D01*
X95150676Y-102546571D01*
X95152378Y-102544471D01*
X95206297Y-102528500D01*
X95377166Y-102528500D01*
X95435357Y-102547407D01*
G37*
%TD.AperFunction*%
%TA.AperFunction,Conductor*%
G36*
X76093095Y-111019407D02*
G01*
X76129059Y-111068907D01*
X76130531Y-111125122D01*
X76104500Y-111222273D01*
X76104500Y-111327726D01*
X76130531Y-111424878D01*
X76127328Y-111485979D01*
X76088823Y-111533529D01*
X76034904Y-111549500D01*
X75698745Y-111549500D01*
X75649246Y-111536237D01*
X75589587Y-111501793D01*
X75487727Y-111474500D01*
X75382273Y-111474500D01*
X75361243Y-111480135D01*
X75300053Y-111496530D01*
X75238952Y-111493327D01*
X75191402Y-111454821D01*
X75175567Y-111395721D01*
X75197494Y-111338599D01*
X75204428Y-111330899D01*
X75505832Y-111029496D01*
X75560348Y-111001719D01*
X75575835Y-111000500D01*
X76034904Y-111000500D01*
X76093095Y-111019407D01*
G37*
%TD.AperFunction*%
%TA.AperFunction,Conductor*%
G36*
X86390818Y-94134548D02*
G01*
X86418794Y-94137489D01*
X86420802Y-94139297D01*
X86423472Y-94139720D01*
X86464262Y-94178428D01*
X86511615Y-94260446D01*
X86586182Y-94335013D01*
X86657237Y-94376037D01*
X86698177Y-94421505D01*
X86704573Y-94482355D01*
X86703363Y-94487392D01*
X86700470Y-94498187D01*
X86700470Y-94498192D01*
X86700470Y-94603646D01*
X86726422Y-94700500D01*
X86727764Y-94705508D01*
X86727764Y-94705509D01*
X86770694Y-94779865D01*
X86780490Y-94796832D01*
X86812399Y-94828741D01*
X86840175Y-94883256D01*
X86830604Y-94943688D01*
X86812400Y-94968743D01*
X86778382Y-95002762D01*
X86746978Y-95034166D01*
X86694254Y-95125486D01*
X86694254Y-95125487D01*
X86694253Y-95125489D01*
X86694253Y-95125490D01*
X86666960Y-95227350D01*
X86666960Y-95332804D01*
X86687769Y-95410465D01*
X86694254Y-95434666D01*
X86694254Y-95434667D01*
X86736120Y-95507180D01*
X86746980Y-95525990D01*
X86820519Y-95599529D01*
X86848295Y-95654044D01*
X86838724Y-95714476D01*
X86836252Y-95719028D01*
X86826794Y-95735410D01*
X86826793Y-95735412D01*
X86826793Y-95735413D01*
X86799500Y-95837273D01*
X86799500Y-95942727D01*
X86824469Y-96035913D01*
X86826794Y-96044589D01*
X86826794Y-96044590D01*
X86866678Y-96113670D01*
X86879520Y-96135913D01*
X86954087Y-96210480D01*
X87045413Y-96263207D01*
X87147273Y-96290500D01*
X87147275Y-96290500D01*
X87252725Y-96290500D01*
X87252727Y-96290500D01*
X87354587Y-96263207D01*
X87414246Y-96228762D01*
X87463745Y-96215500D01*
X89270589Y-96215500D01*
X89328780Y-96234407D01*
X89364744Y-96283907D01*
X89364744Y-96345093D01*
X89356327Y-96363995D01*
X89336725Y-96397949D01*
X89309432Y-96499809D01*
X89309432Y-96605263D01*
X89336725Y-96707123D01*
X89336726Y-96707125D01*
X89336726Y-96707126D01*
X89347733Y-96726190D01*
X89389452Y-96798449D01*
X89464019Y-96873016D01*
X89555345Y-96925743D01*
X89611779Y-96940864D01*
X89656159Y-96966486D01*
X90894504Y-98204830D01*
X90922281Y-98259347D01*
X90923500Y-98274834D01*
X90923500Y-99969577D01*
X90923500Y-100055283D01*
X90925100Y-100061253D01*
X90945683Y-100138073D01*
X90988531Y-100212287D01*
X90988533Y-100212289D01*
X90988535Y-100212292D01*
X93179103Y-102402859D01*
X93179105Y-102402862D01*
X93239708Y-102463465D01*
X93239710Y-102463466D01*
X93239711Y-102463467D01*
X93273244Y-102482827D01*
X93314185Y-102528296D01*
X93320582Y-102589146D01*
X93293749Y-102638567D01*
X93034814Y-102897503D01*
X92980297Y-102925281D01*
X92964810Y-102926500D01*
X88116593Y-102926500D01*
X88058402Y-102907593D01*
X88046589Y-102897504D01*
X85703591Y-100554506D01*
X85677968Y-100510123D01*
X85673081Y-100491884D01*
X85620354Y-100400558D01*
X85545787Y-100325991D01*
X85534787Y-100319640D01*
X85454464Y-100273265D01*
X85454461Y-100273264D01*
X85383271Y-100254187D01*
X85338892Y-100228565D01*
X84895425Y-99785098D01*
X84869803Y-99740718D01*
X84851975Y-99674181D01*
X84799248Y-99582855D01*
X84724681Y-99508288D01*
X84633355Y-99455561D01*
X84531495Y-99428268D01*
X84426041Y-99428268D01*
X84324181Y-99455561D01*
X84324180Y-99455561D01*
X84324178Y-99455562D01*
X84324177Y-99455562D01*
X84232857Y-99508286D01*
X84158286Y-99582857D01*
X84105562Y-99674177D01*
X84105562Y-99674178D01*
X84105561Y-99674180D01*
X84105561Y-99674181D01*
X84078268Y-99776041D01*
X84078268Y-99881495D01*
X84103755Y-99976614D01*
X84105562Y-99983357D01*
X84105562Y-99983358D01*
X84150535Y-100061253D01*
X84158288Y-100074681D01*
X84232855Y-100149248D01*
X84316537Y-100197562D01*
X84324178Y-100201973D01*
X84324181Y-100201975D01*
X84390720Y-100219803D01*
X84435099Y-100245426D01*
X84884459Y-100694785D01*
X84910082Y-100739165D01*
X84926665Y-100801054D01*
X84926668Y-100801061D01*
X84979392Y-100892381D01*
X84979394Y-100892384D01*
X85053961Y-100966951D01*
X85145287Y-101019678D01*
X85163526Y-101024565D01*
X85207909Y-101050188D01*
X85813217Y-101655496D01*
X85840994Y-101710013D01*
X85831423Y-101770445D01*
X85788158Y-101813710D01*
X85743213Y-101824500D01*
X84263745Y-101824500D01*
X84214246Y-101811237D01*
X84154587Y-101776793D01*
X84052727Y-101749500D01*
X83947273Y-101749500D01*
X83845413Y-101776793D01*
X83845412Y-101776793D01*
X83845410Y-101776794D01*
X83845409Y-101776794D01*
X83754089Y-101829518D01*
X83679518Y-101904089D01*
X83626794Y-101995409D01*
X83626794Y-101995410D01*
X83626793Y-101995412D01*
X83626793Y-101995413D01*
X83599500Y-102097273D01*
X83599500Y-102202727D01*
X83626793Y-102304587D01*
X83668024Y-102376002D01*
X83670223Y-102386348D01*
X83676442Y-102394907D01*
X83676442Y-102415603D01*
X83680745Y-102435848D01*
X83676442Y-102445512D01*
X83676442Y-102456093D01*
X83664275Y-102472839D01*
X83655858Y-102491744D01*
X83646697Y-102497033D01*
X83640478Y-102505593D01*
X83620793Y-102511988D01*
X83602870Y-102522337D01*
X83582287Y-102524500D01*
X83563745Y-102524500D01*
X83514246Y-102511237D01*
X83454587Y-102476793D01*
X83352727Y-102449500D01*
X83247273Y-102449500D01*
X83145413Y-102476793D01*
X83145412Y-102476793D01*
X83145410Y-102476794D01*
X83145409Y-102476794D01*
X83054089Y-102529518D01*
X82979518Y-102604089D01*
X82926794Y-102695409D01*
X82926794Y-102695410D01*
X82926793Y-102695412D01*
X82926793Y-102695413D01*
X82899500Y-102797273D01*
X82899500Y-102902727D01*
X82924469Y-102995913D01*
X82926794Y-103004589D01*
X82926794Y-103004590D01*
X82979518Y-103095910D01*
X82979520Y-103095913D01*
X83054087Y-103170480D01*
X83145413Y-103223207D01*
X83247273Y-103250500D01*
X83247275Y-103250500D01*
X83352725Y-103250500D01*
X83352727Y-103250500D01*
X83454587Y-103223207D01*
X83514246Y-103188762D01*
X83563745Y-103175500D01*
X85676355Y-103175500D01*
X85734546Y-103194407D01*
X85746359Y-103204496D01*
X86645504Y-104103641D01*
X86673281Y-104158158D01*
X86674500Y-104173645D01*
X86674500Y-106365165D01*
X86655593Y-106423356D01*
X86606093Y-106459320D01*
X86544907Y-106459320D01*
X86505496Y-106435169D01*
X86102584Y-106032257D01*
X85658914Y-105588587D01*
X85658911Y-105588585D01*
X85658910Y-105588584D01*
X85658909Y-105588583D01*
X85584694Y-105545735D01*
X85584696Y-105545735D01*
X85552573Y-105537128D01*
X85501905Y-105523552D01*
X85501903Y-105523552D01*
X84943434Y-105523552D01*
X84905865Y-105516146D01*
X84899698Y-105513616D01*
X84834276Y-105475845D01*
X84757373Y-105455239D01*
X84751519Y-105452838D01*
X84732769Y-105436936D01*
X84712150Y-105423546D01*
X84709818Y-105417471D01*
X84704856Y-105413263D01*
X84699033Y-105389374D01*
X84690224Y-105366424D01*
X84691907Y-105360139D01*
X84690367Y-105353818D01*
X84699696Y-105331071D01*
X84706060Y-105307324D01*
X84712903Y-105298872D01*
X84713586Y-105297209D01*
X84714915Y-105296388D01*
X84719079Y-105291245D01*
X85069778Y-104940546D01*
X85114160Y-104914925D01*
X85151202Y-104905000D01*
X85151202Y-104904999D01*
X85151209Y-104904998D01*
X85242535Y-104852271D01*
X85317102Y-104777704D01*
X85369829Y-104686378D01*
X85397122Y-104584518D01*
X85397122Y-104479064D01*
X85369829Y-104377204D01*
X85317102Y-104285878D01*
X85242535Y-104211311D01*
X85177295Y-104173645D01*
X85151211Y-104158585D01*
X85151210Y-104158584D01*
X85151209Y-104158584D01*
X85049349Y-104131291D01*
X84943895Y-104131291D01*
X84842035Y-104158584D01*
X84842034Y-104158584D01*
X84842032Y-104158585D01*
X84842031Y-104158585D01*
X84750711Y-104211309D01*
X84676140Y-104285880D01*
X84623416Y-104377200D01*
X84623413Y-104377207D01*
X84597684Y-104473230D01*
X84572062Y-104517610D01*
X83269169Y-105820504D01*
X83214652Y-105848281D01*
X83199165Y-105849500D01*
X82234232Y-105849500D01*
X82184733Y-105836237D01*
X82153587Y-105818255D01*
X82051727Y-105790962D01*
X81946273Y-105790962D01*
X81946270Y-105790962D01*
X81924121Y-105796897D01*
X81863020Y-105793694D01*
X81815471Y-105755188D01*
X81799500Y-105701270D01*
X81799500Y-100389644D01*
X81818407Y-100331453D01*
X81828490Y-100319646D01*
X86034465Y-96113672D01*
X86039349Y-96105212D01*
X86077318Y-96039448D01*
X86099500Y-95956663D01*
X86099500Y-94407958D01*
X86118407Y-94349767D01*
X86128496Y-94337955D01*
X86308523Y-94157927D01*
X86333580Y-94145159D01*
X86357944Y-94131093D01*
X86360632Y-94131375D01*
X86363040Y-94130149D01*
X86390818Y-94134548D01*
G37*
%TD.AperFunction*%
%TA.AperFunction,Conductor*%
G36*
X93707356Y-94719407D02*
G01*
X93719169Y-94729496D01*
X94002075Y-95012402D01*
X94210170Y-95220496D01*
X94237947Y-95275013D01*
X94228376Y-95335445D01*
X94185111Y-95378710D01*
X94140166Y-95389500D01*
X94047273Y-95389500D01*
X93945413Y-95416793D01*
X93945412Y-95416793D01*
X93945410Y-95416794D01*
X93945409Y-95416794D01*
X93854089Y-95469518D01*
X93779518Y-95544089D01*
X93726794Y-95635409D01*
X93726794Y-95635410D01*
X93726793Y-95635412D01*
X93726793Y-95635413D01*
X93699500Y-95737273D01*
X93699500Y-95842727D01*
X93726295Y-95942727D01*
X93726794Y-95944589D01*
X93726794Y-95944590D01*
X93763172Y-96007598D01*
X93779520Y-96035913D01*
X93854087Y-96110480D01*
X93859612Y-96113670D01*
X93945409Y-96163205D01*
X93945410Y-96163205D01*
X93945413Y-96163207D01*
X93990974Y-96175415D01*
X94035355Y-96201037D01*
X94490504Y-96656186D01*
X94518281Y-96710703D01*
X94519500Y-96726190D01*
X94519500Y-98493809D01*
X94500593Y-98552000D01*
X94490504Y-98563813D01*
X93808021Y-99246295D01*
X93753504Y-99274072D01*
X93712395Y-99271918D01*
X93650877Y-99255435D01*
X93628727Y-99249500D01*
X93523273Y-99249500D01*
X93523270Y-99249500D01*
X93501121Y-99255435D01*
X93440020Y-99252232D01*
X93392471Y-99213726D01*
X93376500Y-99159808D01*
X93376500Y-98045521D01*
X93395407Y-97987330D01*
X93405490Y-97975523D01*
X93738465Y-97642549D01*
X93739923Y-97640024D01*
X93781317Y-97568329D01*
X93784385Y-97556878D01*
X93803500Y-97485540D01*
X93803500Y-97399834D01*
X93803500Y-96591460D01*
X93794979Y-96559658D01*
X93781318Y-96508674D01*
X93776371Y-96500105D01*
X93738468Y-96434455D01*
X93738467Y-96434454D01*
X93738466Y-96434453D01*
X93738465Y-96434451D01*
X92173518Y-94869504D01*
X92145741Y-94814987D01*
X92155312Y-94754555D01*
X92198577Y-94711290D01*
X92243522Y-94700500D01*
X93649165Y-94700500D01*
X93707356Y-94719407D01*
G37*
%TD.AperFunction*%
%TA.AperFunction,Conductor*%
G36*
X82520445Y-87286625D02*
G01*
X82563710Y-87329890D01*
X82574500Y-87374835D01*
X82574500Y-91007147D01*
X82574500Y-91092853D01*
X82576323Y-91099655D01*
X82596683Y-91175643D01*
X82639531Y-91249857D01*
X82639533Y-91249859D01*
X82639535Y-91249862D01*
X83639533Y-92249859D01*
X83639535Y-92249862D01*
X83700138Y-92310465D01*
X83700140Y-92310466D01*
X83767262Y-92349220D01*
X83767271Y-92349223D01*
X83767273Y-92349225D01*
X83774362Y-92353318D01*
X83857148Y-92375501D01*
X83857150Y-92375501D01*
X83948916Y-92375501D01*
X83948932Y-92375500D01*
X85736255Y-92375500D01*
X85785754Y-92388763D01*
X85817990Y-92407374D01*
X85858932Y-92452843D01*
X85865328Y-92513693D01*
X85864118Y-92518732D01*
X85848500Y-92577021D01*
X85848500Y-93656288D01*
X85829593Y-93714479D01*
X85819504Y-93726291D01*
X85513535Y-94032260D01*
X85513531Y-94032265D01*
X85470683Y-94106480D01*
X85470682Y-94106482D01*
X85464326Y-94130199D01*
X85464327Y-94130200D01*
X85448500Y-94189270D01*
X85448500Y-95737974D01*
X85429593Y-95796165D01*
X85419504Y-95807978D01*
X82414504Y-98812978D01*
X82359987Y-98840755D01*
X82299555Y-98831184D01*
X82256290Y-98787919D01*
X82245500Y-98742974D01*
X82245500Y-87505835D01*
X82247968Y-87498237D01*
X82246719Y-87490348D01*
X82257243Y-87469692D01*
X82264407Y-87447644D01*
X82274496Y-87435831D01*
X82405496Y-87304831D01*
X82460013Y-87277054D01*
X82520445Y-87286625D01*
G37*
%TD.AperFunction*%
%TA.AperFunction,Conductor*%
G36*
X91195001Y-71129011D02*
G01*
X91238266Y-71172276D01*
X91249056Y-71217221D01*
X91249056Y-81873806D01*
X91230149Y-81931997D01*
X91220060Y-81943810D01*
X84401660Y-88762209D01*
X84357281Y-88787831D01*
X84290741Y-88805662D01*
X84290738Y-88805663D01*
X84199418Y-88858387D01*
X84124847Y-88932958D01*
X84072123Y-89024278D01*
X84072123Y-89024279D01*
X84072122Y-89024281D01*
X84072122Y-89024282D01*
X84044829Y-89126142D01*
X84044829Y-89231596D01*
X84062788Y-89298619D01*
X84072123Y-89333458D01*
X84072123Y-89333459D01*
X84098705Y-89379500D01*
X84124849Y-89424782D01*
X84199416Y-89499349D01*
X84199418Y-89499350D01*
X84290738Y-89552074D01*
X84290739Y-89552074D01*
X84290742Y-89552076D01*
X84384349Y-89577157D01*
X84435662Y-89610479D01*
X84454960Y-89660753D01*
X84456878Y-89660501D01*
X84457724Y-89666932D01*
X84465355Y-89695410D01*
X84483183Y-89761948D01*
X84485019Y-89768797D01*
X84485019Y-89768798D01*
X84537743Y-89860118D01*
X84537745Y-89860121D01*
X84612312Y-89934688D01*
X84703638Y-89987415D01*
X84805498Y-90014708D01*
X84805510Y-90014708D01*
X84810223Y-90015329D01*
X84865449Y-90041668D01*
X84894646Y-90095437D01*
X84895457Y-90100553D01*
X84896179Y-90106039D01*
X84923475Y-90207908D01*
X84923475Y-90207909D01*
X84968991Y-90286744D01*
X84976201Y-90299232D01*
X85050768Y-90373799D01*
X85142094Y-90426526D01*
X85243954Y-90453819D01*
X85243956Y-90453819D01*
X85349406Y-90453819D01*
X85349408Y-90453819D01*
X85451268Y-90426526D01*
X85542594Y-90373799D01*
X85617161Y-90299232D01*
X85669888Y-90207906D01*
X85687716Y-90141365D01*
X85713336Y-90096989D01*
X92791465Y-83018862D01*
X92834318Y-82944639D01*
X92856500Y-82861853D01*
X92856500Y-82776147D01*
X92856500Y-75494834D01*
X92875407Y-75436643D01*
X92885496Y-75424830D01*
X93941830Y-74368496D01*
X93996347Y-74340719D01*
X94011834Y-74339500D01*
X97025861Y-74339500D01*
X97084052Y-74358407D01*
X97120016Y-74407907D01*
X97120016Y-74469093D01*
X97095866Y-74508501D01*
X97084023Y-74520345D01*
X97084020Y-74520348D01*
X96969058Y-74692402D01*
X96889869Y-74883581D01*
X96849500Y-75086532D01*
X96849500Y-75293467D01*
X96889869Y-75496418D01*
X96969058Y-75687597D01*
X97084020Y-75859651D01*
X97084023Y-75859655D01*
X97230345Y-76005977D01*
X97402402Y-76120941D01*
X97593580Y-76200130D01*
X97796535Y-76240500D01*
X97796536Y-76240500D01*
X98003464Y-76240500D01*
X98003465Y-76240500D01*
X98206420Y-76200130D01*
X98397598Y-76120941D01*
X98569655Y-76005977D01*
X98715977Y-75859655D01*
X98830941Y-75687598D01*
X98910130Y-75496420D01*
X98950500Y-75293465D01*
X98950500Y-75086535D01*
X98910130Y-74883580D01*
X98830941Y-74692402D01*
X98715977Y-74520345D01*
X98704133Y-74508501D01*
X98676358Y-74453987D01*
X98685929Y-74393555D01*
X98729194Y-74350290D01*
X98774139Y-74339500D01*
X99118851Y-74339500D01*
X99118853Y-74339500D01*
X99201639Y-74317318D01*
X99201641Y-74317316D01*
X99201643Y-74317316D01*
X99275857Y-74274468D01*
X99275857Y-74274467D01*
X99275862Y-74274465D01*
X99914709Y-73635616D01*
X99969224Y-73607841D01*
X100022593Y-73614157D01*
X100133580Y-73660130D01*
X100336535Y-73700500D01*
X100336536Y-73700500D01*
X100543464Y-73700500D01*
X100543465Y-73700500D01*
X100746420Y-73660130D01*
X100937598Y-73580941D01*
X101109655Y-73465977D01*
X101245498Y-73330133D01*
X101300013Y-73302358D01*
X101360445Y-73311929D01*
X101403710Y-73355194D01*
X101414500Y-73400139D01*
X101414500Y-74439861D01*
X101395593Y-74498052D01*
X101346093Y-74534016D01*
X101284907Y-74534016D01*
X101245498Y-74509866D01*
X101109655Y-74374023D01*
X101109651Y-74374020D01*
X100937597Y-74259058D01*
X100746418Y-74179869D01*
X100543467Y-74139500D01*
X100543465Y-74139500D01*
X100336535Y-74139500D01*
X100336532Y-74139500D01*
X100133581Y-74179869D01*
X99942402Y-74259058D01*
X99770348Y-74374020D01*
X99624020Y-74520348D01*
X99509058Y-74692402D01*
X99429869Y-74883581D01*
X99389500Y-75086532D01*
X99389500Y-75293467D01*
X99429869Y-75496418D01*
X99509058Y-75687597D01*
X99624020Y-75859651D01*
X99624023Y-75859655D01*
X99770345Y-76005977D01*
X99942402Y-76120941D01*
X100133580Y-76200130D01*
X100336535Y-76240500D01*
X100336536Y-76240500D01*
X100543464Y-76240500D01*
X100543465Y-76240500D01*
X100746420Y-76200130D01*
X100937598Y-76120941D01*
X101109655Y-76005977D01*
X101245498Y-75870133D01*
X101300013Y-75842358D01*
X101360445Y-75851929D01*
X101403710Y-75895194D01*
X101414500Y-75940139D01*
X101414500Y-76979861D01*
X101395593Y-77038052D01*
X101346093Y-77074016D01*
X101284907Y-77074016D01*
X101245498Y-77049866D01*
X101109655Y-76914023D01*
X100937598Y-76799059D01*
X100937599Y-76799059D01*
X100937597Y-76799058D01*
X100746418Y-76719869D01*
X100543467Y-76679500D01*
X100543465Y-76679500D01*
X100336535Y-76679500D01*
X100336532Y-76679500D01*
X100133581Y-76719869D01*
X99942402Y-76799058D01*
X99770348Y-76914020D01*
X99624020Y-77060348D01*
X99509058Y-77232402D01*
X99429869Y-77423581D01*
X99389500Y-77626532D01*
X99389500Y-77833467D01*
X99429869Y-78036418D01*
X99509058Y-78227597D01*
X99624020Y-78399651D01*
X99624023Y-78399655D01*
X99770345Y-78545977D01*
X99942402Y-78660941D01*
X100133580Y-78740130D01*
X100336535Y-78780500D01*
X100336536Y-78780500D01*
X100543464Y-78780500D01*
X100543465Y-78780500D01*
X100746420Y-78740130D01*
X100937598Y-78660941D01*
X101109655Y-78545977D01*
X101245498Y-78410133D01*
X101300013Y-78382358D01*
X101360445Y-78391929D01*
X101403710Y-78435194D01*
X101414500Y-78480139D01*
X101414500Y-79519861D01*
X101395593Y-79578052D01*
X101346093Y-79614016D01*
X101284907Y-79614016D01*
X101245498Y-79589866D01*
X101109655Y-79454023D01*
X101109651Y-79454020D01*
X100937597Y-79339058D01*
X100746418Y-79259869D01*
X100543467Y-79219500D01*
X100543465Y-79219500D01*
X100336535Y-79219500D01*
X100336532Y-79219500D01*
X100133581Y-79259869D01*
X99942402Y-79339058D01*
X99770348Y-79454020D01*
X99624020Y-79600348D01*
X99509058Y-79772402D01*
X99429869Y-79963581D01*
X99389500Y-80166532D01*
X99389500Y-80373467D01*
X99429869Y-80576418D01*
X99509058Y-80767597D01*
X99624020Y-80939651D01*
X99624023Y-80939655D01*
X99770345Y-81085977D01*
X99942402Y-81200941D01*
X100133580Y-81280130D01*
X100336535Y-81320500D01*
X100336536Y-81320500D01*
X100543464Y-81320500D01*
X100543465Y-81320500D01*
X100746420Y-81280130D01*
X100937598Y-81200941D01*
X101109655Y-81085977D01*
X101245498Y-80950133D01*
X101300013Y-80922358D01*
X101360445Y-80931929D01*
X101403710Y-80975194D01*
X101414500Y-81020139D01*
X101414500Y-82059861D01*
X101395593Y-82118052D01*
X101346093Y-82154016D01*
X101284907Y-82154016D01*
X101245498Y-82129866D01*
X101109655Y-81994023D01*
X101109651Y-81994020D01*
X100937597Y-81879058D01*
X100746418Y-81799869D01*
X100543467Y-81759500D01*
X100543465Y-81759500D01*
X100336535Y-81759500D01*
X100336532Y-81759500D01*
X100133581Y-81799869D01*
X99942402Y-81879058D01*
X99770348Y-81994020D01*
X99624020Y-82140348D01*
X99509058Y-82312402D01*
X99429869Y-82503581D01*
X99389500Y-82706532D01*
X99389500Y-82913467D01*
X99429869Y-83116418D01*
X99509058Y-83307597D01*
X99624020Y-83479651D01*
X99624023Y-83479655D01*
X99770345Y-83625977D01*
X99942402Y-83740941D01*
X100133580Y-83820130D01*
X100336535Y-83860500D01*
X100336536Y-83860500D01*
X100543464Y-83860500D01*
X100543465Y-83860500D01*
X100746420Y-83820130D01*
X100937598Y-83740941D01*
X101109655Y-83625977D01*
X101245498Y-83490133D01*
X101300013Y-83462358D01*
X101360445Y-83471929D01*
X101403710Y-83515194D01*
X101414500Y-83560139D01*
X101414500Y-84599861D01*
X101395593Y-84658052D01*
X101346093Y-84694016D01*
X101284907Y-84694016D01*
X101245498Y-84669866D01*
X101109655Y-84534023D01*
X101109651Y-84534020D01*
X100937597Y-84419058D01*
X100746418Y-84339869D01*
X100543467Y-84299500D01*
X100543465Y-84299500D01*
X100336535Y-84299500D01*
X100336532Y-84299500D01*
X100133581Y-84339869D01*
X99942402Y-84419058D01*
X99770348Y-84534020D01*
X99624020Y-84680348D01*
X99509058Y-84852402D01*
X99429869Y-85043581D01*
X99389500Y-85246532D01*
X99389500Y-85453467D01*
X99429869Y-85656418D01*
X99509058Y-85847597D01*
X99624020Y-86019651D01*
X99624023Y-86019655D01*
X99770345Y-86165977D01*
X99942402Y-86280941D01*
X100133580Y-86360130D01*
X100336535Y-86400500D01*
X100336536Y-86400500D01*
X100543464Y-86400500D01*
X100543465Y-86400500D01*
X100746420Y-86360130D01*
X100937598Y-86280941D01*
X101109655Y-86165977D01*
X101245498Y-86030133D01*
X101300013Y-86002358D01*
X101360445Y-86011929D01*
X101403710Y-86055194D01*
X101414500Y-86100139D01*
X101414500Y-87139861D01*
X101395593Y-87198052D01*
X101346093Y-87234016D01*
X101284907Y-87234016D01*
X101245498Y-87209866D01*
X101109655Y-87074023D01*
X100937598Y-86959059D01*
X100937599Y-86959059D01*
X100937597Y-86959058D01*
X100746418Y-86879869D01*
X100543467Y-86839500D01*
X100543465Y-86839500D01*
X100336535Y-86839500D01*
X100336532Y-86839500D01*
X100133581Y-86879869D01*
X99942402Y-86959058D01*
X99770348Y-87074020D01*
X99624020Y-87220348D01*
X99509058Y-87392402D01*
X99429869Y-87583581D01*
X99389500Y-87786532D01*
X99389500Y-87993467D01*
X99429869Y-88196418D01*
X99509058Y-88387597D01*
X99624020Y-88559651D01*
X99624023Y-88559655D01*
X99770345Y-88705977D01*
X99942402Y-88820941D01*
X100133580Y-88900130D01*
X100336535Y-88940500D01*
X100336536Y-88940500D01*
X100543464Y-88940500D01*
X100543465Y-88940500D01*
X100746420Y-88900130D01*
X100937598Y-88820941D01*
X101109655Y-88705977D01*
X101245498Y-88570133D01*
X101300013Y-88542358D01*
X101360445Y-88551929D01*
X101403710Y-88595194D01*
X101414500Y-88640139D01*
X101414500Y-89679861D01*
X101395593Y-89738052D01*
X101346093Y-89774016D01*
X101284907Y-89774016D01*
X101245498Y-89749866D01*
X101109655Y-89614023D01*
X101094785Y-89604087D01*
X100937597Y-89499058D01*
X100746418Y-89419869D01*
X100543467Y-89379500D01*
X100543465Y-89379500D01*
X100336535Y-89379500D01*
X100336532Y-89379500D01*
X100133581Y-89419869D01*
X99942402Y-89499058D01*
X99770348Y-89614020D01*
X99624020Y-89760348D01*
X99509058Y-89932402D01*
X99429869Y-90123581D01*
X99389500Y-90326532D01*
X99389500Y-90533467D01*
X99429869Y-90736418D01*
X99509058Y-90927597D01*
X99619478Y-91092853D01*
X99624023Y-91099655D01*
X99770345Y-91245977D01*
X99942402Y-91360941D01*
X100133580Y-91440130D01*
X100336535Y-91480500D01*
X100336536Y-91480500D01*
X100543464Y-91480500D01*
X100543465Y-91480500D01*
X100746420Y-91440130D01*
X100937598Y-91360941D01*
X101109655Y-91245977D01*
X101245498Y-91110133D01*
X101300013Y-91082358D01*
X101360445Y-91091929D01*
X101403710Y-91135194D01*
X101414500Y-91180139D01*
X101414500Y-92219861D01*
X101395593Y-92278052D01*
X101346093Y-92314016D01*
X101284907Y-92314016D01*
X101245498Y-92289866D01*
X101109655Y-92154023D01*
X101100948Y-92148205D01*
X100937597Y-92039058D01*
X100746418Y-91959869D01*
X100543467Y-91919500D01*
X100543465Y-91919500D01*
X100336535Y-91919500D01*
X100336532Y-91919500D01*
X100133581Y-91959869D01*
X99942402Y-92039058D01*
X99770348Y-92154020D01*
X99624020Y-92300348D01*
X99509058Y-92472402D01*
X99429869Y-92663581D01*
X99389500Y-92866532D01*
X99389500Y-93073467D01*
X99429870Y-93276419D01*
X99429870Y-93276421D01*
X99475840Y-93387403D01*
X99480640Y-93448400D01*
X99454380Y-93495291D01*
X99154170Y-93795503D01*
X99099653Y-93823281D01*
X99084166Y-93824500D01*
X98770139Y-93824500D01*
X98711948Y-93805593D01*
X98675984Y-93756093D01*
X98675984Y-93694907D01*
X98700133Y-93655498D01*
X98715977Y-93639655D01*
X98830941Y-93467598D01*
X98910130Y-93276420D01*
X98950500Y-93073465D01*
X98950500Y-92866535D01*
X98910130Y-92663580D01*
X98830941Y-92472402D01*
X98715977Y-92300345D01*
X98569655Y-92154023D01*
X98560948Y-92148205D01*
X98397597Y-92039058D01*
X98206418Y-91959869D01*
X98003467Y-91919500D01*
X98003465Y-91919500D01*
X97796535Y-91919500D01*
X97796532Y-91919500D01*
X97593581Y-91959869D01*
X97402402Y-92039058D01*
X97230348Y-92154020D01*
X97084020Y-92300348D01*
X96969058Y-92472402D01*
X96889869Y-92663581D01*
X96849500Y-92866532D01*
X96849500Y-93073467D01*
X96889869Y-93276418D01*
X96969058Y-93467597D01*
X97080898Y-93634978D01*
X97084023Y-93639655D01*
X97099866Y-93655498D01*
X97127642Y-93710013D01*
X97118071Y-93770445D01*
X97074806Y-93813710D01*
X97029861Y-93824500D01*
X94675835Y-93824500D01*
X94617644Y-93805593D01*
X94605832Y-93795504D01*
X94399862Y-93589535D01*
X94399857Y-93589531D01*
X94325642Y-93546683D01*
X94325644Y-93546683D01*
X94293521Y-93538076D01*
X94242853Y-93524500D01*
X94242851Y-93524500D01*
X93362051Y-93524500D01*
X93303860Y-93505593D01*
X93267896Y-93456093D01*
X93267896Y-93394907D01*
X93269436Y-93390521D01*
X93272283Y-93382981D01*
X93289688Y-93352836D01*
X93304383Y-93297988D01*
X93306118Y-93293397D01*
X93314680Y-93282706D01*
X93328727Y-93258374D01*
X94560489Y-92026614D01*
X94619799Y-91923887D01*
X94628729Y-91890559D01*
X94650500Y-91809309D01*
X94650500Y-90326532D01*
X96849500Y-90326532D01*
X96849500Y-90533467D01*
X96889869Y-90736418D01*
X96969058Y-90927597D01*
X97079478Y-91092853D01*
X97084023Y-91099655D01*
X97230345Y-91245977D01*
X97402402Y-91360941D01*
X97593580Y-91440130D01*
X97796535Y-91480500D01*
X97796536Y-91480500D01*
X98003464Y-91480500D01*
X98003465Y-91480500D01*
X98206420Y-91440130D01*
X98397598Y-91360941D01*
X98569655Y-91245977D01*
X98715977Y-91099655D01*
X98830941Y-90927598D01*
X98910130Y-90736420D01*
X98950500Y-90533465D01*
X98950500Y-90326535D01*
X98910130Y-90123580D01*
X98830941Y-89932402D01*
X98715977Y-89760345D01*
X98569655Y-89614023D01*
X98554785Y-89604087D01*
X98397597Y-89499058D01*
X98206418Y-89419869D01*
X98003467Y-89379500D01*
X98003465Y-89379500D01*
X97796535Y-89379500D01*
X97796532Y-89379500D01*
X97593581Y-89419869D01*
X97402402Y-89499058D01*
X97230348Y-89614020D01*
X97084020Y-89760348D01*
X96969058Y-89932402D01*
X96889869Y-90123581D01*
X96849500Y-90326532D01*
X94650500Y-90326532D01*
X94650500Y-87786532D01*
X96849500Y-87786532D01*
X96849500Y-87993467D01*
X96889869Y-88196418D01*
X96969058Y-88387597D01*
X97084020Y-88559651D01*
X97084023Y-88559655D01*
X97230345Y-88705977D01*
X97402402Y-88820941D01*
X97593580Y-88900130D01*
X97796535Y-88940500D01*
X97796536Y-88940500D01*
X98003464Y-88940500D01*
X98003465Y-88940500D01*
X98206420Y-88900130D01*
X98397598Y-88820941D01*
X98569655Y-88705977D01*
X98715977Y-88559655D01*
X98830941Y-88387598D01*
X98910130Y-88196420D01*
X98950500Y-87993465D01*
X98950500Y-87786535D01*
X98910130Y-87583580D01*
X98830941Y-87392402D01*
X98715977Y-87220345D01*
X98569655Y-87074023D01*
X98397598Y-86959059D01*
X98397599Y-86959059D01*
X98397597Y-86959058D01*
X98206418Y-86879869D01*
X98003467Y-86839500D01*
X98003465Y-86839500D01*
X97796535Y-86839500D01*
X97796532Y-86839500D01*
X97593581Y-86879869D01*
X97402402Y-86959058D01*
X97230348Y-87074020D01*
X97084020Y-87220348D01*
X96969058Y-87392402D01*
X96889869Y-87583581D01*
X96849500Y-87786532D01*
X94650500Y-87786532D01*
X94650500Y-85246532D01*
X96849500Y-85246532D01*
X96849500Y-85453467D01*
X96889869Y-85656418D01*
X96969058Y-85847597D01*
X97084020Y-86019651D01*
X97084023Y-86019655D01*
X97230345Y-86165977D01*
X97402402Y-86280941D01*
X97593580Y-86360130D01*
X97796535Y-86400500D01*
X97796536Y-86400500D01*
X98003464Y-86400500D01*
X98003465Y-86400500D01*
X98206420Y-86360130D01*
X98397598Y-86280941D01*
X98569655Y-86165977D01*
X98715977Y-86019655D01*
X98830941Y-85847598D01*
X98910130Y-85656420D01*
X98950500Y-85453465D01*
X98950500Y-85246535D01*
X98910130Y-85043580D01*
X98830941Y-84852402D01*
X98715977Y-84680345D01*
X98569655Y-84534023D01*
X98569651Y-84534020D01*
X98397597Y-84419058D01*
X98206418Y-84339869D01*
X98003467Y-84299500D01*
X98003465Y-84299500D01*
X97796535Y-84299500D01*
X97796532Y-84299500D01*
X97593581Y-84339869D01*
X97402402Y-84419058D01*
X97230348Y-84534020D01*
X97084020Y-84680348D01*
X96969058Y-84852402D01*
X96889869Y-85043581D01*
X96849500Y-85246532D01*
X94650500Y-85246532D01*
X94650500Y-82706532D01*
X96849500Y-82706532D01*
X96849500Y-82913467D01*
X96889869Y-83116418D01*
X96969058Y-83307597D01*
X97084020Y-83479651D01*
X97084023Y-83479655D01*
X97230345Y-83625977D01*
X97402402Y-83740941D01*
X97593580Y-83820130D01*
X97796535Y-83860500D01*
X97796536Y-83860500D01*
X98003464Y-83860500D01*
X98003465Y-83860500D01*
X98206420Y-83820130D01*
X98397598Y-83740941D01*
X98569655Y-83625977D01*
X98715977Y-83479655D01*
X98830941Y-83307598D01*
X98910130Y-83116420D01*
X98950500Y-82913465D01*
X98950500Y-82706535D01*
X98910130Y-82503580D01*
X98830941Y-82312402D01*
X98715977Y-82140345D01*
X98569655Y-81994023D01*
X98569651Y-81994020D01*
X98397597Y-81879058D01*
X98206418Y-81799869D01*
X98003467Y-81759500D01*
X98003465Y-81759500D01*
X97796535Y-81759500D01*
X97796532Y-81759500D01*
X97593581Y-81799869D01*
X97402402Y-81879058D01*
X97230348Y-81994020D01*
X97084020Y-82140348D01*
X96969058Y-82312402D01*
X96889869Y-82503581D01*
X96849500Y-82706532D01*
X94650500Y-82706532D01*
X94650500Y-80166532D01*
X96849500Y-80166532D01*
X96849500Y-80373467D01*
X96889869Y-80576418D01*
X96969058Y-80767597D01*
X97084020Y-80939651D01*
X97084023Y-80939655D01*
X97230345Y-81085977D01*
X97402402Y-81200941D01*
X97593580Y-81280130D01*
X97796535Y-81320500D01*
X97796536Y-81320500D01*
X98003464Y-81320500D01*
X98003465Y-81320500D01*
X98206420Y-81280130D01*
X98397598Y-81200941D01*
X98569655Y-81085977D01*
X98715977Y-80939655D01*
X98830941Y-80767598D01*
X98910130Y-80576420D01*
X98950500Y-80373465D01*
X98950500Y-80166535D01*
X98910130Y-79963580D01*
X98830941Y-79772402D01*
X98715977Y-79600345D01*
X98569655Y-79454023D01*
X98569651Y-79454020D01*
X98397597Y-79339058D01*
X98206418Y-79259869D01*
X98003467Y-79219500D01*
X98003465Y-79219500D01*
X97796535Y-79219500D01*
X97796532Y-79219500D01*
X97593581Y-79259869D01*
X97402402Y-79339058D01*
X97230348Y-79454020D01*
X97084020Y-79600348D01*
X96969058Y-79772402D01*
X96889869Y-79963581D01*
X96849500Y-80166532D01*
X94650500Y-80166532D01*
X94650500Y-77626532D01*
X96849500Y-77626532D01*
X96849500Y-77833467D01*
X96889869Y-78036418D01*
X96969058Y-78227597D01*
X97084020Y-78399651D01*
X97084023Y-78399655D01*
X97230345Y-78545977D01*
X97402402Y-78660941D01*
X97593580Y-78740130D01*
X97796535Y-78780500D01*
X97796536Y-78780500D01*
X98003464Y-78780500D01*
X98003465Y-78780500D01*
X98206420Y-78740130D01*
X98397598Y-78660941D01*
X98569655Y-78545977D01*
X98715977Y-78399655D01*
X98830941Y-78227598D01*
X98910130Y-78036420D01*
X98950500Y-77833465D01*
X98950500Y-77626535D01*
X98910130Y-77423580D01*
X98830941Y-77232402D01*
X98715977Y-77060345D01*
X98569655Y-76914023D01*
X98397598Y-76799059D01*
X98397599Y-76799059D01*
X98397597Y-76799058D01*
X98206418Y-76719869D01*
X98003467Y-76679500D01*
X98003465Y-76679500D01*
X97796535Y-76679500D01*
X97796532Y-76679500D01*
X97593581Y-76719869D01*
X97402402Y-76799058D01*
X97230348Y-76914020D01*
X97084020Y-77060348D01*
X96969058Y-77232402D01*
X96889869Y-77423581D01*
X96849500Y-77626532D01*
X94650500Y-77626532D01*
X94650500Y-76447237D01*
X94663762Y-76397739D01*
X94689688Y-76352836D01*
X94725500Y-76219183D01*
X94725500Y-76080817D01*
X94689688Y-75947164D01*
X94620505Y-75827335D01*
X94522665Y-75729495D01*
X94402836Y-75660312D01*
X94269183Y-75624500D01*
X94130817Y-75624500D01*
X93997164Y-75660312D01*
X93877335Y-75729495D01*
X93779495Y-75827335D01*
X93710312Y-75947164D01*
X93674500Y-76080817D01*
X93674500Y-76219183D01*
X93710312Y-76352836D01*
X93736237Y-76397739D01*
X93749500Y-76447237D01*
X93749500Y-91522388D01*
X93730593Y-91580579D01*
X93720504Y-91592392D01*
X92691625Y-92621270D01*
X92647245Y-92646892D01*
X92597164Y-92660311D01*
X92597160Y-92660313D01*
X92477337Y-92729493D01*
X92477335Y-92729495D01*
X92379495Y-92827335D01*
X92310312Y-92947164D01*
X92274500Y-93080817D01*
X92274500Y-93219183D01*
X92298374Y-93308285D01*
X92310312Y-93352837D01*
X92323686Y-93376001D01*
X92336407Y-93435849D01*
X92311520Y-93491745D01*
X92258531Y-93522337D01*
X92237949Y-93524500D01*
X89075835Y-93524500D01*
X89017644Y-93505593D01*
X89005831Y-93495504D01*
X87016657Y-91506330D01*
X86991035Y-91461950D01*
X86973207Y-91395413D01*
X86920480Y-91304087D01*
X86845913Y-91229520D01*
X86802608Y-91204518D01*
X86754589Y-91176794D01*
X86754588Y-91176793D01*
X86754587Y-91176793D01*
X86652727Y-91149500D01*
X86547273Y-91149500D01*
X86445413Y-91176793D01*
X86445412Y-91176793D01*
X86445410Y-91176794D01*
X86445409Y-91176794D01*
X86354089Y-91229518D01*
X86279518Y-91304089D01*
X86226794Y-91395409D01*
X86226794Y-91395410D01*
X86226793Y-91395412D01*
X86226793Y-91395413D01*
X86203995Y-91480500D01*
X86199500Y-91497274D01*
X86199500Y-91559808D01*
X86180593Y-91617999D01*
X86131093Y-91653963D01*
X86074879Y-91655435D01*
X86052729Y-91649500D01*
X86052727Y-91649500D01*
X85947273Y-91649500D01*
X85845413Y-91676793D01*
X85845412Y-91676793D01*
X85845410Y-91676794D01*
X85839419Y-91679276D01*
X85838555Y-91677191D01*
X85788462Y-91687835D01*
X85732569Y-91662943D01*
X85701981Y-91609952D01*
X85700972Y-91584216D01*
X85700500Y-91584216D01*
X85700500Y-91472274D01*
X85700500Y-91472273D01*
X85673207Y-91370413D01*
X85667738Y-91360941D01*
X85620481Y-91279089D01*
X85620480Y-91279087D01*
X85545913Y-91204520D01*
X85537218Y-91199500D01*
X85454589Y-91151794D01*
X85454588Y-91151793D01*
X85454587Y-91151793D01*
X85352727Y-91124500D01*
X85247273Y-91124500D01*
X85145413Y-91151793D01*
X85085753Y-91186237D01*
X85036255Y-91199500D01*
X84188645Y-91199500D01*
X84130454Y-91180593D01*
X84118641Y-91170504D01*
X83754496Y-90806359D01*
X83726719Y-90751842D01*
X83725500Y-90736355D01*
X83725500Y-87463643D01*
X83744407Y-87405452D01*
X83754490Y-87393645D01*
X90598415Y-80549720D01*
X90598418Y-80549719D01*
X90659021Y-80489116D01*
X90696277Y-80424587D01*
X90701874Y-80414893D01*
X90724056Y-80332107D01*
X90724056Y-80246401D01*
X90724056Y-71411457D01*
X90742963Y-71353266D01*
X90785169Y-71319993D01*
X90896154Y-71274023D01*
X91068211Y-71159059D01*
X91080054Y-71147215D01*
X91134569Y-71119440D01*
X91195001Y-71129011D01*
G37*
%TD.AperFunction*%
%TA.AperFunction,Conductor*%
G36*
X86966883Y-92384063D02*
G01*
X86991942Y-92402269D01*
X88109702Y-93520029D01*
X88137479Y-93574546D01*
X88127908Y-93634978D01*
X88084643Y-93678243D01*
X88039698Y-93689033D01*
X87095840Y-93689033D01*
X87046341Y-93675770D01*
X86986682Y-93641326D01*
X86884822Y-93614033D01*
X86779368Y-93614033D01*
X86677508Y-93641326D01*
X86647998Y-93658363D01*
X86588151Y-93671084D01*
X86532256Y-93646197D01*
X86501663Y-93593209D01*
X86499500Y-93572626D01*
X86499500Y-92795711D01*
X86518407Y-92737520D01*
X86528490Y-92725713D01*
X86851936Y-92402267D01*
X86906451Y-92374492D01*
X86966883Y-92384063D01*
G37*
%TD.AperFunction*%
%TA.AperFunction,Conductor*%
G36*
X86920895Y-70911911D02*
G01*
X86949649Y-70911911D01*
X86951292Y-70913105D01*
X86953323Y-70913185D01*
X86975895Y-70930980D01*
X86999149Y-70947875D01*
X87001356Y-70951043D01*
X87017503Y-70975208D01*
X87038121Y-71006066D01*
X87042579Y-71012737D01*
X87188901Y-71159059D01*
X87360958Y-71274023D01*
X87471942Y-71319993D01*
X87518467Y-71359729D01*
X87533056Y-71411457D01*
X87533056Y-82015609D01*
X87514149Y-82073800D01*
X87504060Y-82085613D01*
X86989060Y-82600613D01*
X86934543Y-82628390D01*
X86874111Y-82618819D01*
X86830846Y-82575554D01*
X86820056Y-82530609D01*
X86820056Y-71006066D01*
X86820683Y-71004134D01*
X86820132Y-71002178D01*
X86830081Y-70975208D01*
X86838963Y-70947875D01*
X86840606Y-70946680D01*
X86841310Y-70944775D01*
X86865199Y-70928812D01*
X86888463Y-70911911D01*
X86890496Y-70911911D01*
X86892184Y-70910783D01*
X86920895Y-70911911D01*
G37*
%TD.AperFunction*%
%TA.AperFunction,Conductor*%
G36*
X63293553Y-60554407D02*
G01*
X63329517Y-60603907D01*
X63329517Y-60665093D01*
X63293553Y-60714593D01*
X63268060Y-60727944D01*
X63210950Y-60747927D01*
X62963036Y-60867316D01*
X62963024Y-60867323D01*
X62730021Y-61013728D01*
X62603321Y-61114766D01*
X63280895Y-61792340D01*
X63172816Y-61870864D01*
X63005864Y-62037816D01*
X62927340Y-62145895D01*
X62249766Y-61468321D01*
X62148728Y-61595021D01*
X62002323Y-61828024D01*
X62002316Y-61828036D01*
X61882927Y-62075950D01*
X61867944Y-62118771D01*
X61830879Y-62167451D01*
X61772278Y-62185048D01*
X61714527Y-62164840D01*
X61679683Y-62114545D01*
X61675500Y-62086073D01*
X61675500Y-60634500D01*
X61694407Y-60576309D01*
X61743907Y-60540345D01*
X61774500Y-60535500D01*
X63235362Y-60535500D01*
X63293553Y-60554407D01*
G37*
%TD.AperFunction*%
%TA.AperFunction,Conductor*%
G36*
X101373691Y-60554407D02*
G01*
X101409655Y-60603907D01*
X101414500Y-60634500D01*
X101414500Y-62086073D01*
X101395593Y-62144264D01*
X101346093Y-62180228D01*
X101284907Y-62180228D01*
X101235407Y-62144264D01*
X101222056Y-62118771D01*
X101207072Y-62075950D01*
X101087683Y-61828036D01*
X101087676Y-61828024D01*
X100941269Y-61595018D01*
X100941267Y-61595015D01*
X100840232Y-61468321D01*
X100162659Y-62145893D01*
X100084136Y-62037816D01*
X99917184Y-61870864D01*
X99809103Y-61792339D01*
X100486677Y-61114766D01*
X100359984Y-61013732D01*
X100359981Y-61013730D01*
X100126975Y-60867323D01*
X100126963Y-60867316D01*
X99879048Y-60747927D01*
X99879049Y-60747927D01*
X99821940Y-60727944D01*
X99773260Y-60690879D01*
X99755663Y-60632278D01*
X99775871Y-60574527D01*
X99826166Y-60539683D01*
X99854638Y-60535500D01*
X101315500Y-60535500D01*
X101373691Y-60554407D01*
G37*
%TD.AperFunction*%
%TD*%
M02*
