%TF.GenerationSoftware,KiCad,Pcbnew,9.0.6-2-gc0dd847fce*%
%TF.CreationDate,2026-01-10T14:53:23+08:00*%
%TF.ProjectId,dev_board_STM32H7,6465765f-626f-4617-9264-5f53544d3332,1.0*%
%TF.SameCoordinates,Original*%
%TF.FileFunction,Soldermask,Bot*%
%TF.FilePolarity,Negative*%
%FSLAX46Y46*%
G04 Gerber Fmt 4.6, Leading zero omitted, Abs format (unit mm)*
G04 Created by KiCad (PCBNEW 9.0.6-2-gc0dd847fce) date 2026-01-10 14:53:23*
%MOMM*%
%LPD*%
G01*
G04 APERTURE LIST*
%ADD10C,4.500000*%
%ADD11R,1.700000X1.700000*%
%ADD12O,1.700000X1.700000*%
%ADD13C,1.700000*%
%ADD14C,0.650000*%
%ADD15O,1.000000X2.100000*%
%ADD16O,1.000000X1.800000*%
G04 APERTURE END LIST*
D10*
%TO.C,H2*%
X64150000Y-125495000D03*
%TD*%
%TO.C,H4*%
X98940000Y-63015000D03*
%TD*%
%TO.C,H3*%
X98940000Y-125495000D03*
%TD*%
%TO.C,H1*%
X64150000Y-63015000D03*
%TD*%
D11*
%TO.C,J2*%
X62600000Y-67570000D03*
D12*
X65140000Y-67570000D03*
X62600000Y-70110000D03*
X65140000Y-70110000D03*
X62600000Y-72650000D03*
X65140000Y-72650000D03*
X62600000Y-75190000D03*
X65140000Y-75190000D03*
X62600000Y-77730000D03*
X65140000Y-77730000D03*
X62600000Y-80270000D03*
X65140000Y-80270000D03*
X62600000Y-82810000D03*
X65140000Y-82810000D03*
X62600000Y-85350000D03*
X65140000Y-85350000D03*
X62600000Y-87890000D03*
X65140000Y-87890000D03*
X62600000Y-90430000D03*
X65140000Y-90430000D03*
X62600000Y-92970000D03*
X65140000Y-92970000D03*
X62600000Y-95510000D03*
X65140000Y-95510000D03*
X62600000Y-98050000D03*
X65140000Y-98050000D03*
X62600000Y-100590000D03*
X65140000Y-100590000D03*
X62600000Y-103130000D03*
X65140000Y-103130000D03*
X62600000Y-105670000D03*
X65140000Y-105670000D03*
X62600000Y-108210000D03*
X65140000Y-108210000D03*
X62600000Y-110750000D03*
X65140000Y-110750000D03*
X62600000Y-113290000D03*
X65140000Y-113290000D03*
X62600000Y-115830000D03*
X65140000Y-115830000D03*
X62600000Y-118370000D03*
X65140000Y-118370000D03*
X62600000Y-120910000D03*
X65140000Y-120910000D03*
%TD*%
D11*
%TO.C,J3*%
X97900000Y-67570000D03*
D12*
X100440000Y-67570000D03*
X97900000Y-70110000D03*
X100440000Y-70110000D03*
X97900000Y-72650000D03*
X100440000Y-72650000D03*
X97900000Y-75190000D03*
X100440000Y-75190000D03*
X97900000Y-77730000D03*
X100440000Y-77730000D03*
X97900000Y-80270000D03*
X100440000Y-80270000D03*
X97900000Y-82810000D03*
X100440000Y-82810000D03*
X97900000Y-85350000D03*
X100440000Y-85350000D03*
X97900000Y-87890000D03*
X100440000Y-87890000D03*
X97900000Y-90430000D03*
X100440000Y-90430000D03*
X97900000Y-92970000D03*
X100440000Y-92970000D03*
X97900000Y-95510000D03*
X100440000Y-95510000D03*
X97900000Y-98050000D03*
X100440000Y-98050000D03*
X97900000Y-100590000D03*
X100440000Y-100590000D03*
X97900000Y-103130000D03*
X100440000Y-103130000D03*
X97900000Y-105670000D03*
X100440000Y-105670000D03*
X97900000Y-108210000D03*
X100440000Y-108210000D03*
X97900000Y-110750000D03*
X100440000Y-110750000D03*
X97900000Y-113290000D03*
X100440000Y-113290000D03*
X97900000Y-115830000D03*
X100440000Y-115830000D03*
X97900000Y-118370000D03*
X100440000Y-118370000D03*
X97900000Y-120910000D03*
X100440000Y-120910000D03*
%TD*%
D11*
%TO.C,J4*%
X81920000Y-61850000D03*
D13*
X84460000Y-61850000D03*
X87000000Y-61850000D03*
X89540000Y-61850000D03*
X92080000Y-61850000D03*
%TD*%
D14*
%TO.C,J1*%
X76400000Y-66301000D03*
X70600000Y-66311000D03*
D15*
X77820000Y-66801000D03*
D16*
X77820000Y-62651000D03*
D15*
X69180000Y-66801000D03*
D16*
X69180000Y-62651000D03*
%TD*%
D11*
%TO.C,J6*%
X72618556Y-70343082D03*
D13*
X75158556Y-70343082D03*
X77698556Y-70343082D03*
X80238556Y-70343082D03*
X82778556Y-70343082D03*
X85318556Y-70343082D03*
X87858556Y-70343082D03*
X90398556Y-70343082D03*
%TD*%
M02*
